<svg xmlns="http://www.w3.org/2000/svg" version="1.1" xmlns:xlink="http://www.w3.org/1999/xlink" viewBox="0 0 1422 800" style="overflow: hidden; display: block;" width="1422" height="800"><defs></defs><g id="two-0" transform="matrix(1 0 0 1 0 0)" opacity="1"></g><path d="M 460.39419392993125 719.7363301186515 Q 460.39419392993125 719.7363301186515 458.448495138434 716.6703284627938 456.50279634693675 713.6043268069361 451.1991108336681 705.2847316889829 445.8954253203994 696.9651365710296 442.2132948199204 687.2190355341331 438.5311643194414 677.4729344972367 434.7719186526257 667.548234646964 431.01267298580996 657.6235347966914 427.2853480314335 648.9658832674228 423.5580230770571 640.3082317381542 419.10207505648475 630.8044752705714 414.64612703591234 621.3007188029887 411.0787912755479 612.698444177412 407.51145551518346 604.0961695518351 404.595612938466 595.2336566902031 401.6797703617485 586.3711438285712 401.2234425458448 577.1129146052414 400.76711472994106 567.8546853819115 404.40358585875504 559.281269993777 408.0400569875691 550.7078546056424 417.82518893449094 550.1653538596745 427.6103208814128 549.6228531137067 437.46867935183354 550.6301800688652 447.3270378222542 551.6375070240239 454.9590542278719 558.2991983822277 462.5910706334896 564.9608897404315 468.8104161252347 571.6865986196995 475.0297616169799 578.4123074989675 481.22211210606224 585.8728038209911 487.4144625951445 593.3333001430148 494.1503792275485 600.0009818893984 500.8862958599525 606.6686636357822 502.9781677237304 613.4545147083362 505.07003958750823 620.2403657808902 505.0673468244061 620.2445787402867 505.064654061304 620.248791699683 505.0619612982019 620.2530046590794 505.05926853509976 620.2572176184758 497.3450544393927 617.6230706849094 489.63084034368563 614.9889237513431 482.86947544000486 607.8600825081882 476.10811053632403 600.7312412650332 470.0701143101092 593.619397611058 464.0321180838944 586.5075539570828 457.54909223560423 579.2691943236392 451.0660663873141 572.0308346901957 442.2161646645455 567.5368343117991 433.3662629417769 563.0428339334027 423.7382238881106 561.9522540764507 414.11018483444434 560.8616742194987 414.24874051391623 570.418934613112 414.3872961933882 579.9761950067252 416.7358772492745 588.8347487483259 419.08445830516075 597.6933024899265 422.7398774675071 606.5162522233439 426.3952966298535 615.3392019567614 431.0676709079379 625.3713124644071 435.74004518602226 635.4034229720527 439.5702735649538 644.422598465331 443.40050194388533 653.4417739586094 446.87086799041344 662.5537848361826 450.3412340369415 671.6657957137558 453.79930896006636 681.3713363946417 457.25738388319115 691.0768770755277 462.2338249723508 698.9588539917177 467.21026606151054 706.8408309079077 469.14289934703964 709.9155316446281 471.07553263256875 712.9902323813485 471.40155695577283 713.6783156819379 471.7275812789769 714.3663989825274 471.8794570763837 715.1125117287211 472.0313328737905 715.8586244749148 472.00023311691893 716.6194025588482 471.9691333600473 717.3801806427814 471.7568655682279 718.1114076064711 471.54459777640847 718.8426345701607 471.1634989636751 719.5018114681206 470.78240015094184 720.1609883660805 470.25461979819653 720.7098038060298 469.7268394454512 721.258619245979 469.08305217159307 721.665176048762 468.439264897735 722.0717328515449 467.7168876493689 722.3124019166817 466.9945104010029 722.5530709818185 466.2355277777447 722.6138646119356 465.47654515448653 722.6746582420527 464.72506926206063 722.5520431085114 463.97359336963467 722.42942797497 463.27330002221674 722.1305304750928 462.5730066747988 721.8316329752155 461.964596954644 721.3738250457388 461.3561872344891 720.9160171162621 460.87502194311867 720.325906575557 460.3938566517483 719.735796034852 460.39402529083975 719.7360630767517 Z" fill="#00c7ff"></path><path d="M 463.35891726371216 581.917638619631 Q 463.35891726371216 581.917638619631 464.1590220345283 579.0067044691302 464.9591268053444 576.0957703186293 467.4313238251786 567.2109569231154 469.9035208450128 558.3261435276016 471.3735826887654 548.9309546209357 472.84364453251806 539.5357657142698 475.59571405883344 530.5945517354235 478.3477835851488 521.6533377565771 484.10658894383494 514.0535020227403 489.865394302521 506.4536662889036 497.575396022567 500.88632352426066 505.285397742613 495.3189807596177 514.085954141068 492.54490632628006 522.8865105395231 489.77083189294234 532.26994491914 493.2018193310072 541.6533792987569 496.63280676907203 544.5308035279744 506.66463018647994 547.4082277571919 516.6964536038878 548.7952886797113 525.9097855189925 550.1823496022309 535.1231174340971 552.1051103607679 544.3464425331466 554.0278711193047 553.5697676321961 556.8505298343229 562.5199736922582 559.673188549341 571.4701797523202 562.780997638466 580.2739403923257 565.8888067275909 589.0777010323312 568.5192561963069 597.9689119818731 571.1497056650228 606.8601229314152 573.9350667354048 616.4237089280343 576.7204278057868 625.9872949246534 580.2388168455323 635.8567017381274 583.7572058852777 645.7261085516016 586.762830151467 654.8663000037749 589.7684544176564 664.0064914559482 592.1438636920401 673.7080586088757 594.5192729664238 683.4096257618033 594.9059763026833 693.0064582487292 595.2926796389427 702.6032907356552 591.4106167627112 711.7515829940558 587.5285538864797 720.8998752524562 577.8272873296289 723.0774813442998 568.1260207727782 725.2550874361434 558.8393934337623 724.229037050034 549.5527660947464 723.2029866639245 540.7632367185752 717.4989170834185 531.9737073424038 711.7948475029124 525.0053045891791 704.0785930669883 518.0369018359545 696.3623386310643 510.34571570438504 688.6216853274382 502.6545295728156 680.8810320238119 496.71458627108325 673.8339979413181 490.77464296935085 666.7869638588242 484.89362765873295 659.7418063792497 479.012612348115 652.6966488996753 471.8257321874139 646.3182938801468 464.63885202671287 639.9399388606183 464.6205221953818 635.585234086489 464.6021923640508 631.2305293123595 464.6049389694692 631.2263512555534 464.60768557488757 631.2221731987472 464.61043218030596 631.2179951419411 464.61317878572436 631.2138170851349 472.2823826694646 633.5080185631803 479.9515865532048 635.8022200412257 487.0209682616088 642.373517894367 494.0903499700129 648.9448157475082 500.11394549196245 656.3245621802126 506.137541013912 663.7043086129171 512.5251411726138 671.0668101860267 518.9127413313155 678.4293117591365 525.4822658832267 685.0609763918567 532.0517904351378 691.692641024577 538.3963673510175 698.4584502453586 544.740944266897 705.2242594661402 553.6675517237004 708.5598274666847 562.5941591805037 711.8953954672292 572.1958882865795 708.8573979185248 581.7976173926553 705.8194003698204 581.5559469959301 696.3061875701235 581.3142765992048 686.7929747704266 579.1564188610214 677.5434660320705 576.998561122838 668.2939572937144 573.9751849335688 659.0923718748816 570.9518087442996 649.8907864560488 567.8150933402001 641.3069903163528 564.6783779361004 632.7231941766569 562.0425005621049 623.4602469362726 559.4066231881094 614.1972996958883 556.4276071440111 604.2054783543462 553.4485910999126 594.213657012804 550.0909607626395 584.6648151366758 546.7333304253665 575.1159732605475 543.8296693442719 565.789051216856 540.9260082631773 556.4621291731644 539.0508552247745 547.3829247473885 537.1757021863718 538.3037203216127 535.6365483082004 528.05397997865 534.0973944300291 517.8042396356872 528.6232646003443 510.47974485872294 523.1491347706595 503.15525008175877 514.0266512209947 506.8984439850922 504.90416767132996 510.6416378884255 498.03689804543205 517.2919838034665 491.1696284195341 523.9423297185074 488.3299112649635 533.0752867676738 485.49019411039296 542.2082438168403 483.88275193356844 551.9167021905663 482.275309756744 561.6251605642923 479.7309398491129 570.558696313017 477.18656994148176 579.4922320617418 476.3707050009942 582.3988079515241 475.5548400605066 585.3053838413065 475.2635451596418 586.0104634659574 474.97225025877697 586.7155430906082 474.5206785297437 587.3304194764823 474.0691068007104 587.9452958623564 473.4835036136171 588.4342323650169 472.89790042652373 588.9231688676773 472.2123010661187 589.2577484746168 471.5267017057136 589.5923280815564 470.7809532390363 589.7531050102996 470.03520477235895 589.9138819390428 469.2726501353315 589.8915118269371 468.51009549830405 589.8691417148314 467.775054402259 589.6649247138432 467.04001330621395 589.4607077128551 466.3752063741892 589.0865129246772 465.71039944216443 588.7123181364993 465.15446528428504 588.189893779802 464.59853112640565 587.6674694231046 464.1837806620481 587.0271788260452 463.7690301976905 586.3868882289856 463.5195687433301 585.665945111149 463.27010728896977 584.9450019933123 463.2004335560549 584.1853076025805 463.1307598231401 583.4256132118486 463.2449232523014 582.6713210219051 463.35908668146277 581.9170288319616 463.35900197258746 581.9173337257963 Z" fill="#00c7ff"></path><path d="M 500.57026712468473 665.4957885742188 Q 500.57026712468473 665.4957885742188 500.5784363898031 667.4349585876464 500.58660565492136 669.3741286010742 500.6299933957081 678.5278929963977 500.6733811364948 687.681657391721 500.7124626766495 697.2417221509347 500.75154421680423 706.8017869101485 500.78243565832037 716.4386899951821 500.8133270998365 726.0755930802156 499.6338951514574 735.9336363671571 498.45446320307826 745.7916796540984 490.02626228160045 750.3507194677643 481.59806136012264 754.9097592814303 473.3785041908642 750.3188751968548 465.15894702160574 745.7279911122794 462.5330049884336 736.2500410039111 459.90706295526155 726.7720908955428 459.73866406426725 716.8809555795646 459.570265173273 706.9898202635864 459.5743216435653 706.9868970720484 459.5783781138576 706.9839738805103 459.58243458414984 706.9810506889723 459.58649105444215 706.9781274974343 462.6637959527169 706.2334721425095 465.74110085099164 705.4888167875848 469.1021430758634 714.2704887340784 472.46318530073523 723.052160680572 475.4334664495959 732.4435808797433 478.4037475984566 741.8350010789146 483.0655044387632 733.9552970795651 487.72726127906975 726.0755930802156 487.7581527205859 716.4386899951821 487.789044162102 706.8017869101485 487.8281257022567 697.2417221509347 487.86720724241144 687.681657391721 487.91059498319817 678.5278929963977 487.9539827239849 669.3741286010742 487.9621519891032 667.4349585876464 487.9703212542215 665.4957885742188 488.06185993497115 664.7419239436807 488.15339861572085 663.9880593131427 488.4226944255437 663.2780093303518 488.6919902353666 662.5679593475608 489.123391689143 661.9429921508781 489.5547931429193 661.3180249541956 490.1232271678864 660.8144636664565 490.6916611928535 660.3109023787175 491.3640903767724 659.9580140056253 492.0365195606913 659.6051256325329 492.7738622877988 659.4234200629118 493.5112050149063 659.2417144932906 494.2706068912589 659.2417524633845 495.03000876761155 659.2417904334784 495.76733332047536 659.4235697364636 496.5046578733392 659.6053490394487 497.17705176505876 659.9583046536949 497.8494456567783 660.3112602679411 498.41782932277454 660.8148783965646 498.9862129887708 661.3184965251883 499.41755194367056 661.9435068588913 499.84889089857035 662.5685171925943 500.1181157020486 663.278594101416 500.3873405055268 663.9886710102377 500.4788037993559 664.7425447908745 500.5702670931849 665.4964185715112 500.5702671089348 665.496103572865 Z" fill="#00c7ff"></path><path d="M 519.7250285913466 548.4302420481453 Q 519.7250285913466 548.4302420481453 521.669749494592 552.1440740658375 523.6144703978373 555.8579060835297 528.6248674165088 565.2181000225928 533.6352644351803 574.5782939616561 533.2283342633115 580.7721543039072 532.8214040914427 586.9660146461582 532.8168725940193 586.968127826487 532.812341096596 586.970241006816 532.8078095991727 586.9723541871449 532.8032781017494 586.9744673674737 527.4713377335587 583.5720353034458 522.139397365368 580.1696032394177 517.2618362254645 570.9434012207662 512.3842750855611 561.7171992021148 510.450655961951 557.997543518391 508.5170368383409 554.2778878346672 508.24859373658285 553.564821728264 507.98015063482484 552.8517556218608 507.8901617105762 552.0951665890992 507.80017278632755 551.3385775563377 507.8938682000938 550.58243858735 507.98756361386 549.8262996183623 508.2594977837907 549.1145575455532 508.5314319537214 548.4028154727441 508.96580005308346 547.7768367788262 509.40016815244553 547.1508580849085 509.9717246868953 546.6470246809838 510.54328122134507 546.1431912770591 511.2188072982459 545.7907859842364 511.8943333751467 545.4383806914136 512.6345673871697 545.2578853218693 513.3748013991926 545.0773899523249 514.1367209107791 545.0792949054173 514.8986404223656 545.0811998585099 515.6379626357036 545.265394418276 516.3772848490418 545.4495889780421 517.0510403223552 545.8053677480139 517.7247957956687 546.1611465179857 518.2938258291924 546.6678316193361 518.8628558627161 547.1745167206866 519.2940884041657 547.8026595915188 519.7253209456154 548.430802462351 519.725174768481 548.4305222552482 Z" fill="#00c7ff"></path><path d="M 538.5139787717709 509.58061440345097 Q 538.5139787717709 509.58061440345097 539.799621526156 507.4754166417092 541.0852642805411 505.3702188799675 546.9032158439823 497.7593705733354 552.7211674074235 490.14852226670325 559.9946631508334 483.4115954693184 567.2681588942432 476.67466867193355 575.8739518577754 471.9236839874281 584.4797448213075 467.17269930292264 594.0611159081277 463.5424255661144 603.642486994948 459.9121518293061 613.2586842850912 459.57464982712645 622.8748815752347 459.2371478249468 631.8084807653017 462.95889692146864 640.7420799553689 466.68064601799045 647.7559510720871 472.85122716977594 654.7698221888054 479.02180832156137 662.1241960420446 485.83627244923446 669.4785698952837 492.6507365769075 677.162984768352 498.54458017535956 684.8473996414202 504.4384237738116 684.8227190588877 514.2235476914921 684.7980384763553 524.0086716091726 677.4879691973392 529.5153963894808 670.1778999183233 535.022121169789 661.6004712606582 539.571781453066 653.0230426029931 544.1214417363432 644.3850876941962 547.1934526160128 635.7471327853992 550.2654634956823 626.3218846930063 551.6704858408792 616.8966366006134 553.0755081860761 610.6058417233293 550.4675407517004 604.3150468460451 547.8595733173248 604.3103719338031 547.8577998474125 604.3056970215612 547.8560263775003 604.3010221093192 547.854252907588 604.2963471970772 547.8524794376757 603.1486703522258 543.8444856490951 602.0009935073745 539.8364918605146 612.501785186885 539.5101384603482 623.0025768663953 539.1837850601819 632.4461452647967 536.7363071407817 641.889713663198 534.2888292213814 650.8652270552454 529.6985343701815 659.8407404472929 525.1082395189816 667.4147075718073 519.3580415773393 674.9886746963217 513.6078436356971 667.4795602369056 507.7553304352233 659.9704457774894 501.9028172347494 653.1222238811165 495.7736534149525 646.2740019847437 489.64448959515556 639.0828653679703 483.11531580271327 631.891728751197 476.586142010271 623.0517699537602 474.0852530596311 614.2118111563234 471.5843641089912 605.2081172604071 473.91090484474023 596.2044233644909 476.2374455804892 587.5619112651148 480.5849672151413 578.9193991657387 484.9324888497935 571.4112737574521 490.81794967154127 563.9031483491657 496.703410493289 557.8916073785506 504.3583660245563 551.8800664079355 512.0133215558235 550.5801385446448 514.1096641230613 549.2802106813541 516.206006690299 548.8055915333337 516.8020252643964 548.3309723853133 517.3980438384938 547.7275046483671 517.8631547573098 547.1240369114211 518.3282656761256 546.4267941587743 518.6354366712054 545.7295514061277 518.9426076662852 544.979057419324 519.0739859449625 544.2285634325203 519.2053642236397 543.4684369573345 519.1533140741849 542.7083104821487 519.10126392473 541.9827301050329 518.868810504275 541.2571497279172 518.6363570838199 540.6082862144807 518.2370105960833 539.9594227010442 517.8376641083468 539.4249880291746 517.2946345899591 538.8905533573051 516.7516050715714 538.5016088952418 516.0964534236555 538.1126644331786 515.4413017757395 537.8918156513312 514.7121054428543 537.6709668694838 513.9829091099691 537.6310495094299 513.2220490172431 537.5911321493759 512.4611889245172 537.7344662099571 511.71288629628845 537.8778002705383 510.96458366805973 538.1960551694192 510.2723298882398 538.5143100683002 509.5800761084199 538.5141444200356 509.5803452559354 Z" fill="#00c7ff"></path><path d="M 636.4057638313593 536.3780900594184 Q 636.4057638313593 536.3780900594184 640.7694995680574 536.8577567619745 645.1332353047557 537.3374234645308 655.3045301804093 538.7965689824282 665.4758250560628 540.2557145003256 675.7603761077196 541.5378301840096 686.0449271593764 542.8199458676938 695.0918790221059 544.5278634609288 704.1388308848354 546.2357810541637 713.259615345664 551.527013787153 722.3803998064925 556.8182465201423 728.4408094190603 564.5994142104407 734.5012190316282 572.3805819007392 732.9339789444408 582.7414652923096 731.3667388572534 593.1023486838801 723.6927492368911 598.1880552425769 716.018759616529 603.2737618012735 707.1561262822045 607.5764902132021 698.2934929478798 611.8792186251306 689.0599866268468 613.4050003240067 679.8264803058138 614.9307820228827 670.0615666182001 614.2390008868759 660.2966529305864 613.5472197508692 650.9873328284699 612.5997348553083 641.6780127263534 611.6522499597473 632.199796715633 611.5530064090536 622.7215807049129 611.4537628583599 615.687107760372 609.2721119524913 608.6526348158311 607.0904610466227 608.6492696183175 607.0867630139439 608.6459044208037 607.083064981265 608.64253922329 607.0793669485861 608.6391740257764 607.0756689159073 613.1617759744933 602.5126344899131 617.6843779232101 597.949600063919 627.2196301359807 597.9936454931611 636.7548823487513 598.0376909224033 645.9241625566065 598.7918810396155 655.0934427644618 599.5460711568278 665.0637748425943 600.5845501536236 675.0341069207268 601.6230291504194 684.9995693898545 600.2694040983192 694.9650318589823 598.9157790462192 704.180099451029 594.46643116175 713.3951670430756 590.017083277281 715.9686304168861 580.730090773972 718.5420937906965 571.443098270663 711.00829241773 565.7101129339912 703.4744910447636 559.9771275973195 694.1825610816609 557.8137995534935 684.8906311185583 555.6504715096673 674.3296382963158 554.2768235525632 663.7686454740733 552.903175595459 653.7506882694734 551.4218415806008 643.7327310648733 549.9405075657427 639.3702096909758 549.450581311756 635.0076883170782 548.9606550577691 634.2650206245548 548.7855946960731 633.5223529320314 548.6105343343771 632.843163174336 548.2628236719047 632.1639734166408 547.9151130094323 631.5877361344026 547.4149610062234 631.0114988521642 546.9148090030145 630.571704983301 546.2912845169953 630.1319111144377 545.6677600309762 629.8541214992715 544.9571023345702 629.5763318841052 544.2464446381643 629.4766916681214 543.4899571900769 629.3770514521375 542.7334697419894 629.4613517293706 541.9751196282466 629.5456520066036 541.2167695145039 629.80899324098 540.5006320793475 630.0723344753563 539.7844946441912 630.4994112619611 539.1521918290001 630.9264880485657 538.519889013809 631.4924786644951 538.0081702879106 632.0584692804246 537.4964515620122 632.7304783244879 537.1350580417989 633.4024873685513 536.7736645215856 634.1414576435335 536.583600415432 634.8804279185157 536.3935363092784 635.6434104373143 536.3858481519644 636.406392956113 536.3781599946503 636.4060783937362 536.3781250270343 Z" fill="#00c7ff"></path><path d="M 644.9163783406872 605.8481477401432 Q 644.9163783406872 605.8481477401432 648.7954164483226 606.1642536101697 652.674454555958 606.4803594801962 662.6889464879741 607.840513646906 672.7034384199901 609.2006678136157 681.2265816738343 613.3488376292426 689.7497249276786 617.4970074448695 696.1629752205562 624.4504957866225 702.5762255134338 631.4039841283754 710.7350896948591 636.2525935928682 718.8939538762844 641.1012030573609 727.6372578013322 644.9965679631046 736.3805617263799 648.8919328688481 738.9658038902862 658.8238213389338 741.5510460541925 668.7557098090195 738.3078900442833 678.0308362671569 735.0647340343743 687.3059627252943 726.9342089837846 694.4161283393623 718.8036839331949 701.5262939534305 708.5385354747516 703.8493396680449 698.2733870163083 706.1723853826593 688.7838241062668 705.9925208223996 679.2942611962254 705.8126562621399 669.8045141324462 703.1094878109416 660.3147670686672 700.4063193597434 651.5759896163561 696.7791547082475 642.8372121640449 693.1519900567516 633.2981420996289 692.1279844884615 623.7590720352129 691.1039789201714 614.0536135622143 690.9851255871176 604.3481550892158 690.8662722540638 596.7850510041592 686.3363765447058 589.2219469191026 681.8064808353478 589.2222201490771 681.8014883063913 589.2224933790516 681.7964957774349 589.222766609026 681.7915032484784 589.2230398390005 681.786510719522 593.6956039621369 678.951491161994 598.1681680852734 676.1164716044661 607.5508182056706 676.779341592609 616.9334683260677 677.4422115807516 626.7610730208344 678.2256881183005 636.5886777156011 679.0091646558494 646.4550446920694 681.7479124089383 656.3214116685376 684.4866601620272 665.4388972891413 687.6537628218691 674.556382909745 690.8208654817109 684.3202532989537 691.911585161107 694.0841236881623 693.0023048405031 704.207107379903 690.8466686498664 714.3300910716438 688.6910324592297 720.7980053519955 680.5874404063412 727.2659196323473 672.4838483534527 722.4199138181858 664.0101451872731 717.5739080040244 655.5364420210936 709.2434539950589 651.0562804735321 700.9129999860933 646.5761189259704 693.442234575456 639.9334390121118 685.9714691648187 633.2907590982531 678.3190793061784 627.5564191684621 670.6666894475381 621.8220792386711 661.1442610920303 620.4642172400773 651.6218327365224 619.1063552414836 647.7442066901051 618.7760764069202 643.8665806436878 618.4457975723568 643.1204801733509 618.2914653538562 642.374379703014 618.1371331353557 641.6868961999371 617.8087267126092 640.9994126968601 617.4803202898627 640.4105027345431 616.9969266595901 639.821592772226 616.5135330293176 639.3654838253487 615.9032470520228 638.9093748784715 615.292961074728 638.6125760204566 614.5912526000855 638.3157771624416 613.8895441254429 638.1955383568619 613.1371964829683 638.0752995512822 612.3848488404938 638.1386090831675 611.6255885105168 638.2019186150527 610.8663281805399 638.445096931435 610.1442834091124 638.6882752478175 609.422238637685 639.0971888135233 608.7793747008477 639.5061023792291 608.1365107640104 640.0569851186067 607.6101909439769 640.6078678579842 607.0838711239434 641.2687024403378 606.7046851533831 641.9295370226914 606.3254991828229 642.6619157110456 606.1154853681608 643.3942943993997 605.9054715534987 644.1556513099765 605.8768359075104 644.9170082205533 605.848200261522 644.9166932806202 605.8481740008326 Z" fill="#00c7ff"></path><path d="M 601.7291258519083 493.2029810632765 Q 601.7291258519083 493.2029810632765 600.7674300619979 495.3073884321344 599.8057342720873 497.41179580099225 595.9902505737634 506.2341836307436 592.1747668754394 515.056571460495 588.734275345182 523.555783074122 585.2937838149246 532.0549946877492 581.9803147543578 535.5429312057106 578.6668456937908 539.030867723672 578.6618458840728 539.0308241027548 578.6568460743549 539.0307804818375 578.651846264637 539.0307368609202 578.646846454919 539.030693240003 575.640362417171 533.1446480689942 572.633878379423 527.2586028979854 576.3076114949995 518.6976961748259 579.9813446105759 510.13678945166635 584.1539452144102 501.12524746620613 588.3265458182447 492.113705480746 589.304020041762 490.0165804704535 590.2814942652792 487.919455460161 590.6807788512291 487.2729195403306 591.080063437179 486.6263836205001 591.622475805653 486.0941940877822 592.1648881741271 485.56200455506433 592.8189032927845 485.17509229010534 593.4729184114419 484.78818002514635 594.2005248908575 484.56903238696464 594.9281313702731 484.349884748783 595.6870406876768 484.31123860840637 596.4459500050805 484.2725924680297 597.1920543152876 484.41669394095254 597.9381586254947 484.56079541387544 598.6280943109405 484.879269315721 599.3180299963861 485.1977432175665 599.9116979626158 485.67207983019597 600.5053659288455 486.14641644282545 600.9682621657687 486.7490473000263 601.4311584026917 487.35167815722707 601.7363793592692 488.0475783252642 602.0416003158466 488.7434784933014 602.1714065357413 489.49220222171175 602.301212755636 490.2409259501222 602.2480598952488 490.9989573806321 602.1949070348616 491.7569888111419 601.9618843409355 492.480271121394 601.7288616470095 493.20355343164607 601.7289937494588 493.2032672474613 Z" fill="#00c7ff"></path><path d="M 667.9641723632812 474.55251795297147 Q 667.9641723632812 474.55251795297147 662.9546591033936 474.5553382150732 657.9451458435059 474.558158477175 646.8308677291467 474.5776356836278 635.7165896147875 474.59711289008055 625.7083138586709 474.63003349186783 615.7000381025542 474.6629540936551 609.376462657528 467.50344615964497 603.0528872125019 460.3439382256348 608.033602106276 451.73356732969194 613.0143170000501 443.123196433749 619.5136026997343 436.18901468332274 626.0128883994183 429.2548329328965 635.2339660274827 424.9586246759575 644.4550436555471 420.6624164190185 653.7687641320349 419.45085517601643 663.0824846085228 418.2392939330144 672.3476699699388 417.1445804400146 681.6128553313547 416.0498669470147 691.542352543798 413.94927051261925 701.4718497562411 411.8486740782238 710.8830797106286 410.415935238298 720.2943096650162 408.98319639837223 730.1927051556465 407.7345822514969 740.0911006462769 406.4859681046215 749.240606952238 406.117193989327 758.390113258199 405.74841987403255 767.7377604665188 406.7596707156188 777.0854076748386 407.7709215572051 784.743930818803 413.23015579937214 792.4024539627675 418.6893900415391 788.3851260746646 427.8498434962397 784.3677981865618 437.0102969509403 775.3838081631295 441.69163941485306 766.3998181396971 446.37298187876576 756.8013441002901 449.3904800675035 747.202870060883 452.40797825624134 738.006929980204 454.534566040908 728.8109898995248 456.6611538255747 727.3341094877769 465.9812526906096 725.8572290760291 475.3013515556445 733.3295287843284 482.4918111323807 740.8018284926279 489.68227070911695 747.5868708934233 496.76937616454046 754.3719132942189 503.856481619964 761.0250267258505 512.0650698387074 767.6781401574822 520.2736580574508 773.6670410917316 528.4955431068088 779.655942025981 536.7174281561668 784.6057587921325 545.1889263855891 789.5555755582841 553.6604246150114 793.4897324825376 563.7949195308477 797.4238894067912 573.9294144466838 799.5094544587387 583.322120903669 801.5950195106863 592.7148273606542 802.5016755593972 602.5082071685204 803.4083316081083 612.3015869763866 803.5596176375705 621.4797921362715 803.7109036670328 630.6579972961565 795.6232190846522 636.386785091119 787.5355345022715 642.1155728860816 778.0417782414421 639.8818122909134 768.5480219806127 637.6480516957453 762.0121523888528 630.5450861836102 755.4762827970928 623.4421206714753 752.0641706051952 614.8139865746125 748.6520584132974 606.1858524777498 745.5819335765325 596.6653823829581 742.5118087397677 587.1449122881666 739.243733399772 578.2633357176769 735.9756580597764 569.3817591471873 732.5891695280968 560.7172120415771 729.2026809964173 552.052664935967 725.7567509104242 542.9188206060736 722.3108208244313 533.7849762761803 717.887349671267 524.70492261803 713.4638785181028 515.6248689598797 708.1307692400829 507.6214979753711 702.7976599620631 499.61812699086244 696.0229712757375 492.8982471212438 689.248282589412 486.1783672516252 680.585406147572 481.4261420375799 671.9225297057319 476.6739168235345 669.1101057407118 470.36713051938875 666.2976817756917 464.06034421524294 666.3002970284845 464.0560827069619 666.3029122812773 464.0518211986808 666.30552753407 464.0475596903997 666.3081427868628 464.04329818211863 671.3968006584158 463.7135387092667 676.4854585299688 463.3837792364147 685.0653041405961 468.1129199256746 693.6451497512235 472.8420606149345 700.6174975294626 478.80530572713445 707.5898453077018 484.7685508393344 713.5709603235332 492.59785510320194 719.5520753393647 500.4271593670694 725.0361287097562 508.82397540962876 730.5201820801478 517.2207914521881 733.8050749331965 526.0149749979413 737.089967786245 534.8091585436945 740.7272467718154 544.0434813606639 744.3645257573859 553.2778041776335 747.6377798151092 562.2657753674174 750.9110338728325 571.2537465572013 754.0735140369027 580.0099108120162 757.235994200973 588.766075066831 760.0437687693884 597.723370187558 762.8515433378038 606.680665308285 767.4570438308266 615.0139111598797 772.0625443238494 623.3471570114745 781.1185281076579 622.2221306179563 790.1745118914664 621.097104224438 789.7422728089484 611.8512631390513 789.3100337264306 602.6054220536645 787.9375035101732 593.5402284858269 786.5649732939157 584.4750349179892 783.1061668123964 574.5935554614784 779.6473603308772 564.7120760049677 775.1350441411887 556.0697289751771 770.6227279515003 547.4273819453865 765.0004401011588 539.565664295427 759.3781522508174 531.7039466454675 753.6885879861302 524.189449043364 747.9990237214429 516.6749514412606 741.3367112717292 509.47483322907294 734.6743988220154 502.2747150168852 727.5950324511861 495.88973025895996 720.5156660803567 489.5047455010348 714.3721843401815 481.7579519742961 708.2287026000063 474.01115844755736 708.4191714940215 464.77451943711844 708.6096403880367 455.53788042667946 715.8457820327608 449.9589264893321 723.0819236774847 444.37997255198474 732.0458063610979 442.0405938353611 741.0096890447112 439.7012151187375 750.1029810238753 437.2961356905182 759.1962730030393 434.891056262299 766.6322633863724 428.0145344765635 774.0682537697056 421.13801269082796 764.484895159859 420.1895579244043 754.9015365500125 419.24110315798066 744.8856359879464 419.84587116960085 734.8697354258805 420.4506391812211 725.5159861798039 421.67166831904274 716.1622369337273 422.8926974568643 706.4594025548479 424.72980139211074 696.7565681759685 426.5669053273571 687.2687296071911 428.2033862630805 677.7808910384136 429.8398671988039 668.3852271028989 430.7433344826121 658.989563167384 431.64680176642025 649.7898838386482 433.41830340377544 640.5902045099124 435.1898050411306 633.417400375567 440.9891084620144 626.2445962412216 446.7884118828982 620.9875393944837 454.291854871184 615.730482547746 461.7952978594699 625.7235360812667 461.82821846125717 635.7165896147875 461.86113906304445 646.8308677291467 461.8806162694972 657.9451458435059 461.90009347595 662.9546591033936 461.9029137380518 667.9641723632812 461.90573400015353 668.7208393529733 461.9976129598466 669.4775063426653 462.0894919195396 670.1901958113644 462.3597887891645 670.9028852800637 462.63008565878937 671.5301756823638 463.0630907715836 672.157466084664 463.49609588437784 672.6628992729102 464.06664296284123 673.1683324611564 464.63719004130456 673.5225326347002 465.3121188624297 673.8767328082439 465.98704768355486 674.0591138363568 466.7271313525466 674.2414948644698 467.4672150215384 674.2414567532288 468.2294398407822 674.2414186419878 468.9916646600261 674.0589636064201 469.7317300872147 673.8765085708523 470.47179551440325 673.5222409061975 471.1466889121365 673.1679732415427 471.82158230986965 672.6624830011158 472.39207884216154 672.156992760689 472.9625753744534 671.5296590610142 473.3955177560425 670.9023253613393 473.8284601376316 670.1896088665167 474.09868573695826 669.4768923716939 474.3689113362849 668.7202161978893 474.4607146288197 667.9635400240846 474.55251792135454 667.9638561936829 474.552517937163 Z" fill="#00c7ff"></path><path d="M 707.6656494140625 427.2311576876481 Q 707.6656494140625 427.2311576876481 709.6048194274902 430.3557570664803 711.5439894409179 433.4803564453125 711.5439894409179 433.4853564453125 711.5439894409179 433.4903564453125 711.5439894409179 433.4953564453125 711.5439894409179 433.5003564453125 709.6048194274902 436.6249558241447 707.6656494140625 439.7495552029769 706.9166638854863 439.6586089715063 706.16767835691 439.5676627400356 705.4622239024454 439.3001098448698 704.7567694479809 439.032556949704 704.1358471136673 438.60394757768097 703.5149247793537 438.1753382056579 703.0146226004351 437.61058315361777 702.5143204215167 437.0458281015776 702.1637159841387 436.37775095967993 701.8131115467606 435.7096738177822 701.6325819972965 434.9771032609034 701.4520524478324 434.24453270402455 701.4520901721794 433.4900457673501 701.4521278965262 432.73555883067576 701.6327307021431 432.0030063304147 701.8133335077601 431.27045383015366 702.1640047510992 430.60241175204 702.5146759944383 429.9343696739263 703.0150346463604 429.36966465492776 703.5153932982826 428.8049596359292 704.1363584904286 428.37641235828255 704.7573236825748 427.94786508063595 705.4628048888014 427.6803827322532 706.1682860950282 427.41290038387046 706.9172807144827 427.3220290514073 707.6662753339372 427.2311577189441 707.6659623739998 427.23115770329605 Z" fill="#00c7ff"></path><path d="M 803.5321799758512 450.7257998846595 Q 803.5321799758512 450.7257998846595 802.5547182996 448.3049918708838 801.5772566233488 445.88418385710804 797.9723859058142 437.40359432930234 794.3675151882796 428.9230048014967 789.9897395519224 420.6984161757007 785.6119639155651 412.4738275499047 781.3646562202155 404.0529036929769 777.117348524866 395.63197983604914 779.5453312266793 385.9534497192183 781.9733139284928 376.2749196023875 789.1261342661196 370.026215944697 796.2789546037463 363.7775122870065 805.4089508005393 365.73064437550204 814.5389469973323 367.6837764639975 817.211611752271 377.0221834702791 819.8842765072095 386.36059047656073 823.7910356335825 395.5877175220339 827.6977947599555 404.81484456750707 832.2605636923068 413.59867247957015 836.8233326246582 422.3825003916332 840.6088965891963 430.7663919177136 844.3944605537345 439.15028344379397 850.0608322786987 446.94590260787305 855.727204003663 454.74152177195214 859.575047549493 463.4603085982309 863.4228910953229 472.1790954245097 873.5052455044915 468.790124754522 883.5875999136603 465.40115408453437 891.783685168376 460.5768021281477 899.9797704230916 455.752450171761 896.1223400282447 446.7609746321649 892.2649096333978 437.7694990925688 885.403895092726 431.1575368612812 878.5428805520542 424.5455746299936 872.7230522399475 416.24620746336973 866.9032239278408 407.94684029674585 862.6834910723306 399.8100003064249 858.4637582168205 391.673160316104 855.2109303506946 382.76635296058384 851.9581024845688 373.8595456050638 851.4793770732186 364.47157819555207 851.0006516618685 355.0836107860404 856.350926202327 347.53795636426094 861.7012007427855 339.9923019424815 870.3461982846572 343.610970242094 878.991195826529 347.2296385417066 887.614401338874 352.94709138234043 896.2376068512191 358.66454422297426 902.8481003905104 365.9185051935581 909.4585939298015 373.17246616414195 913.4014990828874 382.0524307616389 917.3444042359733 390.93239535913585 920.6370171680657 400.1216309754336 923.929630100158 409.3108665917314 927.5161141183171 417.83782314129263 931.1025981364762 426.3647796908539 935.9113141710857 434.2559813469103 940.7200302056953 442.14718300296676 945.8134057709522 450.5798516300172 950.906781336209 459.0125202570676 955.7932262225372 467.4118929030466 960.6796711088654 475.81126554902556 965.1733007877152 484.1188017043159 969.6669304665651 492.42633785960624 973.2925592989719 500.87524625006694 976.9181881313788 509.32415464052764 979.9358138112423 518.2425988917067 982.9534394911058 527.1610431428859 983.8568657018656 536.2496404276142 984.7602919126253 545.3382377123424 981.90686134199 554.1153915608111 979.0534307713546 562.8925454092797 969.2832697625719 563.3897816884976 959.5131087537892 563.8870179677155 950.6216686472192 560.902983586191 941.7302285406493 557.9189492046665 936.1921763839515 549.3301338258034 930.6541242272538 540.7413184469402 929.1473834046739 531.2239605781571 927.640642582094 521.7066027093739 924.6551423318242 512.5186766780541 921.6696420815546 503.33075064673443 911.5610466337013 503.88035233723065 901.452451185848 504.4299540277268 892.3896548168871 508.6287274134584 883.326858447926 512.82750079919 877.9846776590946 520.5064231309696 872.642496870263 528.1853454627491 872.3570838610933 538.4768301582676 872.0716708519236 548.768314853786 873.08723855742 558.2927925504284 874.1028062629164 567.8172702470707 875.3426425105692 577.1687066488803 876.5824787582222 586.5201430506899 876.4009968523517 596.7993620476504 876.219514946481 607.0785810446112 868.164101454981 612.1614377623632 860.1086879634811 617.2442944801153 850.9216521553357 615.7634667644297 841.7346163471902 614.2826390487442 834.0660744689337 607.5221798173047 826.3975325906772 600.7617205858653 823.3986361630921 592.0363313598077 820.3997397355071 583.3109421337502 820.756270968582 573.9523957597819 821.112802201657 564.5938493858134 822.2937461254976 555.5111569149985 823.4746900493383 546.4284644441838 823.5799099141016 537.2925592474071 823.6851297788647 528.1566540506304 821.4762243767459 518.3280954608523 819.2673189746272 508.4995368710741 816.7811179450637 499.32049039172625 814.2949169155002 490.14144391237846 811.3169682956043 480.5234452165631 808.3390196757085 470.90544652074783 805.3704591555975 461.53474223551206 802.4018986354863 452.1640379502763 804.8196136916288 444.5311307465762 807.2373287477712 436.8982235428761 807.2423163441149 436.89787157311446 807.2473039404584 436.89751960335275 807.252291536802 436.89716763359104 807.2572791331456 436.8968156638294 812.1515607404177 445.4442389587873 817.0458423476898 453.99166225374523 819.8324518956088 462.7470917618325 822.6190614435277 471.5025212699197 825.5888144481056 481.4600457702436 828.5585674526835 491.41757027056747 831.3720576634576 500.59182588337103 834.1855478742315 509.7660814961746 835.7396988811815 518.9656405646986 837.2938498881316 528.1651996332226 837.1635202910365 537.8263285435459 837.0331906939414 547.4874574538691 835.8480473824718 557.0659893319842 834.6629040710021 566.6445212100991 834.525150332175 576.1843474734985 834.387396593348 585.724173736898 840.0205235817988 593.2122471852043 845.6536505702496 600.7003206335106 854.4753469535502 597.8817968399089 863.2970433368508 595.0632730463072 862.585802945694 585.4232904975986 861.8745625545371 575.7833079488898 860.3593563484897 566.4553844912286 858.8441501424422 557.1274610335676 858.7092095127257 547.7802537386178 858.5742688830092 538.4330464436682 859.3877214046604 528.6713285588622 860.2011739263115 518.9096106740562 865.780218691184 510.89955283084447 871.3592634560566 502.8894949876327 879.8211872057761 499.2376180565243 888.2831109554955 495.5857411254159 896.7927504242297 490.8188232720349 905.3023898929638 486.05190541865386 914.7474898377304 482.8757704451598 924.1925897824971 479.6996354716658 929.0105238713326 488.55946320286205 933.8284579601681 497.41929093405827 936.9149326168222 506.8591305459326 940.0014072734764 516.2989701578069 941.5603262593717 525.5914183111057 943.1192452452669 534.8838664644045 949.5324824594568 542.3881015569574 955.9457196736467 549.8923366495103 963.3879946988222 544.3897133514392 970.8302697239978 538.8870900533682 968.8152732322988 529.0979607995582 966.8002767405997 519.3088315457481 962.8776020875185 510.4631683374741 958.9549274344374 501.6175051292 954.46662610934 492.95969374260966 949.9783247842425 484.3018823560193 945.2938925710789 476.0153844935223 940.6094603579154 467.72888663102526 935.2465074000759 459.1410540877757 929.8835544422365 450.5532215445261 924.6670196510308 442.3295082882066 919.4504848598253 434.1057950318871 915.9398361980817 425.57799464181005 912.4291875363381 417.05019425173293 909.3998421000505 408.0259138360209 906.3704966637629 399.00163342030885 902.3220130299894 389.8129303556118 898.273529396216 380.6242272909148 890.9389764283774 373.6670295834424 883.6044234605387 366.70983187597 874.2604453859942 367.1190629330472 864.9164673114498 367.5282939901244 867.829674615234 376.728148191327 870.7428819190183 385.92800239252966 875.2343735844545 394.6639987462256 879.7258652498907 403.39999509992157 885.5783784493237 410.90951662810687 891.4308916487569 418.41903815629223 898.1524941533855 424.68247014676945 904.8740966580142 430.9459021372466 910.9219609822458 438.6087782870109 916.9698253064773 446.27165443677524 915.765321304176 456.03382767518747 914.5608173018746 465.79600091359964 905.6351759645121 468.8772334576935 896.7095346271495 471.95846600178726 889.5629393257626 478.2544918595921 882.4163440243757 484.55051771739704 873.3907307622944 488.87933096458005 864.365117500213 493.2081442117631 858.1368475709555 486.3842778639512 851.9085776416981 479.5604115161393 848.0560042233965 470.70763150990183 844.203430805095 461.85485150366435 838.4688514198267 454.19929070398223 832.7342720345586 446.54372990430005 828.7442655507461 437.4393870508892 824.7542590669336 428.33504419747834 820.5546844576911 420.1369154680675 816.3551098484487 411.93878673865675 812.6313571982665 403.3197299032581 808.9076045480844 394.70067306785955 805.423633309161 385.26764314887095 801.9396620702375 375.83461322988234 795.9557280371192 382.99476014564607 789.9717940040009 390.15490706140974 793.71774326579 398.5187103662089 797.4636925275789 406.88251367100804 801.8240562315095 415.43329546167786 806.18441993544 423.9840772523476 809.7650464082428 432.58043963280045 813.3456728810456 441.17680201325334 814.3073812182222 443.6039190330469 815.2690895553988 446.0310360528405 815.4647122356776 446.7673720329171 815.6603349159564 447.5037080129937 815.6740505628111 448.26546308493363 815.6877662096659 449.0272181568736 815.518777669057 449.77011908010473 815.3497891284483 450.5130200033359 815.0079180222958 451.19388934129506 814.6660469161435 451.8747586792543 814.1711628091998 452.4540242740288 813.6762787022562 453.0332898688033 813.057144282069 453.4772847768081 812.4380098618817 453.921279684813 811.730609250042 454.20419890113396 811.0232086382023 454.4871181174549 810.2686559915073 454.5925183639464 809.5141033448124 454.69791861043797 808.7562532985405 454.61967401982184 807.9984032522688 454.5414294292057 807.2813020867169 454.2840875807648 806.564200921165 454.0267457323239 805.9295265897679 453.60526334638075 805.2948522583706 453.1837809604376 804.7794920630888 452.6226546130665 804.2641318678071 452.0615282656955 803.8980385674047 451.39337064657 803.5319452670024 450.7252130274446 803.5320626214268 450.7255064560521 Z" fill="#00c7ff"></path><path d="M 904.8455462707248 402.8040111701863 Q 904.8455462707248 402.8040111701863 905.1605476707691 399.73261756559714 905.4755490708135 396.661223961008 906.8241773198603 387.544769020001 908.172805568907 378.428314078994 911.3473406301047 368.99854901849926 914.5218756913023 359.56878395800453 921.3997057390477 353.0286443224318 928.277535786793 346.4885046868591 938.3540453912651 346.2081267889729 948.4305549957373 345.92774889108665 957.8686142090819 349.32342250323416 967.3066734224266 352.7190961153816 975.17030777505 358.37873447863274 983.0339421276734 364.03837284188387 989.5123140203868 370.93102547042656 995.9906859131002 377.8236780989692 1002.7012279396033 384.54116999148084 1009.4117699661066 391.25866188399254 1015.5599692580902 399.6505830171958 1021.7081685500737 408.04250415039905 1027.280070510948 416.6772037249714 1032.8519724718224 425.3119032995437 1038.2626919950135 433.88684021527524 1043.6734115182048 442.4617771310067 1048.244411757135 451.85553766087725 1052.8154119960652 461.24929819074777 1055.8045130177316 470.2664197250767 1058.7936140393977 479.2835412594056 1060.2327788469952 488.5414606598828 1061.671943654593 497.79938006036 1061.742859000844 506.9969697105687 1061.8137743470952 516.1945593607774 1059.326605774993 525.4123295995803 1056.8394372028904 534.6300998383831 1046.6673809568292 532.4960317741594 1036.495324710768 530.3619637099357 1028.1174440367681 526.1336388643335 1019.7395633627683 521.9053140187315 1011.7286233033246 516.2183589525158 1003.717683243881 510.53140388630015 998.326704284105 502.53020475254175 992.9357253243289 494.52900561878334 988.6193705056877 486.2967020314236 984.3030156870465 478.0643984440639 979.073264105005 470.01692919588584 973.8435125229636 461.9694599477078 976.3284056593893 458.7665445230239 978.8132987958151 455.5636290983401 978.8181136168702 455.5622809521287 978.8229284379253 455.5609328059173 978.8277432589804 455.5595846597059 978.8325580800355 455.5582365134945 986.2867805617855 461.9620666284443 993.7410030435354 468.36589674339416 998.1216935573534 476.37705627419666 1002.5023840711713 484.3882158049991 1007.8525649300125 492.6220708797789 1013.2027457888536 500.85592595455864 1020.8920990439863 506.05563312176463 1028.581452299119 511.2553402889706 1038.4376550011855 512.2877499941173 1048.293857703252 513.3201596992642 1048.167115068638 504.1787645157398 1048.0403724340238 495.0373693322153 1045.8308853906906 485.85293533133006 1043.6213983473576 476.6685013304449 1040.2318602378723 467.6500207814978 1036.8423221283872 458.6315402325507 1032.3866577713168 450.2142953668734 1027.9309934142464 441.79705050119605 1022.5118885430913 433.6285693474532 1017.0927836719364 425.4600881937103 1011.4903651681775 416.8106634257076 1005.8879466644185 408.161238657705 999.6284890000345 400.8537349802672 993.3690313356507 393.5462313028293 986.8578795650054 386.5788888756031 980.3467277943602 379.61154644837694 973.0837878523369 373.45761960038294 965.8208479103134 367.303692752389 957.3824450348443 363.3277651011623 948.9440421593752 359.35183744993566 938.9693987370465 360.2086116169511 928.9947553147177 361.06538578396646 925.2344230747507 369.4178091305574 921.4740908347836 377.7702324771483 919.7813367389188 387.87992735377327 918.0885826430538 397.98962223039825 917.7571993385083 401.0589310183872 917.4258160339627 404.1282398063762 917.2551906637212 404.8713066711881 917.0845652934797 405.61437353599996 916.7410652103433 406.29501226207765 916.3975651272068 406.9756509881553 915.9011545721464 407.55430282075946 915.4047440170862 408.13295465336364 914.7842743948859 408.5759883207955 914.1638047726857 409.01902198822734 913.4553378069404 409.3006883529199 912.7468708411952 409.5823547176124 911.9915826652413 409.6862833172157 911.2362944892873 409.79021191681903 910.4780824873981 409.7103624162411 909.7198704855089 409.6305129156631 909.0028019748586 409.3715261716291 908.2857334642084 409.11253942759515 907.6514845003276 408.6894677618369 907.0172355364466 408.2663960960787 906.5026686989158 407.70382845368806 905.9881018613852 407.14126081129734 905.6231237989787 406.47189365008205 905.2581457365721 405.80252648886676 905.0639689914253 405.0652634596868 904.8697922462786 404.32800043050685 904.8577023799428 403.5656912952583 904.8456125136071 402.8033821600098 904.845579392166 402.8036966650981 Z" fill="#00c7ff"></path><path d="M 1005.5408254072192 503.68577451147814 Q 1005.5408254072192 503.68577451147814 1005.7098143496061 507.4021890120042 1005.8788032919929 511.1186035125302 1006.374752934536 520.3627218163796 1006.8707025770791 529.6068401202289 1008.3484563425544 538.9586129205427 1009.8262101080297 548.3103857208565 1008.8054748744075 557.485688417856 1007.7847396407855 566.6609911148554 997.9873789228516 567.1604036347662 988.1900182049176 567.6598161546772 980.4091623511151 561.1064823348784 972.6283064973126 554.5531485150796 972.1036503192511 546.303261896506 971.5789941411896 538.0533752779326 971.5837923172066 538.0519690393651 971.5885904932238 538.0505628007977 971.593388669241 538.0491565622303 971.598186845258 538.0477503236629 975.753672356532 539.1002331706875 979.9091578678059 540.1527160177121 988.4013257269193 544.768738889954 996.8934935860326 549.3847617621957 995.5241412677271 540.1924653966105 994.1547889494216 531.0001690310252 993.6844517825717 521.3347037797553 993.2141146157219 511.66923852848544 993.0599112058138 507.9521812272536 992.9057077959058 504.23512392602186 992.9646339938004 503.47516391595684 993.0235601916951 502.7152039058919 993.2626500035065 501.99143075387235 993.5017398153179 501.2676576018529 993.9070973299499 500.6221370374805 994.312454844582 499.97661647310815 994.8605206642387 499.44686618191395 995.4085864838953 498.91711589071974 996.0675069973875 498.5339249845181 996.7264275108795 498.1507340783164 997.4579062270036 497.9363736305799 998.1893849431276 497.7220131828434 998.9509082845341 497.6889418328662 999.7124316259407 497.655870482889 1000.459739820247 497.80601033908556 1001.2070480145535 497.95615019528213 1001.8967074743946 498.28077512215606 1002.5863669342358 498.60540004903 1003.1782946194021 499.085642830579 1003.7702223045685 499.56588561212794 1004.2300153501866 500.1738345153242 1004.6898083958047 500.7817834185204 1004.99074360846 501.4821044245458 1005.2916788211152 502.1824254305712 1005.4162658321086 502.93441584965115 1005.5408528431021 503.68640626873105 1005.5408391251607 503.6860903901046 Z" fill="#00c7ff"></path><path d="M 950.6178388731845 396.34407784028065 Q 950.6178388731845 396.34407784028065 952.7216703624106 397.143953488707 954.8255018516367 397.94382913713326 962.2611120714214 403.31206674575645 969.696722291206 408.68030435437964 968.9134945821031 418.2731740099134 968.1302668730003 427.86604366544714 959.1716680065028 424.53747584659766 950.2130691400054 421.2089080277481 947.0162820585806 415.1199623558975 943.8194949771557 409.03101668404685 943.086744736744 408.7371993993672 942.3539944963322 408.44338211468767 941.7128552682386 407.9827390839148 941.0717160401451 407.522096053142 940.5594508664304 406.9213998708676 940.0471856927157 406.32070368859326 939.6935674493448 405.6148668451548 939.3399492059738 404.90903000171625 939.165530201866 404.1390757676179 938.9911111977583 403.3691215335195 939.0060286736275 402.5797996850232 939.0209461494967 401.79047783652686 939.2243331009445 401.02766379655327 939.4277200523923 400.26484975657974 939.8077556202443 399.5728783129729 940.1877911880964 398.8809068693661 940.7223876872933 398.29999543494057 941.2569841864903 397.719084000515 941.9150708433808 397.2829951751336 942.5731575002715 396.84690634975215 943.3164862874371 396.5809856364355 944.0598150746027 396.3150649231189 944.8451836880082 396.23476764621927 945.6305523014137 396.15447036931965 946.4123150803475 396.2644634103432 947.1940778592814 396.37445645136677 945.5548014360597 402.6402579462575 943.9155250128381 408.90605944114833 943.1828490773992 408.6122719511848 942.4501731419604 408.3184844612213 941.8090989289707 407.8578881422283 941.168024715981 407.3972918232353 940.6558114888202 406.79665655491374 940.1435982616593 406.1960212865922 939.7900158771562 405.49025601895767 939.436433492653 404.78449075132306 939.2620321756078 404.01461459489065 939.0876308585628 403.2447384384582 939.1025468217165 402.4554966316123 939.1174627848702 401.6662548247664 939.3208291117435 400.9035181384032 939.5241954386167 400.14078145203996 939.9041924687365 399.44888017820796 940.2841894988563 398.75697890437596 940.8187317869781 398.1761263776191 941.3532740750999 397.59527385086227 942.0112939983226 397.15922924732695 942.6693139215452 396.72318464379157 943.4125673310141 396.45729089632266 944.155820740483 396.19139714885375 944.9411097131183 396.11110801454714 945.7263986857535 396.03081888024053 946.5080821895688 396.1408007673545 947.2897656933842 396.2507826544685 950.3703873085815 404.4508875021288 953.4510089237789 412.6509923497892 953.4495249277348 412.6557670493338 953.4480409316908 412.6605417488784 953.4465569356468 412.665316448423 953.4450729396027 412.67009114796764 948.6806153665743 410.78815961893645 943.916157793546 408.90622808990526 943.1834524830215 408.61251386900415 942.4507471724971 408.318799648103 941.809626903081 407.85826743883416 941.168506633665 407.39773522956534 940.6562333455383 406.7971511855696 940.1439600574118 406.19656714157384 939.7903070981499 405.4908372357065 939.4366541388881 404.78510732983915 939.2621758350995 404.0152486173878 939.0876975313108 403.2453899049364 939.1025345702094 402.4561466104404 939.117371609108 401.66690331594435 939.3206616612958 400.9041462967622 939.5239517134838 400.14138927758 939.9038795515764 399.44945000750454 940.2838073896689 398.75751073742913 940.8182915898653 398.1766047593478 941.3527757900619 397.5956987812665 942.0107521055342 397.15958837791914 942.6687284210064 396.72347797457184 943.4119552373843 396.4575099030916 944.1551820537622 396.1915418316113 944.9404629935577 396.111174168809 945.7257439333531 396.0308065060067 946.5074384314487 396.14071022422047 947.2891329295444 396.2506139424343 945.554630375791 402.64089964617085 943.8201278220376 409.03118534990745 943.0873482035613 408.73744134172085 942.3545685850848 408.44369733353426 941.713383295894 407.9831184189874 941.0721980067032 407.52253950444043 940.5598727659317 406.9218945516868 940.0475475251601 406.3212495989332 939.693858699873 405.6154481208482 939.3401698745859 404.90964664276316 939.1656738759269 404.13970985441495 938.991177877268 403.3697730660667 939.0060164208779 402.5804497297694 939.0208549644879 401.7911263934721 939.2241656335148 401.02829201861755 939.4274763025418 400.26545764376294 939.8074426713495 399.57344820005926 940.187409040157 398.8814387563556 940.7219474455376 398.30047386518476 941.2564858509182 397.71950897401393 941.9145288956358 397.2833543421474 942.5725719403536 396.8471997102808 943.3158741317313 396.58120466541516 944.059176323109 396.3152096205495 944.84453690286 396.23483380719017 945.629897482611 396.1544579938309 946.41167125694 396.2643728580267 947.1934450312692 396.3742877222225 948.741277894748 403.0566403032868 950.2891107582267 409.73899288435115 948.1914098683023 408.92289087164465 946.093708978378 408.1067888589381 945.4228045950574 407.75065045910094 944.7519002117369 407.3945120592638 944.1857244832102 406.88816011069 943.6195487546834 406.3818081621162 943.191007840894 405.75467186384776 942.7624669271047 405.1275355655793 942.496467646097 404.41606410873743 942.2304683650895 403.70459265189555 942.1424706075736 402.9501367909802 942.0544728500579 402.1956809300649 942.1495910498353 401.4420896751605 942.2447092496127 400.6884984202561 942.5174151324431 399.979570530505 942.7901210152735 399.27064264075386 943.2245649024338 398.64758103841723 943.6590087895942 398.0245194360806 944.2299407819504 397.52353649076065 944.8008727743066 397.0225535454407 945.4751102776379 396.67276640945806 946.149347780969 396.32297927347537 946.8877040799027 396.14471759160796 947.6260603788364 395.96645590974055 948.3856221705871 395.9700802593141 949.1451839623378 395.97370460888766 949.881805479881 396.15900434253473 950.6184269974241 396.3443040761818 950.6181329353043 396.34419095823125 Z" fill="#00c7ff"></path><path d="M 939.973730640392 334.0386289823202 Q 939.973730640392 334.0386289823202 936.7404716324943 333.5618709684114 933.5072126245967 333.08511295450273 923.2981086976413 331.26017556556144 913.0890047706857 329.4352381766202 903.825009661893 327.9403465027543 894.5610145531002 326.4454548288884 886.7546472501126 321.6383506133193 878.9482799471249 316.83124639775014 880.814243593207 307.3163131659861 882.6802072392893 297.80137993422215 889.9389088111186 291.14885380040664 897.1976103829478 284.4963276665912 906.6170329416072 281.55364729730536 916.0364555002666 278.6109669280196 926.3877120062791 278.19680951632535 936.7389685122916 277.7826521046311 945.8676134944583 277.73827325411276 954.996258476625 277.69389440359436 963.9443697080233 275.44839331307026 972.8924809394215 273.2028922225462 981.6101006161189 270.4756100562597 990.3277202928163 267.74832788997327 999.953822232175 265.22513465859095 1009.5799241715337 262.7019414272086 1019.3710459354061 260.5658727171021 1029.1621676992786 258.42980400699554 1038.5717650630118 258.8494832693668 1047.9813624267447 259.269162531738 1056.3785706380563 264.54343474606253 1064.775778849368 269.817706960387 1070.5273430399195 277.61372785130374 1076.278907230471 285.4097487422205 1071.628833193954 294.0956569932009 1066.9787591574373 302.78156524418137 1058.5061976569964 306.2093460226607 1050.0336361565558 309.63712680114 1040.1443543763846 310.8728888236218 1030.2550725962135 312.10865084610356 1036.343974301786 320.1664781810142 1042.4328760073583 328.2243055159249 1049.212044712288 335.9176419043597 1055.9912134172175 343.6109782927945 1062.794918359177 351.06960278882343 1069.5986233011365 358.5282272848523 1075.1393575303591 366.5480086810649 1080.6800917595815 374.56779007727755 1086.3174118308884 383.0813933016952 1091.9547319021956 391.5949965261128 1096.8479750755919 399.3103751865326 1101.7412182489882 407.02575384695234 1106.7690485275018 416.5989892445726 1111.7968788060155 426.1722246421928 1116.0111901300174 434.7856273861073 1120.2255014540196 443.3990301300218 1124.1725159031698 453.639359477508 1128.11953035232 463.87968882499416 1131.0091801181748 473.5023521128665 1133.8988298840297 483.12501540073885 1135.765182992167 492.6386937562306 1137.631536100304 502.1523721117224 1138.245966630865 512.4709238754499 1138.8603971614261 522.7894756391775 1136.4055228261734 532.7921744491455 1133.9506484909207 542.7948732591135 1129.8177808561152 552.1249775864303 1125.6849132213097 561.455081913747 1120.2160348404846 570.0831546829793 1114.7471564596594 578.7112274522117 1108.5655953189998 587.3128839435019 1102.38403417834 595.9145404347922 1096.6016337989195 603.0393953298768 1090.819233419499 610.1642502249614 1082.0123291893442 618.3878583230285 1073.2054249591893 626.6114664210954 1065.4471339484064 632.0022220978211 1057.6888429376236 637.3929777745468 1048.5679654080304 640.420091362454 1039.4470878784373 643.4472049503611 1029.7809673371235 643.846831718987 1020.1148467958094 644.2464584876128 1011.1951782957501 642.2337309226123 1002.2755097956907 640.2210033576116 993.8763903607887 636.0928119646835 985.4772709258867 631.9646205717553 977.2433546772335 627.5733779578766 969.0094384285802 623.1821353439977 959.5455869459518 622.157990274013 950.0817354633232 621.1338452040283 940.8713896539073 621.1186908795469 931.6610438444914 621.1035365550655 922.3531562461118 621.172354542427 913.0452686477322 621.2411725297884 912.4338125681372 612.0677236451833 911.8223564885424 602.8942747605781 915.3482124045398 593.2021943218116 918.8740683205373 583.510113883045 927.1623696410863 578.9368517032976 935.4506709616355 574.3635895235502 944.9757610905467 573.5418952476186 954.500851219458 572.720200971687 963.897657922477 571.6362165192129 973.294464625496 570.5522320667388 983.0007399964265 569.6969380931882 992.7070153673573 568.8416441196375 1001.8517069774427 568.6275337330617 1010.9963985875281 568.4134233464857 1020.9662015409459 571.5637153250384 1030.9360044943637 574.7140073035911 1040.6843347690046 572.6974704106258 1050.4326650436458 570.6809335176604 1057.2635020364798 563.6956437081025 1064.094339029314 556.7103538985446 1069.6416744857643 549.3639181653272 1075.1890099422144 542.0174824321098 1079.2647430656684 533.6168259517873 1083.3404761891222 525.2161694714648 1083.7832814270841 515.260231546931 1084.2260866650458 505.3042936223972 1081.6418750684786 496.51747230912576 1079.0576634719114 487.7306509958543 1074.4061365217585 478.89575125059173 1069.7546095716057 470.0608515053291 1065.1861148164548 461.0769374400513 1060.6176200613043 452.0930233747736 1056.2763578602405 443.0228984418105 1051.9350956591768 433.9527735088475 1048.4180193961806 425.2017155382132 1044.9009431331842 416.45065756757896 1040.633264204228 407.7645857647821 1036.3655852752715 399.07851396198527 1031.1950690126123 391.1729070447111 1026.0245527499528 383.2673001274369 1021.1424119571705 375.4597355290855 1016.2602711643882 367.6521709307341 1010.9066780139653 359.3480752060053 1005.5530848635424 351.0439794812765 999.3774976145484 344.2211160415976 993.2019103655543 337.3982526019188 983.4625916570922 336.0221701514049 973.72327294863 334.646087700891 964.4025455272617 335.44564883856117 955.0818181058935 336.24520997623137 945.9090560467888 333.80017559928115 936.7362939876841 331.35514122233093 936.7361531152994 331.3501432072278 936.7360122429146 331.3451451921247 936.7358713705298 331.34014717702155 936.7357304981451 331.3351491619184 940.0752513484691 327.77150052897184 943.4147721987931 324.2078518960252 952.6597160427502 322.80781503937925 961.9046598867075 321.4077781827333 971.3149344838371 321.32489005235254 980.7252090809666 321.24200192197185 990.2063519194091 323.36577488458425 999.6874947578516 325.48954784719666 1006.4211413276844 332.05696537212003 1013.1547878975173 338.6243828970434 1018.5611297566353 346.34613854232816 1023.9674716157533 354.067894187613 1029.1902508150197 362.553998354038 1034.4130300142858 371.04010252046305 1039.651395296561 379.640241902559 1044.8897605788366 388.240381284655 1049.562492986248 396.2241522207899 1054.235225393659 404.20792315692483 1057.9102509781424 413.0819228342399 1061.585276562626 421.955922511555 1065.8511028375613 431.43511910425957 1070.1169291124966 440.9143156969641 1074.7484013548456 450.1087388839993 1079.3798735971945 459.30316207103454 1083.9032908982363 467.69230476575785 1088.4267081992782 476.08144746048123 1091.83479107014 484.8748045295205 1095.242873941002 493.66816159855966 1096.4930876675776 502.928927658447 1097.7433013941534 512.1896937183343 1096.8481687564122 521.3771699212357 1095.9530361186708 530.5646461241371 1091.9345436328504 538.8053535332708 1087.9160511470297 547.0460609424046 1082.5423812508625 554.5755214507724 1077.1687113546952 562.1049819591403 1069.9142119517478 569.7262598334046 1062.6597125488006 577.347537707669 1054.629288318578 582.8668273940384 1046.598864088355 588.3861170804079 1036.735744157866 588.0360604122978 1026.8726242273772 587.6860037441878 1017.9217870678227 584.7446359861107 1008.9709499082683 581.8032682280335 999.627911919484 582.3407226682327 990.2848739306995 582.8781771084318 980.3935631961665 583.5431320327682 970.5022524616334 584.2080869571047 960.6046510416256 585.6317291343523 950.7070496216179 587.0553713116001 941.490329366883 587.4115014958622 932.273609112148 587.7676316801244 933.3543722446375 597.7147527377783 934.4351353771269 607.6618737954321 943.7423774453839 607.7231824565047 953.049619513641 607.7844911175772 962.3061045968949 608.906750489866 971.5625896801488 610.0290098621548 980.9353707878824 614.6061762943847 990.3081518956161 619.1833427266146 998.4160835980052 623.4109408700251 1006.5240153003944 627.6385390134358 1015.9831720681532 629.4776465550328 1025.4423288359121 631.3167540966298 1034.8150445348642 630.0667027741276 1044.187760233816 628.8166514516254 1052.6966944884066 624.0879407789707 1061.2056287429969 619.3592301063162 1068.9558058237221 612.4857558190083 1076.7059829044474 605.6122815317004 1084.204116231464 596.84146150947 1091.7022495584804 588.0706414872396 1097.7231830324172 579.6500603650936 1103.7441165063537 571.2294792429477 1108.8657801075835 563.1135765938786 1113.9874437088133 554.9976739448097 1118.4425119190569 544.5416529811247 1122.8975801293006 534.0856320174397 1124.280007830122 524.9980544437419 1125.6624355309432 515.9104768700442 1124.1588294957198 505.6898467881469 1122.6552234604965 495.46921670624954 1120.6672571627619 486.3127634575366 1118.6792908650275 477.1563102088237 1114.9265425564604 466.8821419900819 1111.1737942478933 456.60797377134 1107.0271110976105 447.6713496574848 1102.880427947328 438.7347255436296 1098.0477498182377 428.93998027821027 1093.2150716891474 419.1452350127909 1087.937855834951 410.38608091394184 1082.6606399807547 401.62692681509276 1076.971099696154 393.16236550374674 1071.2815594115534 384.6978041924007 1064.9807043489552 375.6627107443858 1058.679849286357 366.6276172963708 1052.3455104818747 359.6007182004155 1046.0111716773924 352.5738191044602 1039.5900171566955 345.36861591209686 1033.1688626359985 338.1634127197335 1024.9211243268417 332.20330276364064 1016.673386017685 326.2431928075478 1013.5691750496603 317.51122382764584 1010.4649640816356 308.7792548477438 1018.9585113558511 303.69192739624066 1027.4520586300666 298.60459994473746 1037.0692048007722 297.5546339142751 1046.6863509714779 296.5046678838127 1052.150961425723 288.80087589522293 1057.615571879968 281.0970839066331 1049.2511905906413 276.2344516500949 1040.8868093013143 271.37181939355673 1031.0727163701793 272.4579403580492 1021.2586234390443 273.5440613225417 1010.6656038647791 275.97924152970234 1000.0725842905138 278.414421736863 990.7404455695257 281.4027075983464 981.4083068485378 284.3909934598298 971.8934374799144 287.13254174727706 962.378568111291 289.87409003472425 952.4277008809911 290.46748027760293 942.4768336506913 291.06087052048156 932.1552408989382 291.2451852049852 921.8336481471852 291.4294998894889 912.8843406714464 293.63786851666214 903.9350331957077 295.84623714383537 900.6322091198781 304.8219418116736 897.3293850440484 313.79764647951185 906.4181602108412 315.32460789163997 915.5069353776339 316.85156930376814 925.4477097957081 318.6988604530751 935.3884842137821 320.546151602382 938.6191199507575 321.03897859518713 941.849755687733 321.5318055879923 942.5844193945973 321.73491178141484 943.3190831014614 321.93801797483735 943.9837894531906 322.3110439175825 944.6484958049198 322.6840698603276 945.2046120371203 323.2053352670764 945.7607282693209 323.72660067382526 946.1759328804484 324.36580957464605 946.5911374915759 325.0050184754668 946.8412987701232 325.7250200190107 947.0914600486706 326.44502156255453 947.1620386093748 327.20396922528164 947.232617170079 327.96291688800875 947.1195109836759 328.7167005961023 947.0064047972728 329.47048430419596 946.7161876006304 330.17529411312535 946.425970403988 330.8801039220547 945.975509634211 331.49497625260943 945.5250488644339 332.1098485831642 944.9405253226264 332.5990470266029 944.3560017808189 333.08824547004156 943.6713880026946 333.42333778984664 942.9867742245704 333.7584301096517 942.2418599950802 333.91994072445186 941.49694576559 334.081451339252 940.7350255347517 334.0599932445265 939.9731053039134 334.0385351498009 939.9734179721527 334.03858206606054 Z" fill="#00c7ff"></path><path d="M 1107.3869728783352 305.5435428687126 Q 1107.3869728783352 305.5435428687126 1109.6546389799405 308.7717874080621 1111.9223050815458 312.0000319474115 1117.5668010299341 320.76536150707847 1123.2112969783225 329.5306910667454 1128.305689643879 338.41495432379065 1133.4000823094357 347.29921758083594 1138.488977188866 356.7560274040912 1143.5778720682963 366.2128372273464 1147.86616813923 374.782504667612 1152.154464210164 383.3521721078776 1156.4392770033232 392.51043961758467 1160.7240897964823 401.6687071272918 1164.591512714409 410.51607334886603 1168.4589356323354 419.3634395704403 1170.248081536336 428.3362434013539 1172.0372274403367 437.3090472322675 1174.08245849381 446.7490686540673 1176.1276895472836 456.1890900758671 1179.1335189154438 464.8682763371992 1182.1393482836038 473.54746259853124 1187.2984601186195 481.5080851174164 1192.457571953635 489.4687076363015 1197.2577654899442 481.295709628767 1202.0579590262535 473.12271162123255 1198.919509044963 464.14165195286876 1195.7810590636723 455.1605922845049 1194.0218512618687 445.9008398217701 1192.2626434600652 436.64108735903534 1188.2244029969152 428.31260783871153 1184.1861625337654 419.9841283183878 1180.109557099357 411.59885161091495 1176.0329516649485 403.2135749034421 1172.3602313997346 394.57175378206983 1168.6875111345207 385.92993266069755 1162.5255681258527 377.58375575784584 1156.3636251171847 369.2375788549941 1151.535854300451 361.1534104405644 1146.7080834837175 353.0692420261347 1142.8899000275455 344.7783700877393 1139.0717165713736 336.4874981493439 1134.4080170640377 328.4164411465458 1129.7443175567018 320.34538414374776 1124.568854120289 312.6565831955352 1119.3933906838759 304.96778224732265 1115.7385868355896 296.24791869632753 1112.0837829873035 287.5280551453324 1109.5978575193553 296.40978218934436 1107.1119320514072 305.29150923335635 1104.216647097271 307.6223381543356 1101.321362143135 309.95316707531487 1101.3165751925844 309.95461106438245 1101.311788242034 309.9560550534501 1101.3070012914836 309.9574990425177 1101.302214340933 309.9589430315853 1097.075350990755 305.57972085705956 1092.848487640577 301.20049868253386 1094.2453883535488 291.76161001277285 1095.6422890665206 282.3227213430119 1103.4613121957855 277.42719376605487 1111.2803353250506 272.53166618909785 1118.4797537409193 278.4869399460988 1125.679172156788 284.4422137030997 1129.2773835856633 293.10664832873385 1132.8755950145387 301.771082954368 1138.4110490369162 309.2224728450436 1143.9465030592937 316.6738627357192 1148.2245498522984 325.25297313067745 1152.5025966453031 333.8320835256357 1157.056842194122 342.9811348057918 1161.6110877429412 352.13018608594786 1167.074539944123 359.83879490073997 1172.5379921453045 367.5474037155321 1177.3943106924144 375.5871168836886 1182.250629239524 383.62683005184516 1186.1365996209443 392.0051002007366 1190.0225700023645 400.383370349628 1194.340650736016 409.73630526979616 1198.6587314696676 419.0892401899643 1202.2340546631153 427.66564117360736 1205.809377856563 436.2420421572504 1208.1750813045833 445.52148183175314 1210.5407847526035 454.8009215062558 1213.0614166498654 464.1440348345295 1215.582048547127 473.4871481628033 1213.0184977212527 482.6499438096081 1210.4549468953785 491.8127394564128 1204.7098716166474 499.5123068401184 1198.9647963379164 507.21187422382405 1190.0891736424692 502.0157883955968 1181.213550947022 496.8197025673695 1176.0013541287763 488.84765336337193 1170.7891573105305 480.8756041593744 1167.526052418021 472.22087936838227 1164.2629475255114 463.56615457739014 1162.1011656257942 454.08941804466326 1159.939383726077 444.6126815119364 1158.1863660896327 434.9298485197435 1156.4333484531883 425.2470155275506 1152.7146854263474 416.41284981876674 1148.9960223995065 407.5786841099829 1144.8970060487545 398.6769942392268 1140.7979896980023 389.7753043684707 1136.3825738745109 380.8815918871642 1131.9671580510196 371.9878794058577 1127.0507567934278 362.75349810483306 1122.1343555358362 353.5191168038084 1117.260856551109 344.91303606832605 1112.387357566382 336.30695533284364 1106.9562255832384 327.7924968184485 1101.5250936000948 319.2780383040534 1099.2680349702548 316.0423880985297 1097.0109763404148 312.80673789300613 1096.6517953688854 312.1331667384689 1096.2926143973561 311.4595955839317 1096.1050723923427 310.71963810752584 1095.917530387329 309.97968063111995 1095.9125272989743 309.21634319614094 1095.9075242106196 308.45300576116193 1096.0853508186542 307.71065357519603 1096.2631774266886 306.96830138923013 1096.613498440298 306.2900799962049 1096.9638194539073 305.61185860317966 1097.4662741993209 305.03718626232387 1097.9687289447345 304.46251392146803 1098.5941147285412 304.024790616233 1099.219500512348 303.587067310998 1099.9314698834094 303.3117335404504 1100.6434392544706 303.0363997699028 1101.4006125194887 302.93945794572335 1102.1577857845068 302.84251612154395 1102.9161559977433 302.9296005071087 1103.6745262109796 303.01668489267354 1104.3900168600092 303.2827341394019 1105.1055075090387 303.54878338613025 1105.7365342437224 303.9783346993021 1106.3675609784063 304.4078860124739 1106.877448495276 304.9759738495853 1107.3873360121459 305.54406168669664 1107.3871544452404 305.54380227770463 Z" fill="#00c7ff"></path><path d="M 1091.8892718509976 260.6794437165426 Q 1091.8892718509976 260.6794437165426 1089.4630360143708 260.0415651119155 1087.036800177744 259.40368650728834 1078.0141616832248 254.93385504990374 1068.9915231887055 250.4640235925191 1068.575399300972 240.35143571211466 1068.1592754132387 230.2388478317102 1076.803871147225 225.38292977677173 1085.448466881211 220.52701172183325 1094.5132008925762 222.81057694886528 1103.577934903941 225.0941421758973 1109.371446174484 232.53316732345917 1115.1649574450266 239.97219247102103 1113.0050172157141 249.69009191951284 1110.8450769864016 259.4079913680047 1103.3457079797006 264.73339441899986 1095.8463389729995 270.05879746999506 1086.4896246373178 269.16755742756504 1077.1329103016358 268.27631738513503 1072.1196990190388 260.64136860682737 1067.106487736442 253.00641982851974 1069.3227301457528 243.12382050564435 1071.5389725550633 233.24122118276892 1071.5436279287226 233.24304532533247 1071.5482833023818 233.24486946789602 1071.552938676041 233.24669361045957 1071.5575940497004 233.24851775302312 1080.9267461791421 240.21527058807732 1090.295898308584 247.18202342313154 1092.7175954553556 247.8369221775132 1095.1392926021274 248.4918209318949 1095.8448761996378 248.77481537017508 1096.5504597971483 249.05780980845526 1097.1678120031304 249.50144289890534 1097.7851642091125 249.94507598935544 1098.2784044843484 250.52356375591447 1098.7716447595842 251.1020515224735 1099.1121059561024 251.7817722289689 1099.4525671526208 252.4614929354643 1099.6204616496832 253.20294118249802 1099.7883561467456 253.94438942953178 1099.7739259082946 254.70447221014945 1099.7594956698435 255.46455499076714 1099.5635793820156 256.19909625804695 1099.3676630941875 256.93363752532673 1099.0016474208364 257.59994570630204 1098.6356317474854 258.26625388727734 1098.1207895367436 258.82560311916353 1097.6059473260018 259.3849523510497 1096.9722012313473 259.80483323020866 1096.3384551366926 260.2247141093676 1095.622638510923 260.48072313937456 1094.9068218851532 260.7367321693815 1094.150538024191 260.81399009338395 1093.3942541632287 260.8912480173864 1092.6414583206065 260.78526460121134 1091.8886624779846 260.67928118503625 1091.888967164491 260.6793624507894 Z" fill="#00c7ff"></path><path d="M 593.52392578125 568.7134497070313 Q 593.52392578125 568.7134497070313 597.2143040313721 566.432603801924 600.9046822814942 564.1517578968165 601.5511084952774 564.1524684680893 602.1975347090606 564.153179039362 602.8181175887137 564.1582344239455 603.4387004683668 564.1632898085289 604.0590782586141 564.1722375867197 604.6794560488615 564.1811853649104 605.2997424216228 564.193589816014 605.920028794384 564.2059942671175 606.5403592272098 564.221728799552 607.1606896600355 564.2374633319865 607.7810204673717 564.2563123059683 608.401351274708 564.2751612799502 609.0217269041284 564.2970201291025 609.6421025335488 564.3188789782547 610.8774771629912 564.3584044941265 612.1128517924336 564.3979300099983 612.738410475441 564.4276655333849 613.3639691584485 564.4574010567717 613.9843444059113 564.4891451439047 614.6047196533741 564.5208892310377 615.840108840292 564.5784746106413 617.07549802721 564.6360599902449 617.701056833956 564.6739625520281 618.326615640702 564.7118651138114 619.5620791460525 564.7798901224692 620.797542651403 564.8479151311269 622.038160088513 564.9156593569752 623.2787775256229 564.9834035828235 623.9044704071054 565.0222196397679 624.5301632885878 565.0610356967123 625.1504500421279 565.0984603691745 625.7707367956679 565.1358850416366 626.3910672317302 565.1724226504343 627.0113976677925 565.2089602592321 627.6317587333349 565.2446324069576 628.2521197988774 565.2803045546833 628.8724956876788 565.3152219429178 629.4928715764801 565.3501393311521 630.1131579491051 565.3841367999081 630.7334443217302 565.4181342686641 631.3537747545547 565.4513306706522 631.9741051873792 565.4845270726403 632.9183533447178 565.6503023341863 633.8626015020564 565.8160775957324 634.9419397732912 566.6600084922582 636.0212780445261 567.503939388784 637.348064106762 568.6954633403822 638.6748501689978 569.8869872919803 637.2285033528715 569.0805760378204 635.7821565367451 568.2741647836605 636.3719050372798 568.2833168089321 636.9616535378145 568.2924688342038 637.5696665891414 568.3210391312957 638.1776796404685 568.3496094283876 639.6099431403165 569.7768809522245 641.0422066401646 571.2041524760614 641.0147436116549 571.8194489947882 640.9872805831453 572.4347455135149 640.5453055946764 572.3815316821692 640.1033306062076 572.3283178508236 640.9127452676912 572.4227200211765 641.7221599291747 572.5171221915294 642.4399335911859 574.3387059195068 643.157707253197 576.1602896474841 643.1541868382292 576.16384023595 643.1506664232614 576.167390824416 643.1471460082937 576.1709414128819 643.1436255933259 576.1744920013479 641.3590751782115 576.7448677290253 639.5745247630971 577.3152434567027 637.9237074234759 576.1689847635103 636.2728900838546 575.022726070318 635.8309143335186 573.7289397412371 635.3889385831828 572.4351534121562 635.361385923255 571.8202734107892 635.3338332633274 571.2053934094224 636.755551890469 572.6326641777598 638.1772705176105 574.0599349460972 637.5447103093354 574.0884163608871 636.9121501010604 574.1168977756769 636.2716324501212 574.1155930595263 635.6311147991819 574.1142883433757 634.1742223592762 572.0776722160206 632.7173299193706 570.0410560886654 632.8034543605131 571.2221240542864 632.8895788016557 572.4031920199074 632.7282554518514 572.0170069191188 632.5669321020471 571.6308218183301 632.2705186447131 571.7965970798762 631.9741051873792 571.9623723414222 631.3537747545547 571.9955687434103 630.7334443217302 572.0287651453984 630.1131579491051 572.0627626141544 629.4928715764801 572.0967600829104 628.8724956876788 572.1316774711447 628.2521197988774 572.1665948593792 627.6317587333349 572.2022670071049 627.0113976677925 572.2379391548304 626.3910672317302 572.2744767636282 625.7707367956679 572.3110143724259 625.1504500421279 572.348439044888 624.5301632885878 572.3858637173502 623.9044704071054 572.4246797742946 623.2787775256229 572.463495831239 622.038160088513 572.5312400570873 620.797542651403 572.5989842829356 619.5620791460525 572.6670092915933 618.326615640702 572.7350343002511 617.701056833956 572.7729368620344 617.07549802721 572.8108394238176 615.840108840292 572.8684248034212 614.6047196533741 572.9260101830248 613.9843444059113 572.9577542701578 613.3639691584485 572.9894983572908 612.738410475441 573.0192338806776 612.1128517924336 573.0489694040642 610.8774771629912 573.088494919936 609.6421025335488 573.1280204358078 609.0217269041284 573.14987928496 608.401351274708 573.1717381341123 607.7810204673717 573.1905871080942 607.1606896600355 573.209436082076 606.5403592272098 573.2251706145105 605.920028794384 573.240905146945 605.2997424216228 573.2533095980485 604.6794560488615 573.265714049152 604.0590782586141 573.2746618273428 603.4387004683668 573.2836096055336 602.8181175887137 573.288664990117 602.1975347090606 573.2937203747005 601.5511084952774 573.2944309459732 600.9046822814942 573.295141517246 597.2143040313721 571.0142956121385 593.52392578125 568.7334497070312 593.52392578125 568.7234497070312 Z" fill="#00c7ff"></path><path d="M 643.1507568359375 576.17748046875 Q 643.1507568359375 576.17748046875 638.8453205871582 578.1801340521574 634.5398843383789 580.1827876355649 633.2731721329499 580.2230979506328 632.0064599275207 580.2634082657007 631.3806348751174 580.2710556839891 630.754809822714 580.2787031022775 630.1344323111114 580.2821155510176 629.5140547995087 580.2855279997577 628.8937235920029 580.2850799028888 628.273392384497 580.2846318060198 627.03797331374 580.2841440273528 625.8025542429831 580.2836562486858 625.1769951822243 580.2728535279015 624.5514361214657 580.2620508071171 623.9310608707921 580.2482635462118 623.3106856201184 580.2344762853065 622.6903544318304 580.2178684741598 622.0700232435424 580.2012606630132 621.4496924297848 580.1820148746713 620.8293616160271 580.1627690863293 620.2090308054529 580.1410596155782 619.5886999948788 580.1193501448272 618.9683389261529 580.0953419757495 618.3479778574272 580.0713338066719 617.7276019685985 580.0450905147707 617.1072260797699 580.0188472228695 616.4869397071449 579.9907136932547 615.8666533345198 579.9625801636399 615.2463229016953 579.9325984866939 614.6259924688708 579.9026168097478 612.1855910045133 578.0663900112281 609.7451895401558 576.2301632127084 611.5141512469936 577.3560303383258 613.2831129538315 578.4818974639431 610.9753385476129 576.749236145321 608.6675641413941 575.0165748266987 610.3569099860322 576.0602747562513 612.0462558306701 577.1039746858038 611.4606249198303 577.0931036581837 610.8749940089903 577.0822326305637 610.2690198996656 577.0479825215632 609.663045790341 577.0137324125627 609.0428335665248 576.9802728731748 608.4226213427086 576.946813333787 607.8022467091962 576.9140542839327 607.1818720756839 576.8812952340786 606.561585703148 576.8493993698319 605.9412993306121 576.8175035055853 603.7996538147493 575.2780271913566 601.6580082988863 573.7385508771281 603.1358041538338 574.5761043522971 604.6136000087812 575.4136578274662 604.0242090152881 575.404387272139 603.434818021795 575.3951167168118 601.5863744836324 573.9253061611405 599.7379309454698 572.4554956054692 599.73793094547 572.4504956054692 599.7379309454702 572.4454956054692 599.7379309454705 572.4404956054692 599.7379309454707 572.4354956054692 601.6114436743824 570.9657746875996 603.484956403294 569.49605376973 604.1257710448629 569.4972392003799 604.7665856864318 569.4984246310299 606.2549271587372 571.5660941035135 607.7432686310427 573.6337635759969 606.8422839808286 572.0942872617684 605.9412993306144 570.5548109475397 606.5615857032909 570.5229150832936 607.1818720759675 570.4910192190473 607.8022486949121 570.4582601756695 608.4226253138569 570.4255011322917 609.0430739600072 570.3920423484034 609.6635226061575 570.358583564515 610.2981217500136 570.3244223378166 610.9327208938697 570.2902611111182 611.5773553790589 570.2898468249203 612.2219898642479 570.2894325387225 613.9217924567843 572.5633373414703 615.6215950493207 574.8372421442181 614.5440262782181 573.115036811573 613.4664575071156 571.392831478928 615.2459648376782 573.7488146018597 617.0254721682408 576.1047977247916 615.8257323185558 574.2685709262719 614.6259924688708 572.4323441277522 615.2463229016953 572.4023624508061 615.8666533345198 572.3723807738601 616.4869397071449 572.3442472442453 617.1072260797699 572.3161137146305 617.7276019685985 572.2898704227293 618.3479778574272 572.2636271308281 618.9683389261529 572.2396189617505 619.5886999948788 572.2156107926728 620.2090308054529 572.1939013219218 620.8293616160271 572.1721918511707 621.4496924297848 572.1529460628287 622.0700232435424 572.1337002744868 622.6903544318304 572.1170924633402 623.3106856201184 572.1004846521935 623.9310608707921 572.0866973912882 624.5514361214657 572.0729101303829 625.1769951822243 572.0621074095985 625.8025542429831 572.0513046888142 627.03797331374 572.0508169101472 628.273392384497 572.0503291314802 628.8937235920029 572.0498810346112 629.5140547995087 572.0494329377423 630.1344323111114 572.0528453864824 630.754809822714 572.0562578352225 631.3806348751174 572.0639052535109 632.0064599275207 572.0715526717993 633.2731721329499 572.1118629868672 634.5398843383789 572.1521733019351 638.8453205871582 574.1548268853426 643.1507568359375 576.15748046875 643.1507568359375 576.16748046875 Z" fill="#00c7ff"></path><path d="M 619.2885530347958 632.2455637066829 Q 619.2885530347958 632.2455637066829 621.4307977502791 632.5864388902235 623.5730424657625 632.9273140737641 626.92793388052 633.8191971202136 630.2828252952773 634.7110801666631 633.3137284812749 635.211099076193 636.3446316672726 635.711117985723 640.3773449462583 636.9141259241682 644.4100582252439 638.1171338626133 646.562301460497 640.6058796352111 648.7145446957501 643.0946254078087 650.9433347405029 645.4071360598766 653.1721247852556 647.7196467119444 656.2341804556276 648.6675238673889 659.2962361259995 649.6154010228335 664.9751750584717 650.3872280164034 670.654113990944 651.1590550099733 671.5367243756903 651.8922443815421 672.4193347604365 652.625433753111 673.0216246991575 653.602068063157 673.6239146378786 654.578702373203 673.882824215001 655.6965277516579 674.1417337921235 656.8143531301127 674.0301551065774 657.9563329647751 673.9185764210312 659.0983127994374 673.4481917906469 660.1448815001645 672.9778071602626 661.1914502008917 672.1978659800109 662.0330317484504 671.4179247997592 662.874613296009 670.410087117097 663.4230938802136 669.4022494344347 663.9715744644184 668.27203612078 664.1695280233182 667.1418228071252 664.3674815822179 666.0075674947649 664.1941823259413 664.8733121824046 664.0208830696646 663.8537717019572 663.4944754760902 662.8342312215099 662.9680678825158 662.0361517304109 662.1436669656491 661.2380722393118 661.3192660487824 660.7450128709518 660.28318680224 660.2519535025916 659.2471075556977 660.1155377029927 658.1078277500909 659.9791219033938 656.9685479444842 660.2136324427845 655.8453504762008 660.4481429821751 654.7221530079173 661.0290265451763 653.7326369483819 661.6099101081775 652.7431208888464 662.4763480324046 651.9908888306991 663.3427859566318 651.2386567725518 664.404061962701 650.8024676108507 665.4653379687701 650.3662784491496 666.6103361786961 650.2918013042676 667.755334388622 650.2173241593855 668.8641731875755 650.5123568080517 669.9730119865291 650.8073894567179 670.9295956595545 651.441041902736 671.88617933258 652.074694348754 672.5903533165981 652.9806230137577 673.2945273006163 653.8865516787615 673.6725643936165 654.9699055923833 674.0506014866168 656.053259506005 674.0629211051698 657.2006112275108 674.075240723723 658.3479629490165 673.7205530005144 659.4391844502932 673.3658652773058 660.53040595157 672.681306110584 661.4512460533795 671.9967469438621 662.3720861551891 671.0539898590888 663.0261326557938 670.1112327743155 663.6801791563985 669.0089846871301 663.9989532145335 667.9067365999449 664.3177272726685 666.7604031760411 664.267853160299 665.6140697521373 664.2179790479295 664.5436724036006 663.8046785977858 663.4732750550637 663.3913781476423 663.4741924793059 663.3919167105665 663.4751099035481 663.3924552734908 663.472807291118 663.5112915300632 663.4705046786878 663.6301277866356 660.5897642128753 663.3328796147948 657.7090237470628 663.0356314429541 654.9701176270212 661.6062200231639 652.2312115069797 660.1768086033737 649.0598563485028 658.7897330818262 645.8885011900257 657.4026575602785 643.9312193793398 655.0835717218092 641.9739375686539 652.7644858833398 639.8561392210468 650.9387300014566 637.7383408734397 649.1129741195736 635.1100029300044 647.8348743420177 632.4816649865692 646.5567745644618 629.7258681082809 646.2579400427427 626.9700712299926 645.9591055210236 624.3161733786972 645.1821570151337 621.6622755274016 644.4052085092437 619.5242025548966 644.0327032606554 617.3861295823917 643.6601980120671 616.7170041887614 643.4634471415384 616.047878795131 643.2666962710097 615.4452852359268 642.9155257997846 614.8426916767227 642.5643553285596 614.3416527179184 642.0791753009254 613.840613759114 641.5939952732912 613.4702498085366 641.0030043752502 613.0998858579591 640.412013477209 612.8817224858174 639.7495601275227 612.6635591136758 639.0871067778364 612.6102759854092 638.3916927963139 612.5569928571426 637.6962788147915 612.6716867906695 637.0083216947129 612.7863807241963 636.3203645746343 613.0623857027111 635.6798484161418 613.338390681226 635.0393322576494 613.7596652824094 634.4834838899694 614.1809398835928 633.9276355222895 614.7229996078306 633.4887608786679 615.2650593320685 633.0498862350463 615.8963996427194 632.7534927303908 616.5277399533704 632.4570992257353 617.211667321916 632.3204132644624 617.8955946904616 632.1837273031896 618.5923592261079 632.2146930797908 619.289123761754 632.245658856392 619.288838398275 632.2456112815374 Z" fill="#00c7ff"></path><path d="M 704.2806106349155 429.6181608519924 Q 704.2806106349155 429.6181608519924 706.0541777755077 428.88002645796473 707.8277449161 428.14189206393706 710.7381059640425 427.3691347622589 713.648467011985 426.5963774605808 717.8761191110725 428.0591669983604 722.10377121016 429.52195653614 727.7333063872125 431.5637530669219 733.362841564265 433.60554959770377 733.5376756266045 434.6227879081811 733.712509688944 435.6400262186585 733.5533754437122 436.65983846689414 733.3942411984802 437.6796507151298 732.91780004316 438.59526228952916 732.4413588878398 439.51087386392857 731.6974943371615 440.2264199909541 730.9536297864832 440.94196611797963 730.0202246552642 441.38252892924584 729.086819524045 441.8230917405121 728.0616015759188 441.9425441933822 727.0363836277925 442.06199664625234 726.026693452559 441.84783203737845 725.0170032773256 441.6336674285045 724.1285557028643 441.1083088489696 723.2401081284031 440.5829502694348 722.5659238502874 439.80140290119743 721.8917395721718 439.0198555329601 721.5024058622878 438.06394759178323 721.1130721524039 437.1080396506064 721.0493523529507 436.0778549502663 720.9856325534975 435.04767024992634 721.254198144298 434.05106940049114 721.5227637350985 433.05446855105595 722.0954958279017 432.1957959245385 722.6682279207048 431.3371232980211 723.4851613142074 430.7062821450853 724.30209470771 430.0754409921496 725.2776962599629 429.7384805480338 726.2532978122158 429.401520103918 727.2854217831643 429.39372021607005 728.3175457541129 429.385920328222 729.2981284915444 429.70809764695844 730.2787112289759 430.0302749656949 731.1050854614327 430.64869744069756 731.9314596938896 431.2671199157002 732.5171038210918 432.11703855058863 733.1027479482941 432.966957185477 733.3863448755286 433.95938527482156 733.6699418027631 434.9518133641661 733.6217988568862 435.98284342503695 733.5736559110093 437.01387348590777 733.1988136711627 437.9755563987661 732.8239714313161 438.9372393116245 732.1616759789605 439.72888662163456 731.4993805266049 440.5205339316446 730.618974370431 441.0592599564736 729.7385682142572 441.5979859813027 728.732230111221 441.8273859639413 727.7258920081848 442.0567859465799 726.6989858233218 441.95284164829013 725.6720796384587 441.8488973500003 724.7321227204009 441.4224917662516 723.7921658023429 440.99608618250295 723.0375718885352 440.29186409047406 722.2829779747277 439.5876419984452 721.7927532471396 438.67933563706805 721.3025285195514 437.7710292756909 721.3028409305296 437.77193379917605 721.3031533415078 437.7728383226612 719.7508397476334 438.7674070174569 718.1985261537591 439.7619757122526 715.1773156676577 439.36243745404056 712.1561051815562 438.9628991958286 710.3627350662891 439.6515256660587 708.569364951022 440.34015213628885 707.8967019890173 440.51885633660487 707.2240390270126 440.6975605369209 706.528155617375 440.7100877814147 705.8322722077374 440.72261502590845 705.1536131269311 440.5682372305414 704.4749540461246 440.4138594351744 703.8529629918123 440.10154904466674 703.2309719375002 439.7892386541591 702.7017990589829 439.3371471630809 702.1726261804658 438.88505567200275 701.7670270303062 438.319458659057 701.3614278801465 437.7538616461112 701.1029759000087 437.10763163626467 700.8445239198708 436.46140162641814 700.7482403509836 435.77209753820614 700.6519567820964 435.0827934499941 700.7234376300075 434.3904776694103 700.7949184779186 433.6981618888265 701.030009272389 433.04307184156676 701.2651000668593 432.38798179430705 701.6501373198685 431.80819134469743 702.0351745728777 431.22840089508776 702.5477799011901 430.75760749130086 703.0603852295023 430.2868140875139 703.6707659873516 429.9523802642979 704.2811467452008 429.6179464410819 704.2808786900582 429.6180536465372 Z" fill="#00c7ff"></path><path d="M 777.9570314239915 578.89697265625 Q 777.9570314239915 578.89697265625 777.987798127802 580.6804412841797 778.0185648316125 582.4639099121093 778.1395798480185 585.7768953221047 778.2605948644244 589.0898807321 780.9016162882027 594.1726608534987 783.542637711981 599.2554409748974 783.4326258591624 600.2900041445503 783.3226140063438 601.3245673142033 782.8880135433235 602.2698429339595 782.4534130803031 603.2151185537157 781.7397267902827 603.9721360166582 781.0260405002623 604.7291534796005 780.1079915262018 605.218652857526 779.1899425521412 605.7081522354513 778.1636508639663 605.8788828142756 777.1373591757912 606.0496133930999 776.1102777841681 605.8836996361517 775.0831963925451 605.7177858792035 774.1628609903003 605.2325990006323 773.2425255880554 604.747412122061 772.5252955347487 603.9937513161299 771.808065481442 603.2400905101989 771.369034952985 602.2968642622363 770.930004424528 601.3536380142737 770.8151400331428 600.3196023614287 770.7002756417578 599.2855667085836 770.921603719544 598.2689854566679 771.1429317973302 597.2524042047522 771.6772792361185 596.359713679193 772.2116266749067 595.4670231536336 773.0030471568018 594.7916882881041 773.794467638697 594.1163534225747 774.76009923033 593.729081955767 775.7257308219629 593.3418104889593 776.7644716407876 593.2831498456779 777.8032124596124 593.2244892023966 778.806306067697 593.5005811674781 779.8093996757817 593.7766731325596 780.6718219075689 594.3586108043787 781.534244139356 594.9405484761977 782.1656991595202 595.7674028268982 782.7971541796843 596.5942571775988 783.1315284809264 597.5794563383942 783.4659027821683 598.5646554991895 783.4681872868819 599.605048857877 783.4704717915955 600.6454422165646 783.1404273115342 601.6321003138526 782.8103828314728 602.6187584111406 782.1825651108222 603.4483778837905 781.5547473901715 604.2779973564403 780.6948891100114 604.8637168266675 779.8350308298515 605.4494362968946 778.8331593790954 605.7299307815513 777.8312879283393 606.010425266208 776.7922995123497 605.9563269187073 775.7533110963601 605.9022285712066 774.7859880765574 605.5192015028124 773.8186650567546 605.1361744344182 773.0242864086606 604.4643216803007 772.2299077605666 603.7924689261832 771.6916451383323 602.9021336470505 771.1533825160981 602.0117983679177 770.927592158359 600.9961989025205 770.7018018006199 599.9805994371234 770.701856187505 599.9815624998239 770.7019105743901 599.9825255625245 771.8383983395759 600.4473528042921 772.9748861047616 600.9121800460597 771.2532351602808 597.6258216778544 769.5315842158001 594.3394633096492 767.8160366678753 591.7146720208746 766.1004891199506 589.0898807321 766.2215041363565 585.7768953221047 766.3425191527625 582.4639099121093 766.373285856573 580.6804412841797 766.4040525603835 578.89697265625 766.4879850196794 578.2057488817857 766.5719174789754 577.5145251073214 766.8188366983852 576.8634752911059 767.0657559177952 576.2124254748906 767.4613109406855 575.6393886628318 767.8568659635758 575.0663518507732 768.3780671134311 574.6046329693122 768.8992682632864 574.1429140878511 769.5158233047887 573.819348260072 770.1323783462908 573.4957824322929 770.8084530714591 573.3291753193089 771.4845277966273 573.1625682063249 772.1808287106695 573.1626030213706 772.8771296247118 573.1626378364164 773.5531876857883 573.3293125560397 774.2292457468649 573.4959872756631 774.8457684287016 573.8196147573284 775.4622911105382 574.1432422389937 775.9834460858995 574.6050132382611 776.5046010612607 575.0667842375284 776.9000987784921 575.6398606022242 777.2955964957235 576.2129369669199 777.5424506089173 576.8640114718019 777.7893047221112 577.515085976684 777.8731680586101 578.206318140938 777.957031395109 578.8975503051922 777.9570314095502 578.8972614807211 Z" fill="#00c7ff"></path><path d="M 1015.9387004416021 604.4316692358159 Q 1015.9387004416021 604.4316692358159 1018.081793243744 605.1332773259353 1020.2248860458858 605.8348854160547 1023.0707497592592 606.0710793716732 1025.9166134726327 606.3072733272919 1028.9090211618336 606.1964056583263 1031.9014288510343 606.0855379893605 1034.7490862775767 606.0460250013681 1037.5967437041193 606.0065120133756 1041.1671303230114 604.6837214024918 1044.7375169419036 603.3609307916079 1048.397345972956 600.9947719134506 1052.057175004008 598.6286130352933 1053.80777238795 598.4265547677037 1055.558369771892 598.2244965001142 1056.6119989988442 597.8127026779823 1057.6656282257964 597.4009088558503 1058.7955902580943 597.3471082480548 1059.925552290392 597.2933076402593 1061.0135398049729 597.6031331846384 1062.101527319554 597.9129587290174 1063.0336277364404 598.5539716092887 1063.965728153327 599.1949844895599 1064.6443503128207 600.100070487948 1065.3229724723144 601.0051564863359 1065.677064455177 602.0795528598899 1066.03115643804 603.153949233444 1066.023644720195 604.2851663982399 1066.0161330023502 605.4163835630358 1065.647804062639 606.485982783307 1065.2794751229274 607.5555820035783 1064.5888930985666 608.4515759586156 1063.898311074206 609.3475699136532 1062.9577800854427 609.976147799845 1062.017249096679 610.6047256860368 1060.9252429863122 610.9000752327702 1059.8332368759457 611.1954247795036 1058.7040889719929 611.126622811271 1057.5749410680398 611.0578208430384 1056.526873454111 610.6320709440755 1055.4788058401818 610.2063210451126 1054.621551472118 609.4681993422282 1053.7642971040539 608.7300776393437 1053.1876107404846 607.7568656696747 1052.6109243769154 606.7836537000056 1052.3751852323367 605.6772470136796 1052.1394460877582 604.5708403273534 1052.2693361128368 603.4470799964915 1052.3992261379155 602.3233196656296 1052.881145812738 601.2998636935171 1053.3630654875603 600.2764077214046 1054.1465576949581 599.4604122184877 1054.9300499023561 598.6444167155709 1055.933082801393 598.121316626407 1056.9361157004303 597.5982165372432 1058.0536714818022 597.4227805792527 1059.1712272631742 597.2473446212623 1060.286297541565 597.4379409855576 1061.4013678199562 597.6285373498528 1062.3972044428692 598.1652105467795 1063.393041065782 598.701883743706 1064.165379675922 599.5284439478778 1064.9377182860621 600.3550041520497 1065.4056948270704 601.3849102918991 1065.873671368079 602.4148164317487 1065.9882885725779 603.5402370625648 1066.1029057770768 604.6656576933809 1065.8521631934996 605.7687609780351 1065.6014206099223 606.8718642626892 1065.011571052959 607.8371549960871 1064.4217214959954 608.802445729485 1063.554522369965 609.5288577170279 1062.6873232439345 610.2552697045707 1062.6882255519317 610.2547350330562 1062.6891278599287 610.2542003615418 1059.3280143700958 610.6255131587219 1055.9669008802632 610.996825955902 1053.1510583359513 613.2535081350794 1050.3352157916393 615.5101903142569 1046.4560281301715 616.420380572543 1042.5768404687037 617.3305708308291 1039.1652118788852 618.0835698561164 1035.7535832890665 618.8365688814037 1032.54183222137 618.72058429294 1029.3300811536737 618.6045997044764 1026.536604641447 618.4519705244105 1023.74312812922 618.2993413443446 1020.1507668546553 617.5727202126801 1016.5584055800907 616.8460990810156 1014.4211806942443 616.1209112116624 1012.2839558083979 615.3957233423091 1011.6545196046613 615.0974031907909 1011.0250834009248 614.7990830392728 1010.4853335413732 614.3587934340239 1009.9455836818216 613.9185038287752 1009.5268904536521 613.3618344223398 1009.1081972254825 612.8051650159045 1008.8348950987886 612.1644694603397 1008.5615929720946 611.5237739047747 1008.4495662793206 610.8362894558726 1008.3375395865467 610.1488050069705 1008.3932993243403 609.4544882932028 1008.449059062134 608.760171579435 1008.6693644719148 608.099376320828 1008.8896698816956 607.438581062221 1009.2617168026961 606.8497127102526 1009.6337637236966 606.2608443582841 1010.1359287713876 605.7781279692382 1010.6380938190788 605.2954115801923 1011.2411911372947 604.9469026532809 1011.8442884555104 604.5983937263694 1012.5132659997798 604.404347616799 1013.1822435440491 604.2103015072286 1013.8782203080674 604.1819961840047 1014.5741970720857 604.1536908607808 1015.2567228536277 604.292771430619 1015.9392486351696 604.4318520004574 1015.9389745383859 604.4317606181367 Z" fill="#00c7ff"></path></svg>