<?xml version="1.0" standalone="no"?>
<!DOCTYPE svg PUBLIC "-//W3C//DTD SVG 20010904//EN"
 "http://www.w3.org/TR/2001/REC-SVG-20010904/DTD/svg10.dtd">
<svg version="1.0" xmlns="http://www.w3.org/2000/svg"
 width="1280.000000pt" height="963.000000pt" viewBox="0 0 1280.000000 963.000000"
 preserveAspectRatio="xMidYMid meet">

<g transform="translate(0.000000,963.000000) scale(0.100000,-0.100000)"
fill="#000000" stroke="none">
<path d="M2435 8381 c-5 -9 24 -31 39 -31 13 0 5 28 -10 34 -20 8 -22 8 -29
-3z"/>
<path d="M10230 7476 c-25 -18 -53 -42 -63 -53 -27 -31 -59 -131 -52 -164 7
-30 66 -89 90 -89 24 0 17 14 -20 38 -46 29 -46 60 0 136 19 32 35 62 35 66 0
10 68 70 79 70 5 0 25 -18 44 -39 54 -60 61 -146 18 -217 -13 -22 -31 -33 -69
-43 -51 -13 -79 -31 -47 -31 13 0 14 -4 5 -21 -17 -32 -6 -33 39 -5 22 14 45
26 50 26 5 0 21 15 35 33 15 17 32 38 38 46 19 23 16 150 -4 187 -28 51 -76
94 -106 94 -15 0 -47 -15 -72 -34z"/>
<path d="M9769 7016 c-2 -2 -33 -7 -69 -10 -92 -9 -408 -83 -555 -131 -27 -9
-63 -14 -80 -11 -16 2 -63 0 -104 -6 -54 -7 -93 -6 -139 3 -62 11 -66 11 -81
-10 -27 -36 -54 -146 -49 -201 4 -41 12 -56 42 -86 l37 -36 -28 6 c-70 15
-143 15 -158 -1 -16 -16 -47 -79 -61 -123 -7 -22 -9 -20 -15 21 -4 25 -20 73
-35 105 -24 50 -40 66 -99 106 -38 26 -79 48 -90 48 -28 0 -131 -83 -152 -122
-14 -26 -17 -57 -17 -148 0 -107 3 -126 48 -283 37 -130 47 -177 42 -205 -4
-21 -10 -64 -13 -97 -3 -33 -8 -64 -13 -68 -7 -8 -230 -56 -260 -57 -39 0 -79
118 -85 250 -9 193 -15 232 -58 344 -51 134 -86 176 -144 176 -31 0 -45 -7
-70 -32 -54 -57 -66 -92 -58 -169 6 -63 5 -69 -11 -69 -11 0 -32 9 -49 20 -25
16 -47 20 -127 20 -91 0 -167 -13 -328 -54 -195 -51 -253 -65 -315 -75 -178
-30 -236 -44 -315 -72 -47 -17 -98 -37 -115 -46 -48 -25 -106 -85 -127 -130
-21 -47 -35 -52 -98 -32 -33 10 -204 13 -260 5 -129 -19 -164 -27 -220 -51
-69 -29 -177 -96 -223 -139 -29 -27 -47 -33 -47 -16 0 5 -18 27 -39 49 -22 22
-43 50 -47 63 -8 28 -22 38 -50 38 -25 0 -58 -58 -48 -83 3 -10 -3 -20 -16
-27 -29 -16 -126 -116 -161 -166 -16 -23 -33 -44 -38 -46 -9 -3 -101 -190
-101 -204 0 -3 -9 -18 -19 -33 -21 -29 -55 -157 -45 -172 13 -21 -11 -6 -60
37 -54 49 -149 114 -167 114 -6 0 -45 12 -87 26 -99 33 -229 55 -240 40 -5 -6
-17 -31 -27 -56 -10 -25 -29 -63 -41 -85 -22 -40 -31 -70 -39 -135 -13 -108
-24 -243 -21 -249 2 -3 6 -78 7 -166 2 -88 8 -201 15 -252 7 -50 13 -142 12
-205 -1 -213 4 -312 18 -342 8 -16 14 -43 14 -60 0 -26 15 -47 88 -121 48 -50
98 -97 112 -106 26 -16 96 -37 72 -21 -9 6 -6 12 12 22 14 7 24 20 23 29 -1
15 50 101 60 101 3 0 2 -11 -1 -25 -4 -16 -2 -25 5 -25 8 0 10 12 6 35 -3 21
0 46 8 61 7 15 11 32 9 38 -2 6 5 22 17 34 11 13 18 29 15 37 -3 8 -1 17 4 20
4 3 11 -1 13 -7 3 -7 6 -3 6 10 1 19 -3 22 -19 17 -23 -7 -26 7 -5 25 8 7 13
15 11 19 -3 4 0 28 6 55 7 35 13 45 21 37 17 -17 27 -13 27 9 0 13 -5 18 -15
14 -8 -4 -15 -2 -15 4 0 5 7 13 16 16 9 3 14 13 11 21 -4 8 3 42 15 75 l20 62
20 -44 c25 -56 34 -128 19 -157 -10 -17 -10 -26 -1 -37 7 -7 10 -25 8 -39 -5
-25 5 -34 17 -16 3 6 8 40 11 77 4 47 10 72 22 80 12 9 13 15 6 25 -16 20 -27
72 -14 64 5 -3 10 -13 10 -21 0 -16 47 -89 84 -132 11 -12 15 -22 10 -22 -5 0
10 -9 33 -21 25 -12 57 -41 77 -69 20 -27 48 -55 63 -63 45 -23 238 -42 273
-27 17 7 30 16 30 20 0 4 11 11 24 14 30 7 106 81 106 102 0 16 9 39 58 148
25 55 27 67 24 182 -2 78 1 124 7 124 11 0 2 33 -20 76 -6 11 -9 33 -7 48 3
27 3 28 24 9 11 -10 27 -29 34 -43 23 -43 81 -109 115 -130 18 -11 49 -20 69
-20 27 0 46 -8 70 -31 35 -32 98 -69 116 -69 6 0 21 -11 34 -25 13 -14 28 -25
34 -25 5 0 38 -21 73 -46 101 -75 174 -70 278 16 33 28 64 50 69 50 5 0 15 6
21 14 13 16 210 96 237 96 24 1 122 91 157 145 24 37 27 51 33 181 8 165 11
160 -96 143 -86 -15 -214 -4 -237 19 -9 10 -31 29 -50 43 l-33 27 25 16 c22
15 25 24 25 76 0 33 -9 93 -20 132 -11 40 -20 86 -20 102 0 35 -34 92 -75 126
-16 14 -40 35 -52 48 -12 13 -34 37 -49 53 -15 16 -33 29 -41 29 -20 0 -15 36
10 67 60 74 75 143 41 191 -15 22 -15 25 2 43 12 13 27 19 41 16 12 -2 24 -1
25 3 2 4 16 10 31 14 19 4 26 3 22 -3 -4 -7 6 -8 27 -4 30 6 32 5 19 -10 -7
-9 -19 -17 -25 -17 -6 0 -28 -16 -48 -36 -38 -35 -52 -84 -28 -99 6 -3 10 3
10 14 0 31 98 100 171 121 33 10 43 1 58 -56 15 -55 32 -68 78 -61 29 5 43 2
68 -17 26 -20 35 -40 59 -127 16 -57 41 -147 57 -199 27 -92 35 -132 64 -305
15 -93 54 -187 95 -230 16 -16 41 -55 57 -85 81 -158 283 -120 283 54 0 75
-40 198 -120 371 -58 125 -107 261 -114 316 -5 45 -26 110 -80 253 -14 38 -26
79 -26 92 0 27 24 35 160 54 47 6 112 20 145 30 33 10 77 22 99 26 27 5 56 23
102 66 41 38 65 55 68 47 2 -8 8 -32 13 -54 6 -22 20 -74 31 -115 28 -101 42
-221 42 -360 0 -113 -1 -116 -30 -149 -16 -18 -41 -57 -56 -87 -22 -45 -25
-61 -19 -104 4 -27 17 -65 29 -82 12 -18 38 -60 59 -93 20 -33 53 -78 72 -100
33 -39 36 -40 99 -39 102 1 129 29 161 167 13 57 14 81 4 145 -6 43 -11 85
-10 95 0 9 2 27 2 40 1 12 8 56 16 97 15 74 19 100 22 131 2 25 128 78 191 80
91 2 86 5 110 -72 20 -63 21 -78 11 -127 -6 -30 -11 -109 -11 -175 l0 -119 39
-39 c38 -38 40 -39 112 -39 41 0 85 6 99 13 l25 13 -3 154 c-1 85 -7 182 -12
215 -6 33 -10 74 -9 90 0 26 3 22 20 -24 10 -29 23 -59 29 -66 6 -7 19 -55 31
-106 11 -52 28 -105 38 -119 22 -30 139 -110 161 -110 21 0 72 53 113 118 l33
52 64 -59 c59 -55 69 -60 110 -61 56 0 158 56 178 98 18 38 58 140 72 186 16
51 4 129 -44 291 -8 28 -29 102 -46 165 -42 155 -112 299 -181 374 -30 32 -77
91 -104 130 -28 39 -72 87 -98 106 -31 23 -42 36 -32 38 8 2 15 7 15 12 0 4
11 15 24 24 21 13 34 14 81 5 35 -6 61 -7 68 -1 19 15 67 24 67 12 0 -5 5 -10
10 -10 6 0 10 6 10 14 0 25 39 24 92 -2 29 -14 57 -32 61 -39 4 -7 17 -13 27
-13 27 0 45 -33 64 -118 9 -40 27 -101 40 -136 27 -70 35 -123 40 -266 2 -52
9 -122 15 -155 22 -127 31 -275 18 -296 -9 -15 -9 -23 1 -37 29 -41 24 -66
-26 -141 -14 -20 -25 -50 -26 -68 -2 -67 -181 -211 -312 -250 -83 -26 -226
-29 -279 -7 -19 8 -40 14 -48 14 -20 0 -97 -69 -109 -99 -17 -42 -27 -125 -16
-138 18 -23 160 -16 241 11 100 33 208 48 295 40 84 -8 76 -12 225 116 49 41
110 90 135 107 25 18 77 63 114 100 56 56 78 88 127 188 83 169 86 182 72 312
-7 59 -19 131 -26 161 -8 29 -19 90 -25 135 -6 45 -15 96 -20 112 -5 17 -16
53 -25 80 -9 28 -18 75 -21 105 -3 30 -12 82 -19 115 -19 79 -45 232 -45 261
0 14 12 31 33 45 17 13 41 33 52 45 14 16 37 24 80 28 140 15 237 53 268 105
36 62 -38 181 -113 181 -19 0 -70 7 -113 15 -74 14 -169 20 -178 11z m220 -57
c36 -6 75 -12 86 -15 12 -2 31 -21 43 -43 18 -31 20 -44 12 -65 -5 -14 -13
-26 -18 -26 -5 0 -21 -11 -34 -24 -20 -18 -45 -26 -115 -35 -49 -6 -100 -11
-113 -11 -12 0 -32 -9 -44 -20 -12 -11 -38 -35 -59 -52 -61 -50 -69 -74 -53
-155 7 -37 23 -129 35 -203 13 -74 30 -162 38 -195 9 -33 24 -91 34 -130 10
-38 19 -88 19 -111 0 -22 7 -63 15 -90 8 -27 22 -101 30 -163 15 -106 15 -118
0 -165 -9 -28 -25 -63 -36 -77 -10 -15 -19 -29 -19 -32 0 -3 -13 -34 -30 -70
-30 -66 -127 -171 -206 -224 -21 -15 -77 -58 -124 -98 -144 -120 -155 -127
-169 -111 -21 25 -63 27 -127 7 -33 -11 -91 -24 -130 -30 -38 -5 -87 -16 -109
-25 -22 -8 -63 -15 -92 -16 l-52 0 15 36 c9 20 25 51 37 68 12 17 23 33 24 35
2 2 20 -4 42 -13 32 -15 47 -16 86 -8 26 6 60 6 75 2 41 -12 197 40 270 90 33
22 63 40 67 40 16 1 143 149 143 168 0 11 14 51 31 89 28 59 31 78 30 143 -1
41 -6 94 -11 117 -6 23 -10 79 -11 125 0 46 -5 103 -11 128 -5 25 -13 110 -18
190 -7 125 -12 155 -37 220 -16 41 -36 108 -43 147 -7 40 -20 80 -29 88 -63
60 -183 135 -216 135 -9 0 -37 -10 -63 -21 -26 -12 -67 -24 -92 -27 -41 -5
-44 -4 -31 11 7 10 19 17 27 17 7 0 16 5 20 11 11 18 -45 2 -78 -21 -15 -11
-43 -20 -63 -20 -34 0 -46 12 -25 25 14 9 13 35 -2 35 -6 0 -21 -9 -33 -20
-20 -19 -23 -19 -68 -4 -26 9 -52 25 -58 36 -17 32 -13 146 7 190 18 39 28 46
40 27 5 -8 42 -9 127 -4 110 6 120 6 108 -9 -11 -13 -11 -17 3 -22 9 -3 16
-12 16 -20 0 -15 28 -19 46 -6 6 4 14 17 18 30 9 26 43 29 103 8 59 -21 82 -2
26 20 -24 9 -43 21 -43 25 0 5 17 13 38 18 20 5 87 23 149 40 132 37 133 37
126 12 -3 -13 7 -34 28 -60 34 -39 61 -42 40 -4 -10 19 -6 20 72 26 167 13
222 4 274 -45 42 -39 26 5 -16 46 l-39 38 -144 3 c-156 3 -209 13 -148 28 19
5 68 12 108 17 41 5 77 12 80 15 8 8 126 0 221 -16z m-1647 -351 c70 -43 83
-60 107 -143 16 -53 22 -111 27 -240 3 -93 11 -186 17 -205 7 -22 12 -143 13
-315 1 -154 5 -377 9 -496 5 -119 5 -224 2 -233 -6 -15 -9 -14 -27 4 -12 12
-33 20 -54 20 -19 0 -38 4 -41 10 -3 5 -10 47 -15 92 -22 200 -22 206 -4 237
16 28 16 30 -4 64 -12 19 -22 44 -22 56 0 20 -40 94 -57 104 -4 3 -53 0 -108
-7 -84 -10 -111 -18 -166 -49 -50 -28 -68 -44 -73 -65 -4 -15 -13 -56 -20 -92
-8 -36 -19 -85 -26 -110 -10 -41 -9 -83 7 -175 14 -87 -4 -222 -33 -246 -7 -6
-34 -13 -60 -15 -51 -4 -89 15 -100 49 -4 12 -29 57 -56 99 -47 73 -49 78 -43
130 10 81 24 117 64 161 l36 40 -2 126 c-3 185 -9 276 -21 297 -12 25 -68 219
-76 264 -3 21 0 45 8 59 12 21 11 35 -6 95 -10 39 -25 84 -33 99 -8 15 -12 34
-9 42 3 7 1 16 -5 20 -8 4 -6 15 4 35 8 16 16 44 18 61 3 35 25 56 50 46 20
-7 57 -80 92 -178 23 -63 28 -99 35 -244 8 -171 25 -259 55 -289 8 -8 15 -19
15 -25 0 -6 10 -17 23 -25 24 -16 64 -11 241 28 112 24 155 82 158 208 1 55
-6 96 -27 163 -61 199 -69 238 -71 344 -2 116 2 141 21 141 8 0 15 10 17 22 3
20 59 68 79 68 4 0 32 -15 61 -32z m487 -94 c1 -1 1 -8 -1 -14 -2 -8 -13 -4
-28 10 l-25 21 25 -7 c14 -3 27 -8 29 -10z m-66 -38 c22 -17 22 -37 -3 -69
-21 -26 -24 -44 -14 -71 8 -20 24 -21 24 -2 0 43 42 7 66 -56 7 -19 24 -25 24
-8 0 28 22 2 57 -67 29 -58 44 -78 58 -78 16 0 21 8 23 43 2 23 6 42 9 42 3 0
20 -17 38 -37 18 -21 47 -54 64 -73 39 -45 106 -183 125 -257 8 -32 28 -105
44 -163 57 -204 62 -224 68 -269 4 -33 0 -64 -16 -111 -33 -100 -71 -172 -88
-165 -8 3 -20 -2 -27 -12 -9 -12 -27 -18 -54 -18 -38 0 -42 3 -52 33 -8 23
-20 37 -40 44 -16 5 -29 17 -29 26 0 9 -12 33 -26 53 -26 38 -41 83 -51 149
-3 19 -13 44 -23 55 -9 11 -20 32 -24 47 -3 15 -17 39 -30 53 -46 49 -80 20
-46 -40 11 -19 29 -69 40 -112 12 -43 26 -95 32 -115 13 -44 5 -116 -18 -161
-16 -32 -63 -87 -74 -87 -6 0 -60 46 -98 83 -12 12 -20 27 -18 34 3 7 1 15 -4
18 -6 4 -7 23 -4 44 5 28 2 39 -9 44 -9 3 -13 14 -10 31 3 16 -3 36 -16 55
-12 16 -21 43 -21 61 0 22 -9 41 -31 62 -18 18 -28 37 -24 46 3 8 1 20 -5 27
-12 14 -19 118 -21 295 0 71 -7 147 -15 175 -18 67 -24 245 -8 245 7 0 22 12
33 28 19 24 22 25 34 11 15 -19 51 -39 69 -39 8 1 4 8 -9 19 -13 11 -23 24
-23 30 0 5 -10 17 -21 25 -20 14 -21 18 -9 68 7 29 19 59 28 66 21 16 102 15
125 -2z m157 6 c0 -4 -9 -13 -20 -20 -11 -7 -20 -10 -20 -8 0 2 -3 11 -6 20
-5 12 0 16 20 16 14 0 26 -3 26 -8z m-1517 -296 c29 -13 67 -27 85 -31 40 -8
52 -30 52 -94 0 -46 -4 -54 -51 -106 -53 -57 -102 -90 -119 -80 -5 3 -27 -4
-48 -15 -22 -12 -84 -28 -139 -36 -128 -20 -225 -42 -236 -53 -22 -22 -19 -88
8 -166 15 -44 33 -89 39 -100 15 -24 22 -47 46 -150 29 -129 55 -211 80 -252
23 -38 98 -227 126 -313 16 -53 19 -163 4 -191 -13 -24 -37 -24 -71 -1 -33 22
-149 153 -149 168 0 6 -6 17 -14 23 -8 7 -15 20 -15 29 0 39 -32 170 -53 212
-16 33 -22 65 -23 120 -1 68 -19 140 -37 140 -3 0 -4 10 -1 21 4 14 0 26 -9
33 -9 6 -24 41 -33 76 -32 115 -67 182 -120 225 -26 22 -66 59 -88 83 -31 32
-48 42 -72 42 -24 0 -42 11 -79 50 -29 30 -57 50 -70 50 -30 0 -95 -36 -136
-76 -61 -58 -113 -38 -93 37 8 32 8 39 -4 39 -8 0 -11 5 -8 10 4 6 11 8 16 4
11 -6 40 26 33 37 -6 10 27 34 71 51 22 9 63 25 90 36 28 11 70 23 95 27 25 4
59 11 75 15 69 20 196 41 214 35 11 -3 22 -1 25 4 8 12 89 39 152 51 27 5 85
18 129 30 44 12 123 25 175 29 52 4 96 9 98 9 2 1 27 -9 55 -22z m-1250 -301
c-3 -9 -8 -14 -10 -11 -3 3 -2 9 2 15 9 16 15 13 8 -4z m271 -74 c3 -5 -4 -11
-17 -15 -36 -9 -47 -7 -41 9 7 16 49 21 58 6z m-437 -26 c19 -8 52 -15 72 -15
49 0 116 -68 142 -142 17 -51 18 -54 0 -78 -9 -14 -28 -44 -40 -66 -30 -54
-60 -68 -111 -53 -28 9 -43 9 -52 1 -7 -5 -29 -13 -49 -17 -67 -12 -149 -124
-104 -141 9 -4 28 -1 43 6 15 8 29 14 32 15 3 0 16 7 30 14 22 13 90 29 198
48 30 5 38 -1 122 -85 59 -59 90 -98 90 -112 0 -12 12 -60 26 -106 15 -50 24
-101 22 -126 -3 -41 -4 -43 -35 -41 -17 2 -43 -3 -58 -11 -29 -15 -135 -11
-169 6 -10 6 -51 14 -90 19 -45 6 -73 14 -79 24 -6 11 -25 15 -68 15 -51 0
-67 -5 -105 -30 -45 -32 -53 -47 -32 -68 14 -14 68 -16 68 -4 0 5 12 14 26 21
20 9 32 8 57 -4 18 -8 52 -16 77 -18 25 -3 63 -15 84 -28 37 -21 50 -23 162
-21 133 2 128 3 203 -67 41 -38 72 -44 221 -40 106 4 119 2 115 -12 -3 -9 -9
-56 -14 -105 -4 -50 -16 -104 -26 -124 -25 -49 -104 -119 -136 -120 -14 0 -29
-4 -35 -9 -5 -5 -38 -19 -74 -31 -76 -26 -135 -58 -210 -116 -30 -24 -71 -50
-91 -58 l-36 -15 -44 45 c-24 24 -47 44 -51 44 -4 0 -27 14 -51 30 -23 17 -61
37 -82 45 -39 13 -40 15 -40 59 0 29 -4 46 -12 46 -8 0 -11 -13 -9 -35 2 -28
-1 -35 -15 -35 -10 0 -19 4 -21 8 -6 17 -81 60 -94 55 -8 -3 -14 0 -14 6 0 7
-6 11 -12 9 -27 -6 -158 124 -158 156 0 11 -11 33 -25 48 -14 15 -25 36 -25
48 0 11 -7 20 -15 20 -9 0 -15 6 -13 13 2 7 -1 12 -7 12 -15 0 -24 65 -16 117
5 26 5 48 2 48 -3 0 -6 24 -6 52 -1 29 -3 91 -6 138 -3 47 -2 97 2 113 5 16 4
25 -2 22 -5 -4 -9 -14 -9 -23 0 -9 -5 -24 -11 -32 -8 -11 -9 -2 -6 35 3 28 3
42 0 33 -6 -24 -23 -23 -23 1 0 11 -5 23 -10 26 -8 5 -7 12 2 23 11 13 10 15
-5 9 -10 -4 -16 -3 -13 2 3 4 -4 31 -14 60 -20 51 -29 211 -12 211 4 0 31 -9
60 -19 50 -19 92 -18 92 0 0 5 -11 14 -25 19 -14 5 -25 14 -25 20 0 6 -5 8
-10 5 -6 -3 -25 -1 -44 6 -32 12 -33 13 -19 40 8 15 24 38 37 50 13 13 22 28
19 35 -2 7 4 15 15 18 11 4 23 13 25 20 3 8 30 23 59 34 29 11 70 28 92 37 35
15 38 15 33 1 -8 -21 36 -22 53 -1 15 18 37 19 43 3 4 -8 6 -7 6 4 1 23 15 26
109 27 52 1 96 -4 119 -14z m-747 -227 c0 -9 3 -23 6 -32 9 -23 -19 -20 -34 4
-12 20 -52 121 -52 130 2 13 80 -87 80 -102z m1415 72 c18 -20 17 -20 -8 -20
-20 0 -27 5 -27 20 0 11 4 20 8 20 5 0 17 -9 27 -20z m-1500 -138 c11 -13 28
-33 39 -45 10 -12 30 -47 43 -77 26 -57 26 -61 3 -175 -45 -232 -49 -272 -25
-281 8 -4 21 -1 29 5 11 9 16 -4 29 -71 9 -46 18 -103 22 -128 13 -94 15 -100
40 -100 25 0 35 17 35 60 0 16 4 31 8 34 12 7 46 -378 44 -506 -1 -100 -3
-113 -36 -185 -19 -43 -38 -89 -41 -103 -4 -16 -28 -39 -65 -63 l-59 -39 -88
7 c-116 10 -133 17 -133 55 0 22 -7 34 -27 46 -16 10 -46 36 -69 60 -38 40
-40 45 -37 98 1 34 -2 56 -8 56 -6 0 -8 -11 -5 -27 3 -16 1 -35 -5 -43 -8 -12
-9 -9 -5 13 4 15 3 27 -2 27 -5 0 -15 23 -22 50 -13 48 -14 50 -26 28 -7 -14
-9 -25 -3 -29 6 -3 6 -15 0 -30 -8 -22 -10 -21 -16 19 -6 33 -11 41 -24 37 -9
-2 -21 -1 -26 3 -18 13 -62 77 -70 101 -9 30 -17 39 -83 105 -49 48 -67 72
-89 116 -11 24 -57 67 -78 73 -52 16 -56 -29 -10 -97 14 -20 25 -41 25 -46 0
-13 120 -170 130 -170 22 0 16 -32 -11 -58 -37 -35 -96 -197 -110 -302 -5 -41
-19 -97 -30 -124 -17 -40 -19 -53 -9 -71 10 -18 7 -31 -20 -81 -18 -32 -36
-63 -41 -68 -10 -11 -83 60 -93 92 -4 12 -15 26 -25 32 -10 5 -21 23 -24 40
-5 21 -12 30 -27 30 -21 0 -28 26 -8 32 23 8 9 240 -16 269 -12 15 -14 24 -6
39 13 24 13 43 0 35 -6 -4 -10 7 -9 27 0 26 2 29 8 14 7 -19 8 -18 14 4 3 13
3 27 -2 30 -4 3 -11 23 -14 45 -4 27 -3 35 3 25 15 -24 12 17 -5 64 -8 22 -12
43 -9 47 2 4 0 10 -4 13 -5 3 -8 29 -6 58 2 43 2 47 -5 18 -4 -21 -6 18 -5 93
1 71 -2 143 -7 160 -6 20 -5 35 3 44 7 9 8 20 1 36 -5 12 -8 28 -6 35 5 14 33
16 33 2 0 -5 7 -10 15 -10 9 0 15 9 15 21 0 16 -5 20 -20 16 -15 -4 -20 0 -20
15 0 10 -4 17 -8 14 -19 -12 16 153 46 217 18 37 32 72 32 78 0 17 98 1 206
-34 132 -44 254 -131 258 -186 1 -18 35 -72 52 -83 6 -4 21 -30 33 -57 11 -28
26 -53 31 -56 6 -3 10 -21 10 -40 0 -42 32 -70 63 -54 17 10 19 18 13 68 -4
31 -15 67 -25 81 -36 51 -54 134 -48 228 6 97 15 132 28 110 7 -10 9 -9 9 5 0
25 61 167 71 167 5 0 9 6 9 13 0 7 17 33 38 58 20 26 64 82 97 125 l59 78 26
-55 c14 -30 34 -65 45 -77z m204 -537 c0 -33 -3 -78 -7 -100 -7 -38 -8 -35
-20 45 -39 272 -40 315 -2 200 18 -55 29 -106 29 -145z m-1242 -627 c-3 -8 -6
-5 -6 6 -1 11 2 17 5 13 3 -3 4 -12 1 -19z m690 -240 c-3 -7 -5 -2 -5 12 0 14
2 19 5 13 2 -7 2 -19 0 -25z"/>
<path d="M8308 6504 c-3 -5 0 -43 7 -84 8 -41 14 -109 15 -150 0 -41 7 -86 14
-99 11 -20 14 -9 20 98 4 76 3 136 -4 160 -11 43 -44 89 -52 75z"/>
<path d="M7673 5152 c-21 -13 16 -223 44 -254 23 -26 46 -23 37 4 -3 12 -12
74 -18 137 -10 104 -14 116 -31 119 -11 1 -25 -1 -32 -6z"/>
<path d="M8748 6143 c-18 -16 -42 -33 -52 -38 -26 -15 -50 -94 -32 -109 12
-11 38 -83 50 -138 5 -22 12 -28 33 -28 68 0 145 40 158 81 10 30 -46 190 -79
227 -16 17 -33 32 -37 32 -5 0 -23 -12 -41 -27z m53 -74 c16 -34 29 -67 40
-108 12 -41 12 -44 -11 -61 -14 -10 -29 -16 -34 -13 -5 4 -7 -1 -3 -10 5 -12
1 -17 -13 -17 -15 0 -20 10 -25 55 -4 30 -11 55 -15 55 -15 0 -19 30 -7 52 37
69 52 79 68 47z"/>
<path d="M7043 6053 c-3 -8 -4 -15 -2 -16 49 -27 70 -34 74 -26 9 13 112 11
137 -3 12 -7 36 -26 52 -42 34 -32 45 -22 26 24 -22 52 -72 73 -183 75 -77 2
-100 -1 -104 -12z"/>
<path d="M5813 5730 c-18 -4 -43 -14 -55 -23 -36 -25 -171 -159 -194 -192 -84
-123 -103 -156 -114 -202 -10 -46 -10 -56 6 -82 26 -44 48 -41 40 4 -9 45 8
102 40 140 15 17 23 24 19 16 -5 -9 -4 -12 3 -7 6 4 9 12 6 19 -2 7 7 24 20
38 14 15 22 30 19 33 -4 3 3 6 15 6 17 0 22 6 22 25 0 14 5 25 10 25 6 0 10
-5 10 -12 0 -6 9 -3 20 7 11 10 20 28 20 40 0 13 6 28 14 34 12 10 15 7 18
-20 3 -36 28 -53 28 -20 0 14 6 21 19 21 12 0 24 12 32 29 7 17 21 32 31 34
10 3 23 17 30 31 10 23 9 29 -8 45 -14 14 -27 16 -51 11z m-128 -179 c-3 -6
-11 -11 -17 -11 -6 0 -6 6 2 15 14 17 26 13 15 -4z"/>
<path d="M5515 5707 c-26 -16 -35 -29 -28 -41 4 -5 14 0 23 12 10 12 20 19 22
16 3 -2 11 2 18 11 10 12 10 15 -1 14 -8 0 -23 -6 -34 -12z"/>
<path d="M5451 5424 c0 -11 3 -14 6 -6 3 7 2 16 -1 19 -3 4 -6 -2 -5 -13z"/>
<path d="M5426 5211 c-4 -7 -5 -15 -2 -18 9 -9 19 4 14 18 -4 11 -6 11 -12 0z"/>
<path d="M5501 5124 c0 -11 3 -14 6 -6 3 7 2 16 -1 19 -3 4 -6 -2 -5 -13z"/>
<path d="M5501 5084 c0 -11 3 -14 6 -6 3 7 2 16 -1 19 -3 4 -6 -2 -5 -13z"/>
<path d="M5530 5039 c0 -17 4 -28 10 -24 6 3 10 17 10 31 0 13 -4 24 -10 24
-5 0 -10 -14 -10 -31z"/>
<path d="M5586 5055 c4 -8 8 -15 10 -15 2 0 4 7 4 15 0 8 -4 15 -10 15 -5 0
-7 -7 -4 -15z"/>
<path d="M5520 4745 c0 -27 2 -46 5 -43 8 8 9 77 2 85 -4 3 -7 -15 -7 -42z"/>
<path d="M5520 4630 c0 -5 5 -10 10 -10 6 0 10 5 10 10 0 6 -4 10 -10 10 -5 0
-10 -4 -10 -10z"/>
<path d="M5753 4533 c-15 -5 -17 -23 -4 -23 5 0 11 7 15 15 3 8 4 15 3 14 -1
0 -8 -3 -14 -6z"/>
<path d="M5683 4423 c-21 -8 -15 -22 7 -16 11 3 20 9 20 14 0 10 -8 10 -27 2z"/>
<path d="M5920 4336 c0 -2 7 -9 15 -16 12 -10 15 -10 15 4 0 9 -7 16 -15 16
-8 0 -15 -2 -15 -4z"/>
<path d="M5064 5347 c-3 -8 5 -61 17 -118 22 -107 26 -195 21 -461 -2 -104 1
-145 12 -172 20 -48 38 -47 32 2 -2 20 0 96 5 167 20 297 20 326 0 443 -18
111 -36 152 -68 152 -7 0 -16 -6 -19 -13z"/>
<path d="M10361 7013 c-8 -3 -39 -26 -69 -50 l-55 -45 2 -87 c2 -97 -3 -121
-29 -121 -37 0 -51 -32 -45 -106 3 -38 8 -80 10 -94 3 -14 12 -79 20 -145 8
-66 21 -156 30 -200 8 -44 15 -97 15 -117 0 -20 10 -83 21 -140 29 -138 31
-324 5 -426 -22 -86 -13 -134 31 -178 22 -22 33 -25 64 -21 64 8 92 37 153
159 51 103 56 119 56 179 0 36 5 92 11 125 26 140 10 453 -35 656 -16 71 -22
135 -31 323 -12 255 -27 292 -115 293 -14 0 -32 -2 -39 -5z m94 -94 c13 -48
29 -278 26 -368 -1 -29 5 -88 13 -130 55 -278 67 -471 39 -661 -8 -58 -16
-131 -18 -162 -2 -46 -8 -65 -36 -105 -19 -26 -41 -61 -49 -76 -19 -38 -77
-88 -94 -81 -22 8 -39 59 -33 101 2 21 13 76 23 122 21 102 15 181 -42 551
-55 354 -52 327 -35 345 12 12 13 18 3 27 -14 14 -16 84 -2 93 6 3 10 15 10
26 0 10 8 27 18 37 9 9 23 30 29 45 7 15 17 27 22 27 5 0 12 7 15 16 5 13 1
14 -23 9 l-29 -6 -4 82 -3 82 40 25 c102 65 114 65 130 1z"/>
<path d="M190 5139 c0 -5 5 -7 10 -4 6 3 10 8 10 11 0 2 -4 4 -10 4 -5 0 -10
-5 -10 -11z"/>
<path d="M2847 4223 c-4 -3 -7 -11 -7 -17 0 -6 5 -5 12 2 6 6 9 14 7 17 -3 3
-9 2 -12 -2z"/>
<path d="M961 4174 c0 -11 3 -14 6 -6 3 7 2 16 -1 19 -3 4 -6 -2 -5 -13z"/>
<path d="M3200 4163 c0 -22 2 -25 10 -13 13 20 13 40 0 40 -5 0 -10 -12 -10
-27z"/>
<path d="M146 4045 c-3 -8 -1 -15 4 -15 6 0 10 7 10 15 0 8 -2 15 -4 15 -2 0
-6 -7 -10 -15z"/>
<path d="M3105 4040 c-3 -5 -1 -10 4 -10 6 0 11 5 11 10 0 6 -2 10 -4 10 -3 0
-8 -4 -11 -10z"/>
<path d="M3280 4019 c0 -5 5 -7 10 -4 6 3 10 8 10 11 0 2 -4 4 -10 4 -5 0 -10
-5 -10 -11z"/>
<path d="M3107 3978 c-2 -18 -1 -40 4 -48 5 -10 8 1 9 33 0 55 -6 61 -13 15z"/>
<path d="M1 3943 c0 -44 1 -46 12 -23 6 14 16 28 21 32 10 7 -10 38 -25 38 -5
0 -9 -21 -8 -47z"/>
<path d="M3345 3981 c-3 -5 -1 -12 5 -16 5 -3 10 1 10 9 0 18 -6 21 -15 7z"/>
<path d="M1600 3945 c0 -29 8 -31 36 -10 17 13 17 14 2 15 -10 0 -18 5 -18 10
0 6 -4 10 -10 10 -5 0 -10 -11 -10 -25z"/>
<path d="M1940 3956 c0 -8 5 -18 10 -21 6 -3 10 3 10 14 0 12 -4 21 -10 21 -5
0 -10 -6 -10 -14z"/>
<path d="M2126 3935 c4 -8 8 -15 10 -15 2 0 4 7 4 15 0 8 -4 15 -10 15 -5 0
-7 -7 -4 -15z"/>
<path d="M4543 3893 c0 -18 5 -29 9 -25 5 5 4 19 -1 33 -10 23 -10 22 -8 -8z"/>
<path d="M4740 3891 c0 -6 5 -13 10 -16 6 -3 10 1 10 9 0 9 -4 16 -10 16 -5 0
-10 -4 -10 -9z"/>
<path d="M2721 3863 c0 -25 1 -26 9 -8 12 27 12 35 0 35 -5 0 -10 -12 -9 -27z"/>
<path d="M70 3860 c0 -5 4 -10 9 -10 5 0 14 -13 21 -30 7 -16 16 -30 19 -30 7
0 41 64 41 75 0 3 -20 5 -45 5 -25 0 -45 -4 -45 -10z"/>
<path d="M3360 3830 c0 -19 3 -21 12 -12 9 9 9 15 0 24 -9 9 -12 7 -12 -12z"/>
<path d="M3424 3839 c-3 -6 -1 -16 5 -22 8 -8 11 -5 11 11 0 24 -5 28 -16 11z"/>
<path d="M4566 3835 c-13 -10 -17 -21 -12 -39 3 -15 11 -26 16 -26 11 0 23 42
18 64 -3 13 -6 13 -22 1z"/>
<path d="M1520 3813 c0 -13 5 -23 10 -23 13 0 13 11 0 30 -8 12 -10 11 -10 -7z"/>
<path d="M30 3800 c0 -5 5 -10 10 -10 6 0 10 5 10 10 0 6 -4 10 -10 10 -5 0
-10 -4 -10 -10z"/>
<path d="M370 3781 c0 -5 7 -14 15 -21 13 -10 15 -9 15 9 0 12 -6 21 -15 21
-8 0 -15 -4 -15 -9z"/>
<path d="M1028 3778 c6 -7 12 -26 15 -43 3 -24 4 -22 6 13 1 33 -3 42 -15 42
-12 0 -14 -3 -6 -12z"/>
<path d="M559 3764 c-5 -13 -66 -54 -79 -54 -6 0 -15 10 -19 23 -9 21 -9 21
-17 2 -8 -21 -29 -45 -38 -45 -4 0 -5 10 -3 23 2 12 2 16 0 10 -3 -7 -11 -13
-19 -13 -8 0 -14 -10 -14 -25 0 -24 -2 -25 -65 -25 -37 0 -65 -4 -65 -10 0 -5
-18 -10 -40 -10 l-40 0 0 -43 c0 -37 -4 -46 -26 -55 -18 -9 -24 -17 -19 -31 4
-14 0 -21 -14 -26 -12 -3 -26 -3 -31 0 -15 9 -40 -14 -40 -37 0 -10 -7 -21
-15 -24 -13 -5 -15 -213 -15 -1715 l0 -1709 3124 0 c2967 0 3125 1 3129 18 4
16 5 16 6 0 0 -10 5 -18 10 -18 5 0 12 8 14 18 4 16 5 16 6 0 1 -24 48 -24 54
-1 4 17 5 17 6 1 1 -16 15 -18 146 -18 122 0 145 2 145 15 0 8 -7 15 -15 15
-18 0 -22 76 -4 82 17 6 -23 77 -43 78 -10 0 -18 -6 -18 -14 0 -8 -7 -16 -15
-20 -10 -4 -15 1 -15 14 0 11 6 20 14 20 8 0 16 4 18 9 5 14 78 25 78 12 0 -6
8 -11 19 -11 13 0 17 -6 14 -23 -2 -12 -7 -57 -11 -99 -7 -64 -6 -78 6 -78 8
0 12 6 8 15 -3 9 0 15 9 15 8 0 15 -7 15 -15 0 -11 12 -15 45 -15 l44 0 -5 53
c-6 51 -28 97 -52 105 -7 2 -12 -7 -12 -22 0 -14 -4 -26 -10 -26 -5 0 -10 18
-10 40 0 33 3 40 20 40 20 0 25 15 14 44 -3 8 -11 13 -18 10 -7 -3 -19 2 -26
11 -11 13 -9 15 9 15 11 0 21 5 21 10 0 15 -77 12 -83 -2 -3 -7 -6 6 -6 30 -1
30 -5 42 -16 42 -17 0 -21 46 -6 69 6 10 11 6 19 -15 6 -16 11 -21 11 -12 1 9
7 19 14 22 10 5 10 7 0 12 -7 3 -13 12 -13 20 0 10 -12 14 -40 14 -31 0 -40
-4 -41 -17 -1 -10 -5 0 -10 21 -10 44 -8 49 23 51 30 2 46 30 32 52 -8 12 -8
27 -2 46 11 29 23 35 31 15 3 -7 6 -1 6 15 1 17 6 27 16 27 11 0 15 11 15 40
0 41 -21 57 -34 25 -7 -19 -26 -19 -26 0 0 8 7 15 15 15 11 0 15 11 15 40 0
22 -4 40 -10 40 -5 0 -10 18 -10 40 0 33 -3 40 -20 40 -17 0 -20 -7 -20 -40 0
-23 -5 -40 -11 -40 -8 0 -10 -17 -5 -57 13 -98 15 -193 5 -193 -5 0 -9 -9 -9
-21 0 -14 -5 -19 -17 -17 -23 4 -31 48 -9 48 12 0 13 5 7 22 -12 32 -29 34
-41 4 -12 -32 -35 -35 -26 -3 3 12 6 32 6 44 0 20 4 22 30 17 36 -8 36 -6 9
40 -20 35 -20 36 -2 36 10 0 24 -5 31 -12 9 -9 12 -9 12 0 0 7 -4 12 -10 12
-5 0 -17 17 -25 37 -9 21 -21 40 -27 44 -15 9 -1 79 16 79 8 0 16 -7 20 -15
15 -39 23 -6 19 80 -2 61 0 95 7 95 5 0 10 21 9 48 0 26 -3 41 -6 35 -6 -15
-71 -17 -93 -3 -12 7 -12 12 -2 22 9 9 12 9 12 -5 0 -11 8 -17 24 -17 19 0 27
8 36 35 6 19 16 35 21 35 5 0 9 4 9 10 0 5 -7 7 -15 4 -10 -4 -15 0 -15 14 0
11 -8 22 -20 25 -26 7 -26 37 0 37 14 0 19 6 17 21 -1 12 4 24 11 26 7 3 12
-5 12 -21 0 -31 4 -32 30 -6 28 28 26 44 -5 36 -14 -4 -25 -3 -25 1 0 5 -18 8
-40 8 -41 0 -52 -8 -25 -19 22 -8 19 -23 -10 -48 -14 -12 -25 -28 -25 -35 0
-23 -34 -14 -47 12 -10 23 -9 25 13 25 21 0 24 4 24 40 0 22 6 49 12 60 10 15
10 25 2 38 -8 13 -8 31 3 71 7 30 12 59 10 64 -6 19 -77 -93 -77 -122 0 -30
-3 -30 -77 -15 -26 5 -31 24 -7 24 15 0 15 2 0 22 -9 13 -19 31 -23 41 -3 9
-11 17 -17 17 -9 0 -12 19 -11 63 1 38 -3 70 -12 82 -8 12 -13 15 -13 6 0 -8
-2 -12 -5 -9 -3 3 2 22 10 42 19 45 12 74 -20 82 -30 7 -47 -3 -41 -24 3 -10
-1 -28 -9 -42 -13 -23 -14 -21 -15 43 0 63 2 68 19 62 11 -3 22 -1 26 5 4 6
-4 10 -19 10 -21 0 -26 5 -26 25 0 31 -13 32 -37 2 -10 -12 -30 -28 -45 -34
-30 -13 -38 -43 -13 -43 8 0 15 -7 15 -15 0 -10 10 -15 30 -15 33 0 37 -12 16
-48 l-13 -24 -46 46 c-25 25 -50 46 -56 46 -6 0 -11 7 -11 15 0 23 -80 21 -81
-2 0 -12 -6 -6 -16 15 -9 17 -19 32 -23 32 -4 0 -14 -15 -23 -32 -10 -21 -16
-27 -16 -15 -1 9 -9 17 -19 17 -10 0 -28 7 -40 16 -21 14 -22 14 -22 -10 0
-18 5 -26 18 -26 10 0 27 -7 38 -15 18 -14 18 -14 -8 -15 -23 0 -28 -5 -28
-24 0 -13 -3 -31 -6 -40 -3 -9 -1 -16 4 -16 6 0 14 16 18 35 6 36 18 45 27 22
4 -10 18 -12 56 -7 60 8 76 1 66 -29 -5 -17 -2 -21 14 -21 30 0 26 -12 -13
-48 l-34 -31 -7 39 c-6 37 -25 57 -25 28 0 -7 -5 -20 -10 -28 -9 -13 -11 -13
-20 0 -8 12 -10 9 -10 -12 0 -16 5 -28 10 -28 6 0 10 -18 10 -40 0 -29 -4 -40
-15 -40 -11 0 -15 11 -15 40 0 29 -4 40 -15 40 -11 0 -15 -11 -15 -40 0 -22
-4 -40 -10 -40 -5 0 -10 18 -10 40 0 39 -1 40 -35 40 -19 0 -35 4 -35 10 0 5
7 7 16 3 22 -8 35 16 22 41 -8 15 -8 21 1 24 6 2 11 13 11 24 0 27 -22 18 -38
-15 -18 -37 -42 -35 -42 3 0 17 -5 30 -11 30 -7 0 -9 -11 -6 -26 6 -34 -13
-94 -29 -94 -13 0 -12 35 2 79 2 7 -1 20 -7 27 -9 11 -8 14 2 14 18 0 51 118
35 123 -6 2 -5 6 2 11 7 4 12 2 12 -3 0 -6 5 -11 10 -11 16 0 12 19 -11 51
-11 16 -16 29 -10 29 15 0 13 30 -3 59 l-13 24 -7 -27 c-7 -30 -26 -26 -26 5
0 10 -6 19 -12 19 -7 0 -2 7 10 16 31 21 18 36 -24 28 -30 -6 -36 -3 -41 15
-3 11 -12 21 -19 21 -9 0 -14 12 -14 37 0 20 -3 33 -7 29 -11 -11 -12 -66 -2
-66 5 0 9 -10 9 -23 0 -13 8 -32 19 -43 10 -11 23 -49 30 -85 6 -35 13 -75 16
-88 5 -29 -10 -61 -30 -61 -18 0 -20 -17 -2 -23 9 -3 9 -9 -1 -27 -15 -25 -15
-25 15 -34 17 -6 22 -2 26 16 4 22 4 22 6 -2 1 -21 -6 -27 -36 -37 -55 -17
-83 -1 -83 48 0 29 5 39 20 44 32 10 23 25 -15 25 -35 0 -47 -13 -22 -24 6 -4
1 -4 -13 -1 -14 2 -33 5 -42 5 -13 0 -18 8 -18 30 0 25 4 30 25 30 16 0 25 6
25 15 0 8 17 22 38 30 32 13 40 23 51 60 16 54 10 65 -35 65 -33 0 -34 -1 -34
-40 0 -40 -15 -55 -23 -22 -4 16 -5 16 -6 0 -1 -12 -9 -18 -26 -18 -30 0 -35
33 -8 62 15 17 15 18 -4 18 -22 0 -33 -18 -33 -52 0 -14 -5 -18 -16 -14 -9 3
-27 9 -40 12 -29 7 -31 29 -4 44 15 8 20 21 20 50 0 33 3 40 20 40 12 0 20 -7
20 -16 0 -13 3 -14 14 -5 17 15 4 71 -26 114 -15 21 -18 31 -9 40 19 19 12 27
-24 24 -33 -2 -35 -4 -35 -39 0 -33 -3 -38 -22 -38 -20 0 -23 -5 -23 -37 0
-27 -5 -38 -15 -39 -8 -1 -20 -2 -27 -3 -6 0 -14 -18 -16 -38 -3 -21 -3 8 -2
63 3 104 -6 150 -19 97 -7 -27 -8 -27 -22 -9 -8 12 -14 15 -14 7 0 -11 -3 -11
-15 -1 -22 18 -18 40 6 40 17 0 20 4 15 23 -3 12 -6 30 -6 40 0 9 -7 17 -15
17 -11 0 -15 -11 -15 -40 0 -30 -4 -40 -16 -40 -11 0 -14 -6 -10 -20 3 -11 9
-29 12 -40 4 -15 1 -20 -15 -20 -19 0 -21 -6 -21 -72 -1 -71 -1 -72 -16 -45
-12 22 -13 35 -5 58 9 27 8 31 -17 41 l-27 11 25 7 c25 8 24 8 -7 15 -23 5
-33 13 -33 26 0 29 -20 22 -33 -11 -7 -17 -19 -30 -28 -30 -10 0 -19 -7 -21
-17 -3 -15 -4 -15 -17 0 -11 15 -11 17 2 17 19 0 32 50 28 113 -3 45 10 64 23
32 3 -8 10 -15 16 -15 5 0 10 7 10 15 0 8 -4 15 -9 15 -5 0 -11 10 -15 23 -6
22 -6 21 -21 -7 -8 -15 -15 -48 -15 -73 0 -36 -5 -49 -25 -65 -14 -11 -25 -25
-25 -32 0 -7 -9 -21 -20 -31 -16 -15 -22 -15 -35 -5 -21 18 -19 30 8 31 19 0
18 2 -10 16 -18 9 -33 19 -33 23 0 4 15 14 33 23 l32 16 -42 0 -43 1 0 40 c0
44 26 58 32 18 2 -15 11 -24 26 -26 18 -3 22 1 22 22 0 16 6 26 15 26 11 0 15
11 15 40 0 29 -4 40 -15 40 -12 0 -15 16 -15 80 0 73 -2 80 -20 80 -16 0 -20
7 -20 34 0 18 -7 53 -15 77 -10 28 -12 45 -5 47 17 6 13 82 -5 82 -18 0 -19
12 -3 28 9 9 9 15 0 24 -16 16 -15 28 3 28 17 0 20 16 4 25 -6 4 -15 17 -20
29 -7 16 -8 14 -3 -11 4 -27 2 -33 -12 -33 -9 0 -22 7 -29 17 -7 9 -17 13 -24
9 -9 -6 -9 -11 0 -22 8 -10 8 -14 0 -14 -6 0 -11 -17 -11 -40 0 -30 4 -40 16
-40 9 0 14 -5 12 -12 -6 -18 -28 -21 -28 -4 0 9 -7 16 -15 16 -9 0 -15 -9 -15
-25 0 -25 0 -26 -65 -19 -46 5 -65 3 -65 -5 0 -6 17 -11 40 -11 22 0 40 -4 40
-10 0 -17 51 -11 80 10 26 18 29 19 41 3 11 -13 11 -17 1 -20 -6 -3 -12 -19
-12 -36 0 -29 -1 -30 -15 -11 -13 17 -14 17 -15 2 0 -14 -9 -18 -40 -18 -38 0
-40 2 -40 30 0 30 0 30 -56 30 -35 0 -53 -4 -49 -10 4 -6 11 -8 16 -5 5 4 9
-8 9 -25 0 -17 -4 -29 -9 -26 -15 9 -29 -17 -38 -69 l-9 -50 -13 38 c-12 34
-15 37 -52 37 -36 0 -39 2 -39 29 0 16 -6 32 -12 35 -10 5 -10 7 0 12 19 9 14
34 -7 34 -14 0 -18 5 -14 19 6 22 -14 38 -29 23 -8 -8 -4 -22 11 -47 17 -30
19 -39 8 -55 -6 -11 -17 -20 -24 -20 -7 0 -13 -12 -14 -27 l0 -28 -10 25 c-6
14 -12 62 -13 108 -3 71 -1 82 13 82 10 0 22 -5 29 -12 9 -9 15 -9 24 0 9 9 7
12 -12 12 -23 0 -24 1 -6 18 16 16 18 16 37 -7 l19 -23 0 47 c0 47 0 48 -20
30 -19 -17 -21 -17 -40 0 -18 16 -27 17 -60 8 -30 -8 -40 -7 -40 2 0 6 -9 20
-20 30 -14 12 -17 22 -11 34 6 10 4 31 -5 56 -7 22 -14 41 -14 43 0 1 9 2 20
2 12 0 20 -7 20 -16 0 -13 3 -14 15 -4 22 18 -5 40 -49 40 -35 0 -47 -12 -26
-25 6 -3 10 -22 10 -42 0 -35 -1 -35 -32 -29 -18 3 -28 3 -23 -2 16 -12 36
-77 25 -80 -13 -5 -13 -82 0 -82 6 0 10 -7 10 -15 0 -11 -11 -15 -40 -15 -25
0 -40 -5 -40 -12 -1 -8 -6 -6 -14 5 -19 24 -23 22 -30 -18 -4 -19 -13 -35 -20
-35 -11 0 -11 9 -3 45 9 40 13 45 39 45 l28 0 0 78 -1 77 -39 27 -40 28 0 -25
c0 -19 5 -25 23 -26 l22 0 -22 -9 c-28 -11 -29 -21 -3 -38 11 -7 20 -19 20
-27 0 -8 6 -24 12 -35 15 -24 -4 -52 -22 -34 -6 6 -33 9 -60 6 -35 -3 -50 -1
-50 7 0 7 -10 11 -22 9 -30 -4 -30 -32 -1 -36 20 -3 21 -6 10 -24 -9 -16 -9
-22 1 -25 21 -8 13 -33 -10 -33 -49 1 -64 28 -60 108 l2 32 80 0 c72 0 80 2
80 19 0 22 -31 81 -42 81 -5 0 -8 18 -8 39 0 37 2 40 32 43 l32 3 -28 15 c-40
21 -60 4 -64 -54 -2 -27 1 -46 7 -46 6 0 11 -18 11 -40 0 -22 -4 -40 -10 -40
-5 0 -10 7 -10 16 0 8 -5 12 -11 9 -5 -4 -15 7 -22 24 -12 32 -37 43 -37 16 0
-13 -2 -14 -14 -3 -8 7 -10 15 -5 16 5 2 9 7 9 12 0 5 12 22 28 38 45 49 52
60 52 83 0 21 -1 21 -37 -7 -21 -15 -41 -33 -45 -38 -13 -18 -29 16 -24 47 3
15 1 27 -4 27 -6 0 -15 11 -20 25 -8 22 -15 25 -60 25 -38 0 -50 4 -50 15 0 9
9 15 21 15 18 0 19 2 9 15 -7 8 -18 15 -25 15 -7 0 -18 7 -25 15 -7 8 -23 15
-36 15 -19 0 -24 -5 -24 -24 0 -14 5 -28 10 -31 6 -3 10 -24 10 -46 0 -22 5
-39 11 -39 8 0 9 -24 4 -80 -5 -56 -4 -80 4 -80 6 0 11 -7 11 -15 0 -8 -4 -15
-10 -15 -5 0 -10 7 -10 15 0 8 -6 15 -14 15 -8 0 -16 5 -18 11 -3 8 -10 8 -26
-2 -20 -12 -24 -12 -32 1 -6 8 -9 24 -7 35 2 17 -3 19 -45 16 -29 -1 -48 2
-48 8 0 6 16 11 36 11 25 0 41 7 55 23 21 25 24 37 8 37 -21 0 -39 29 -39 64
0 25 -4 36 -15 36 -11 0 -15 11 -15 40 0 29 -4 40 -15 40 -8 0 -15 -7 -15 -15
0 -8 -7 -15 -15 -15 -9 0 -18 -7 -21 -15 -11 -27 -50 -18 -64 15 -16 38 -23
38 -43 -2 -10 -21 -16 -27 -16 -15 -1 9 -9 17 -18 18 -14 0 -15 2 -3 6 35 14
41 61 10 81 -17 10 -23 9 -40 -8 -11 -11 -20 -27 -20 -35 0 -30 -28 -14 -34
20 -8 42 -23 53 -41 29 -12 -17 -13 -12 -8 36 3 30 10 58 15 61 5 3 3 9 -6 12
-29 11 -17 34 24 46 38 11 39 12 27 38 -11 26 -12 26 -15 5 -2 -16 -10 -22
-28 -22 -13 0 -24 -5 -24 -11 0 -5 -5 -7 -11 -3 -8 5 -8 9 1 14 7 4 13 27 14
52 1 24 6 50 10 57 6 9 4 12 -5 9 -8 -3 -14 -19 -14 -39 0 -41 -23 -79 -48
-79 -24 0 -50 -27 -41 -41 4 -8 9 -7 16 2 7 10 8 1 4 -26 -3 -22 -6 -52 -6
-67 0 -31 -24 -39 -34 -12 -13 34 -7 64 14 64 11 0 20 5 20 11 0 6 -7 9 -15 5
-19 -7 -65 10 -65 24 0 5 7 10 15 10 11 0 15 11 14 38 0 29 -2 33 -9 17 -4
-12 -15 -27 -24 -34 -9 -7 -16 -22 -16 -32 0 -11 -5 -19 -10 -19 -6 0 -10 7
-8 16 2 10 -3 19 -9 21 -8 3 -13 -4 -13 -16 0 -11 -4 -23 -10 -26 -5 -3 -10
-14 -10 -25 0 -10 -7 -21 -16 -24 -10 -4 -14 -14 -11 -26 4 -17 0 -20 -24 -20
-26 0 -29 4 -29 30 0 17 -4 30 -9 30 -5 0 -21 -13 -34 -30 -14 -16 -28 -30
-31 -30 -3 0 -6 19 -6 41 l0 42 51 -5 c29 -3 45 -2 38 2 -19 11 -90 14 -112 5
-9 -4 -28 -4 -41 -1 -32 8 -56 -2 -56 -23 0 -10 -3 -20 -6 -24 -10 -10 -54 15
-54 30 0 8 -13 28 -30 45 -16 16 -30 34 -30 39 0 5 21 10 48 11 l47 1 -45 4
c-24 3 -48 10 -52 16 -5 8 -8 7 -8 -5 0 -9 -6 -18 -12 -21 -10 -3 -8 -9 5 -24
9 -11 17 -27 17 -36 0 -9 5 -17 10 -17 6 0 10 -7 10 -15 0 -8 -4 -15 -10 -15
-5 0 -10 7 -10 15 0 27 -16 16 -29 -21 -12 -34 -14 -35 -32 -18 -18 16 -19 16
-19 -4 0 -20 -5 -22 -70 -22 l-70 0 0 -36 c0 -36 -23 -73 -35 -54 -3 5 -1 10
4 10 6 0 11 7 11 15 0 25 -23 65 -37 65 -9 0 -12 7 -7 24 3 14 -2 37 -12 57
-14 26 -19 30 -22 17 -2 -10 -10 -18 -18 -18 -10 0 -14 12 -14 40 0 32 4 40
18 40 15 0 17 6 14 36 -4 29 -1 36 17 41 26 7 26 14 1 44 -19 23 -19 23 -20 3
0 -31 -20 -44 -67 -44 l-43 0 0 40 c0 39 -1 40 -35 40 -33 0 -35 -2 -37 -32
-7 -152 -6 -159 8 -165 18 -7 19 -63 1 -63 -22 0 -58 45 -51 63 3 10 1 17 -5
17 -6 0 -11 -13 -11 -30 0 -16 -4 -30 -10 -30 -15 0 -12 77 3 83 6 3 -7 6 -30
6 -31 1 -43 5 -43 16 0 11 11 15 40 15 29 0 40 4 40 15 0 10 -10 15 -34 15
-19 0 -41 3 -50 6 -13 5 -16 -2 -16 -35 0 -37 2 -41 25 -41 23 0 25 -4 25 -40
0 -29 -4 -40 -15 -40 -8 0 -15 5 -15 10 0 6 -8 10 -18 10 -9 0 -23 9 -30 20
-17 27 -32 25 -32 -4 0 -24 16 -36 51 -36 22 0 23 -1 7 -35 -15 -33 -23 -32
-38 5 -19 45 -30 36 -30 -24 0 -30 -5 -58 -10 -61 -6 -4 -10 17 -10 54 0 54
-2 61 -20 61 -16 0 -20 -7 -21 -37 0 -21 -4 -47 -9 -58 -8 -20 -9 -19 -9 1 -1
31 -27 50 -45 34 -8 -6 -17 -21 -19 -33 -3 -15 -5 -12 -6 11 -1 31 -3 32 -41
32 -29 0 -40 -4 -40 -15 0 -8 -7 -15 -17 -15 -15 0 -15 1 0 18 21 23 21 30 0
34 -9 2 -27 -7 -40 -20 -13 -13 -29 -22 -36 -19 -20 6 -21 40 -1 54 17 12 16
13 -4 13 -12 0 -31 -9 -42 -20 l-20 -20 20 -20 c11 -11 29 -20 40 -20 20 0 20
0 0 -20 -11 -11 -20 -24 -20 -30 0 -5 -9 -10 -19 -10 -11 0 -22 -6 -24 -12 -3
-7 -6 6 -6 30 -1 48 -21 59 -21 11 0 -41 32 -129 46 -129 14 0 39 56 37 82 -1
10 5 18 13 18 8 0 14 5 14 10 0 12 37 13 44 1 3 -5 -1 -14 -9 -21 -9 -7 -15
-29 -15 -51 0 -22 -4 -39 -10 -39 -5 0 -10 -11 -10 -25 0 -22 -4 -25 -40 -25
-22 0 -40 5 -40 10 0 6 -18 10 -40 10 -29 0 -40 4 -40 15 0 8 9 15 20 15 37 0
21 42 -25 66 -22 11 -30 12 -36 3 -10 -16 -119 91 -119 117 0 17 -1 17 -17 1
-14 -13 -15 -20 -6 -25 16 -10 -4 -82 -23 -82 -17 0 -48 49 -54 85 -8 45 -46
60 -99 39 -35 -14 -41 -20 -41 -46 0 -16 7 -36 15 -44 8 -9 15 -20 15 -25 0
-5 -7 -9 -15 -9 -8 0 -15 -4 -15 -10 0 -5 -11 -10 -25 -10 -23 0 -25 3 -25 49
0 30 5 51 13 54 9 4 9 7 0 18 -11 11 -16 9 -28 -7 -14 -19 -14 -19 -15 1 -1
20 -1 20 -15 1 -13 -17 -13 -22 2 -38 16 -18 15 -20 -5 -41 l-22 -21 -22 21
c-21 22 -21 23 -3 43 10 11 14 20 9 20 -17 0 -15 162 1 187 9 13 15 46 15 78
0 48 -2 55 -20 55 -14 0 -20 -7 -20 -22 -1 -35 -24 -58 -59 -58 -30 0 -31 -1
-31 -42 l0 -43 19 24 c19 24 41 22 41 -5 0 -8 7 -14 15 -14 8 0 15 -7 15 -17
0 -15 -1 -15 -18 0 -23 21 -30 21 -34 0 -2 -9 7 -27 18 -38 15 -15 20 -30 17
-48 -3 -16 -1 -27 6 -27 6 0 11 -11 11 -25 0 -15 -6 -25 -14 -25 -13 0 -30 17
-31 30 -1 17 -29 70 -37 70 -6 0 -8 -20 -6 -45 2 -35 0 -44 -10 -40 -8 3 -22
5 -33 5 -16 0 -19 7 -19 40 0 30 4 40 16 40 14 0 15 11 10 83 -4 45 -9 99 -12
120 -4 23 -2 37 5 37 6 0 11 -18 11 -40 0 -44 14 -53 24 -17 7 20 8 20 15 4 6
-17 8 -16 19 8 7 14 12 36 12 49 0 24 -25 65 -31 50z m-159 -124 c0 -5 -5 -10
-11 -10 -5 0 -7 5 -4 10 3 6 8 10 11 10 2 0 4 -4 4 -10z m-163 -32 c-3 -8 -6
-5 -6 6 -1 11 2 17 5 13 3 -3 4 -12 1 -19z m63 13 c0 -5 -6 -14 -14 -20 -12
-10 -17 -8 -26 8 -9 19 -8 21 15 21 14 0 25 -4 25 -9z m150 -88 c0 -22 -21
-25 -27 -4 -4 15 -13 21 -34 21 -24 0 -29 4 -29 25 l0 25 45 -28 c25 -15 45
-32 45 -39z m-217 -60 c-7 -2 -19 -2 -25 0 -7 3 -2 5 12 5 14 0 19 -2 13 -5z
m2362 -34 c4 -6 -2 -13 -14 -16 -12 -3 -21 -10 -21 -17 0 -6 -5 -4 -10 5 -5 8
-7 25 -3 37 4 17 9 20 24 12 10 -6 21 -15 24 -21z m290 10 c5 -15 2 -25 -9
-31 -17 -10 -22 -48 -6 -48 6 0 10 -9 10 -20 0 -17 7 -20 40 -20 22 0 40 -4
40 -10 0 -5 -20 -10 -45 -10 -77 0 -98 36 -79 133 7 33 39 37 49 6z m-1010
-19 c0 -8 -8 -16 -17 -18 -13 -2 -18 3 -18 18 0 15 5 20 18 18 9 -2 17 -10 17
-18z m1155 -25 c-17 -21 -30 -19 -30 4 0 11 8 21 18 23 22 5 27 -8 12 -27z
m-2623 -7 c-3 -8 -6 -5 -6 6 -1 11 2 17 5 13 3 -3 4 -12 1 -19z m1561 2 c27 0
32 -3 32 -25 0 -30 -15 -32 -32 -5 -8 12 -24 20 -40 20 -24 0 -28 -4 -28 -30
0 -38 -16 -39 -23 -2 -7 34 10 55 37 48 12 -3 36 -6 54 -6z m-274 -25 c-4 -8
-8 -15 -10 -15 -2 0 -4 7 -4 15 0 8 4 15 10 15 5 0 7 -7 4 -15z m406 11 c0 -2
-3 -11 -6 -20 -5 -13 -8 -13 -20 -1 -19 19 -18 25 6 25 11 0 20 -2 20 -4z
m257 -58 c-2 -13 -4 -3 -4 22 0 25 2 35 4 23 2 -13 2 -33 0 -45z m164 -38 c22
0 39 -4 39 -10 0 -5 -16 -10 -35 -10 -47 0 -85 34 -85 75 0 52 13 50 28 -4 14
-50 15 -51 53 -51z m-1927 64 c24 -9 9 -24 -24 -24 -33 0 -49 16 -23 23 28 7
30 7 47 1z m1966 -9 c0 -11 -11 -15 -40 -15 -29 0 -40 4 -40 15 0 11 11 15 40
15 29 0 40 -4 40 -15z m-2164 -32 c-10 -10 -19 5 -10 18 6 11 8 11 12 0 2 -7
1 -15 -2 -18z m1174 12 c0 -8 -4 -15 -10 -15 -5 0 -10 7 -10 15 0 8 5 15 10
15 6 0 10 -7 10 -15z m190 -12 c0 -21 -3 -24 -9 -14 -5 8 -7 20 -4 28 8 21 13
15 13 -14z m260 7 c0 -5 -4 -10 -10 -10 -5 0 -10 5 -10 10 0 6 5 10 10 10 6 0
10 -4 10 -10z m-1292 -30 c13 -21 8 -45 -8 -35 -5 3 -12 0 -16 -6 -3 -6 -1
-14 5 -18 9 -6 9 -15 1 -35 -13 -34 -13 -46 0 -46 6 0 10 10 10 23 1 20 1 21
11 4 6 -10 8 -28 5 -40 -5 -20 -11 -22 -51 -19 -44 4 -45 5 -45 37 0 20 6 35
15 39 9 3 15 18 15 34 0 16 7 35 15 42 8 7 15 19 15 26 0 20 13 17 28 -6z
m182 -20 c0 -29 -4 -40 -15 -40 -11 0 -15 11 -15 40 0 29 4 40 15 40 11 0 15
-11 15 -40z m57 -22 c-2 -13 -4 -3 -4 22 0 25 2 35 4 23 2 -13 2 -33 0 -45z
m550 0 c-2 -13 -4 -3 -4 22 0 25 2 35 4 23 2 -13 2 -33 0 -45z m153 58 c0 -2
-7 -9 -15 -16 -12 -10 -15 -10 -15 4 0 9 7 16 15 16 8 0 15 -2 15 -4z m250 -6
c0 -5 -4 -10 -9 -10 -6 0 -13 5 -16 10 -3 6 1 10 9 10 9 0 16 -4 16 -10z m844
-5 c-4 -8 -10 -12 -15 -9 -14 8 -10 24 6 24 9 0 12 -6 9 -15z m326 1 c0 -24
-22 -30 -37 -11 -12 17 -13 15 -13 -20 0 -46 -5 -43 -13 8 -6 37 -5 37 29 37
23 0 34 -5 34 -14z m-1970 -27 c0 -17 3 -19 14 -10 19 16 24 -1 18 -61 l-4
-48 -54 0 c-41 0 -54 4 -54 15 0 11 11 15 40 15 36 0 40 3 40 25 0 21 -5 25
-30 25 -36 0 -37 6 -8 37 27 29 38 29 38 2z m1207 -11 c-3 -7 -5 -2 -5 12 0
14 2 19 5 13 2 -7 2 -19 0 -25z m58 12 c0 -7 -6 -15 -12 -17 -8 -3 -13 4 -13
17 0 13 5 20 13 18 6 -3 12 -11 12 -18z m-1945 -4 c0 -8 -4 -18 -10 -21 -5 -3
-10 3 -10 14 0 12 5 21 10 21 6 0 10 -6 10 -14z m1340 -21 c0 -28 -4 -35 -20
-35 -11 0 -20 5 -20 10 0 6 5 10 10 10 6 0 10 11 10 25 0 14 5 25 10 25 6 0
10 -16 10 -35z m410 -1 c0 -8 -10 -14 -24 -14 -22 0 -23 2 -13 24 9 18 15 22
24 14 7 -6 13 -17 13 -24z m-1390 -4 c0 -5 9 -10 20 -10 23 0 26 -10 8 -28
-18 -18 -36 -15 -43 8 -3 11 -13 20 -21 20 -8 0 -14 5 -14 10 0 6 11 10 25 10
14 0 25 -4 25 -10z m1868 -2 c18 -18 15 -85 -3 -92 -11 -4 -14 -13 -9 -30 3
-13 1 -27 -5 -30 -7 -4 -11 1 -11 12 0 11 -8 23 -17 26 -10 3 -29 13 -43 21
-25 15 -25 15 18 15 l42 0 0 45 c0 46 7 54 28 33z m692 2 c0 -5 -4 -10 -10
-10 -5 0 -10 -12 -10 -27 0 -20 -3 -24 -11 -16 -15 15 -3 63 16 63 8 0 15 -4
15 -10z m-1040 -14 c0 -8 8 -17 18 -21 16 -6 16 -7 0 -16 -10 -6 -18 -21 -18
-34 0 -14 -3 -25 -7 -25 -5 0 -8 25 -8 55 0 30 3 55 8 55 4 0 7 -6 7 -14z
m-1872 -8 c-6 -18 -28 -21 -28 -4 0 9 7 16 16 16 9 0 14 -5 12 -12z m1542 -9
c-13 -23 -33 -21 -38 4 -3 12 4 17 23 17 23 0 25 -2 15 -21z m780 -23 c0 -49
-11 -62 -37 -47 -10 6 -12 11 -5 11 7 0 12 15 12 40 0 29 4 40 15 40 11 0 15
-12 15 -44z m180 40 c0 -3 -4 -8 -10 -11 -5 -3 -10 -1 -10 4 0 6 5 11 10 11 6
0 10 -2 10 -4z m640 -36 c0 -29 -4 -40 -15 -40 -11 0 -15 11 -15 40 0 29 4 40
15 40 11 0 15 -11 15 -40z m-554 -7 c-11 -11 -17 4 -9 23 7 18 8 18 11 1 2
-10 1 -21 -2 -24z m-1566 -43 c0 -62 -2 -70 -19 -70 -20 0 -36 26 -21 35 4 3
10 -1 13 -7 2 -7 6 2 9 20 4 25 1 32 -9 28 -8 -3 -12 -2 -11 2 17 36 32 62 35
62 2 0 3 -31 3 -70z m1620 66 c0 -3 -4 -8 -10 -11 -5 -3 -10 -1 -10 4 0 6 5
11 10 11 6 0 10 -2 10 -4z m-2492 -45 c3 -8 -4 -12 -19 -9 -13 1 -25 11 -27
20 -3 15 1 16 19 9 13 -4 25 -13 27 -20z m2362 -2 c0 -5 -11 -9 -25 -9 -23 0
-24 2 -15 21 9 16 14 18 26 8 8 -6 14 -15 14 -20z m300 0 c0 -5 -4 -9 -10 -9
-5 0 -10 7 -10 16 0 8 5 12 10 9 6 -3 10 -10 10 -16z m420 -2 c0 -13 5 -28 11
-34 6 -6 8 -16 5 -22 -12 -19 -24 -12 -31 19 -8 37 -20 32 -30 -12 l-7 -33
-13 40 -13 40 -1 -42 -1 -43 40 0 c29 0 40 -4 40 -15 0 -11 -11 -15 -40 -15
-37 0 -39 2 -46 35 -3 19 -3 51 0 70 7 33 9 35 46 35 35 0 40 -3 40 -23z
m-1980 3 c0 -5 -4 -10 -10 -10 -5 0 -10 5 -10 10 0 6 5 10 10 10 6 0 10 -4 10
-10z m1183 -22 c-3 -16 -11 -28 -19 -28 -10 0 -9 7 4 29 20 35 22 35 15 -1z
m-2083 -10 c0 -19 -2 -20 -10 -8 -13 19 -13 30 0 30 6 0 10 -10 10 -22z m157
-40 c-2 -13 -4 -3 -4 22 0 25 2 35 4 23 2 -13 2 -33 0 -45z m240 40 c-3 -8 -6
-5 -6 6 -1 11 2 17 5 13 3 -3 4 -12 1 -19z m763 -20 c-1 -45 -11 -38 -24 15
-5 20 -3 27 9 27 11 0 15 -11 15 -42z m254 26 c10 -26 7 -34 -14 -34 -11 0
-20 4 -20 9 0 17 12 41 20 41 4 0 11 -7 14 -16z m886 -12 c0 -15 5 -33 12 -40
9 -9 8 -12 -5 -12 -9 0 -17 4 -17 9 0 5 -3 23 -6 40 -4 20 -3 31 5 31 6 0 11
-13 11 -28z m225 -43 c0 -63 -3 -73 -20 -80 -11 -4 -14 -8 -7 -8 6 -1 12 -6
12 -12 0 -22 -30 13 -31 35 0 21 0 21 -11 -1 -6 -13 -17 -23 -25 -23 -7 0 -13
-9 -13 -20 0 -11 -4 -20 -10 -20 -13 0 -13 27 1 35 5 4 15 18 20 32 7 20 15
24 34 21 17 -4 25 -1 25 8 0 8 -4 14 -10 14 -15 0 -12 19 5 36 8 9 15 24 15
35 0 10 4 19 8 19 4 0 8 -32 7 -71z m-2071 16 c8 -21 -30 -62 -71 -76 -18 -6
-33 -15 -33 -20 0 -5 -6 -9 -14 -9 -9 0 -13 13 -13 40 0 22 3 40 8 40 4 0 10
8 12 18 3 11 5 8 6 -9 1 -35 51 -57 51 -24 0 8 4 15 9 15 5 0 13 9 16 20 8 24
21 26 29 5z m106 -5 c0 -13 -7 -20 -20 -20 -23 0 -26 10 -8 28 18 18 28 15 28
-8z m43 13 c9 -9 -13 -34 -24 -27 -14 8 -11 34 4 34 8 0 17 -3 20 -7z m-325
-20 c2 -8 -5 -13 -17 -13 -16 0 -21 -6 -21 -25 0 -15 -6 -25 -14 -25 -26 0
-30 23 -8 38 12 8 22 21 22 29 0 17 31 14 38 -4z m919 -5 c-3 -8 -6 -5 -6 6
-1 11 2 17 5 13 3 -3 4 -12 1 -19z m1023 -29 c0 -21 -4 -39 -9 -39 -11 0 -24
67 -16 80 12 20 25 -2 25 -41z m-1150 31 c0 -5 -5 -10 -11 -10 -5 0 -7 5 -4
10 3 6 8 10 11 10 2 0 4 -4 4 -10z m390 0 c0 -5 -4 -10 -10 -10 -5 0 -10 5
-10 10 0 6 5 10 10 10 6 0 10 -4 10 -10z m804 -21 c-8 -14 -24 -10 -24 6 0 9
6 12 15 9 8 -4 12 -10 9 -15z m-2244 5 c0 -14 -32 -35 -46 -30 -13 5 -14 9 -4
21 12 14 50 21 50 9z m482 -39 c2 -29 -1 -46 -9 -50 -7 -2 -13 -12 -13 -21 0
-13 -3 -14 -15 -4 -8 7 -15 19 -15 26 0 8 7 14 15 14 11 0 15 11 15 40 0 55
17 51 22 -5z m-615 19 c-3 -3 -12 -4 -19 -1 -8 3 -5 6 6 6 11 1 17 -2 13 -5z
m1073 -39 c0 -8 -4 -15 -10 -15 -5 0 -7 7 -4 15 4 8 8 15 10 15 2 0 4 -7 4
-15z m-1615 -5 c3 -5 1 -10 -4 -10 -6 0 -11 5 -11 10 0 6 2 10 4 10 3 0 8 -4
11 -10z m2492 -22 c-3 -8 -6 -5 -6 6 -1 11 2 17 5 13 3 -3 4 -12 1 -19z
m-1569 -15 c-2 -16 -8 -27 -15 -25 -7 1 -13 -5 -13 -13 0 -8 -6 -15 -13 -15
-8 0 -12 14 -12 40 0 37 1 40 28 40 25 0 28 -3 25 -27z m552 23 c0 -3 -4 -8
-10 -11 -5 -3 -10 -1 -10 4 0 6 5 11 10 11 6 0 10 -2 10 -4z m1999 -26 c-6
-16 -13 -30 -15 -30 -2 0 -4 14 -4 30 0 20 5 30 14 30 12 0 13 -6 5 -30z
m-2456 6 c7 -18 -1 -26 -25 -26 -18 0 -25 20 -11 33 11 12 31 8 36 -7z m2937
-12 c0 -8 -4 -14 -10 -14 -5 0 -10 9 -10 21 0 11 5 17 10 14 6 -3 10 -13 10
-21z m-2580 1 c0 -9 -6 -12 -15 -9 -8 4 -12 10 -9 15 8 14 24 10 24 -6z m1920
-17 c-1 -31 -1 -32 -15 -14 -19 25 -19 46 0 46 10 0 15 -10 15 -32z m-2480
-18 c0 -5 -4 -10 -10 -10 -5 0 -10 5 -10 10 0 6 5 10 10 10 6 0 10 -4 10 -10z
m400 0 c0 -5 -8 -10 -17 -10 -15 0 -16 2 -3 10 19 12 20 12 20 0z m930 0 c0
-5 -4 -10 -10 -10 -5 0 -10 5 -10 10 0 6 5 10 10 10 6 0 10 -4 10 -10z m685 0
c3 -5 1 -10 -4 -10 -6 0 -11 5 -11 10 0 6 2 10 4 10 3 0 8 -4 11 -10z m238
-20 c-3 -12 -8 -19 -11 -16 -5 6 5 36 12 36 2 0 2 -9 -1 -20z m-2333 -11 c0
-11 -4 -17 -10 -14 -5 3 -10 13 -10 21 0 8 5 14 10 14 6 0 10 -9 10 -21z m809
-84 c-6 -6 -16 -3 -26 8 -16 16 -16 17 0 17 13 0 17 10 18 43 l2 42 7 -50 c4
-27 3 -54 -1 -60z m-649 65 c0 -21 -24 -28 -35 -10 -8 14 3 30 21 30 8 0 14
-9 14 -20z m76 -7 c-10 -10 -19 5 -10 18 6 11 8 11 12 0 2 -7 1 -15 -2 -18z
m164 5 c0 -16 -3 -19 -11 -11 -6 6 -8 16 -5 22 11 17 16 13 16 -11z m-460 -24
c12 -29 6 -44 -17 -44 -11 0 -14 6 -9 25 6 24 4 25 -34 25 -36 0 -40 -2 -37
-22 2 -13 2 -17 0 -10 -3 6 -13 12 -24 12 -10 0 -19 4 -19 8 0 20 28 32 77 32
48 0 54 -3 63 -26z m2820 12 c0 -8 -4 -17 -9 -21 -12 -7 -24 12 -16 25 9 15
25 12 25 -4z m597 -13 c-3 -2 -16 -1 -29 3 l-23 8 25 6 c23 6 39 -4 27 -17z
m-3837 -3 c0 -5 -4 -10 -10 -10 -5 0 -10 5 -10 10 0 6 5 10 10 10 6 0 10 -4
10 -10z m130 -20 c0 -5 -4 -10 -9 -10 -6 0 -13 5 -16 10 -3 6 1 10 9 10 9 0
16 -4 16 -10z m830 -10 c0 -11 -4 -20 -10 -20 -5 0 -14 9 -20 20 -9 17 -8 20
10 20 13 0 20 -7 20 -20z m560 10 c0 -5 -2 -10 -4 -10 -3 0 -8 5 -11 10 -3 6
-1 10 4 10 6 0 11 -4 11 -10z m2260 6 c0 -3 -4 -8 -10 -11 -5 -3 -10 -1 -10 4
0 6 5 11 10 11 6 0 10 -2 10 -4z m540 -33 c0 -19 -3 -24 -10 -17 -6 6 -8 18
-4 27 9 24 14 21 14 -10z m-4080 7 c0 -5 18 -10 40 -10 36 0 40 -3 40 -25 0
-18 4 -23 15 -19 8 4 15 12 15 20 0 8 4 14 8 14 10 0 13 -83 4 -96 -4 -5 -16
-16 -26 -24 -18 -14 -19 -13 -13 2 4 12 2 15 -9 11 -11 -4 -14 4 -14 36 0 33
-3 41 -19 41 -15 0 -19 -10 -23 -50 -4 -35 -13 -59 -29 -76 l-23 -25 -13 23
c-7 13 -12 50 -13 82 0 48 4 64 22 83 23 24 38 30 38 13z m3544 -85 c-3 -19 1
-47 10 -70 20 -46 20 -55 2 -55 -8 0 -16 -6 -19 -12 -2 -8 -8 -9 -13 -4 -5 5
-4 11 4 13 19 7 14 40 -10 63 -12 11 -16 20 -10 20 8 0 12 18 12 51 0 45 2 50
15 39 11 -9 14 -23 9 -45z m-3157 30 c-9 -8 -18 -20 -21 -27 -5 -11 -7 -11
-12 0 -3 7 -12 19 -21 27 -13 13 -10 15 27 15 37 0 40 -2 27 -15z m-79 -28
c14 -40 15 -47 3 -47 -8 0 -31 52 -31 71 0 21 17 6 28 -24z m2729 11 c-3 -8
-6 -5 -6 6 -1 11 2 17 5 13 3 -3 4 -12 1 -19z m320 -10 c-3 -7 -5 -2 -5 12 0
14 2 19 5 13 2 -7 2 -19 0 -25z m103 17 c0 -8 -4 -15 -10 -15 -5 0 -10 7 -10
15 0 8 5 15 10 15 6 0 10 -7 10 -15z m630 -102 c10 -87 10 -118 1 -121 -6 -2
-11 -21 -11 -42 0 -22 -5 -40 -12 -42 -9 -3 -12 -25 -11 -67 2 -84 -17 -65
-21 20 -2 35 -4 79 -4 97 -3 46 -22 40 -22 -8 0 -25 -5 -40 -12 -40 -14 0 -18
57 -5 77 4 6 3 14 -3 18 -14 8 -13 35 3 68 17 38 29 34 21 -8 -4 -23 -2 -35 5
-35 6 0 11 10 12 23 1 13 6 4 13 -23 l13 -45 7 32 c8 33 -8 108 -24 118 -7 4
-7 13 0 25 5 10 10 30 10 44 0 15 6 26 13 26 10 0 17 -32 27 -117z m-3332 98
c10 -6 7 -10 -12 -13 -18 -4 -26 -1 -26 8 0 16 18 18 38 5z m1409 -33 c-3 -8
-6 -5 -6 6 -1 11 2 17 5 13 3 -3 4 -12 1 -19z m393 -8 c0 -11 -2 -20 -4 -20
-2 0 -6 9 -9 20 -3 11 -1 20 4 20 5 0 9 -9 9 -20z m-2840 -12 c12 7 20 8 20 2
0 -5 -4 -10 -9 -10 -5 0 -13 -9 -16 -20 -11 -33 -35 -24 -35 13 0 24 3 28 10
17 8 -12 13 -13 30 -2z m1080 2 c0 -5 -10 -10 -22 -9 -22 0 -22 1 -3 9 11 5
21 9 23 9 1 1 2 -3 2 -9z m2506 -6 c-3 -9 -6 -31 -6 -50 0 -46 -17 -43 -22 4
-6 45 -1 62 19 62 10 0 13 -6 9 -16z m-2186 2 c0 -2 -18 -6 -40 -8 -22 -2 -40
0 -40 4 0 5 18 8 40 8 22 0 40 -2 40 -4z m-1280 -31 c0 -15 -6 -25 -14 -25
-19 0 -28 14 -20 34 10 25 34 19 34 -9z m745 15 c-3 -5 -10 -10 -16 -10 -5 0
-9 5 -9 10 0 6 7 10 16 10 8 0 12 -4 9 -10z m355 -30 c0 -33 -3 -40 -20 -40
-17 0 -20 7 -20 40 0 33 3 40 20 40 17 0 20 -7 20 -40z m1220 30 c0 -5 -2 -10
-4 -10 -3 0 -8 5 -11 10 -3 6 -1 10 4 10 6 0 11 -4 11 -10z m960 0 c0 -5 -7
-10 -15 -10 -8 0 -15 5 -15 10 0 6 7 10 15 10 8 0 15 -4 15 -10z m722 -32 c1
-24 3 -63 3 -88 1 -39 5 -45 24 -48 13 -2 28 1 34 7 8 8 6 11 -6 11 -13 0 -17
9 -17 40 0 22 5 40 10 40 6 0 10 18 10 40 0 33 3 40 20 40 17 0 18 -3 10 -26
-15 -39 -13 -94 4 -94 11 0 15 -12 14 -41 0 -38 -2 -40 -24 -35 -32 8 -45 -21
-19 -40 17 -13 17 -15 2 -32 -12 -14 -15 -30 -10 -75 5 -53 4 -57 -16 -57 -18
0 -21 6 -21 39 0 23 -5 41 -12 44 -10 3 -8 9 5 24 21 25 22 53 1 53 -14 0 -14
3 -4 15 11 13 10 18 -3 28 -20 14 -36 197 -18 197 6 0 12 -19 13 -42z m38 2
c0 -29 -4 -40 -15 -40 -11 0 -15 11 -15 40 0 29 4 40 15 40 11 0 15 -11 15
-40z m-3686 -24 c-4 -11 -14 -16 -24 -13 -13 3 -16 0 -13 -14 5 -16 -1 -19
-36 -19 -37 0 -41 -2 -41 -25 0 -16 -6 -25 -15 -25 -12 0 -15 -18 -15 -100 0
-60 -4 -100 -10 -100 -13 0 -13 65 0 171 15 121 19 136 31 118 5 -7 9 -9 9 -4
0 13 66 38 79 30 5 -3 13 0 16 6 11 17 27 -5 19 -25z m66 24 c0 -5 -4 -10 -10
-10 -5 0 -10 5 -10 10 0 6 5 10 10 10 6 0 10 -4 10 -10z m3730 -27 c0 -7 -6
-13 -14 -13 -9 0 -12 8 -8 26 3 19 7 22 13 12 5 -7 9 -19 9 -25z m-3533 6 c8
-8 6 -20 -9 -45 -24 -40 -48 -45 -48 -9 0 14 5 25 12 25 6 0 8 3 5 7 -7 7 11
33 22 33 4 0 12 -5 18 -11z m626 -44 c-4 -35 -2 -55 5 -55 5 0 8 -9 5 -20 -7
-27 -19 -25 -27 3 -12 46 -3 127 14 127 5 0 6 -25 3 -55z m1924 33 c-3 -8 -6
-5 -6 6 -1 11 2 17 5 13 3 -3 4 -12 1 -19z m-2667 -48 c0 -22 -4 -40 -10 -40
-5 0 -10 18 -10 40 0 22 5 40 10 40 6 0 10 -18 10 -40z m556 -27 c21 -21 17
-35 -6 -21 -15 10 -20 23 -19 53 2 33 3 35 6 11 3 -16 11 -35 19 -43z m-1136
17 c0 -20 -5 -30 -15 -30 -11 0 -15 -11 -15 -40 0 -36 -2 -40 -25 -40 -22 0
-25 4 -25 35 0 26 9 45 32 70 38 43 48 44 48 5z m48 18 c-6 -18 -28 -21 -28
-4 0 9 7 16 16 16 9 0 14 -5 12 -12z m1187 -38 c3 -5 -3 -10 -14 -10 -13 0
-21 -7 -21 -17 0 -9 -3 -14 -6 -10 -3 3 -3 15 1 26 7 22 29 28 40 11z m-212
-7 c-13 -2 -33 -2 -45 0 -13 2 -3 4 22 4 25 0 35 -2 23 -4z m2962 0 c-11 -3
-25 -12 -31 -21 -12 -17 -114 -27 -114 -11 0 5 19 12 43 16 l42 8 -45 6 c-34
5 -24 6 40 6 47 1 76 -2 65 -4z m-3070 -13 c-3 -5 -12 -7 -20 -3 -21 7 -19 13
6 13 11 0 18 -4 14 -10z m365 0 c0 -5 -4 -10 -10 -10 -5 0 -10 5 -10 10 0 6 5
10 10 10 6 0 10 -4 10 -10z m3110 -30 c0 -22 -4 -40 -10 -40 -5 0 -10 18 -10
40 0 22 5 40 10 40 6 0 10 -18 10 -40z m-3960 10 c0 -11 -7 -20 -15 -20 -15 0
-21 21 -8 33 12 13 23 7 23 -13z m3220 -10 c0 -16 -4 -30 -10 -30 -5 0 -10 14
-10 30 0 17 5 30 10 30 6 0 10 -13 10 -30z m-2650 -7 c0 -20 -44 -13 -48 8 -2
13 3 15 23 12 14 -3 25 -12 25 -20z m3040 -9 c0 -17 -5 -24 -20 -24 -22 0 -27
29 -8 48 16 16 28 6 28 -24z m-4020 7 c0 -11 -4 -23 -10 -26 -6 -4 -10 5 -10
19 0 14 5 26 10 26 6 0 10 -9 10 -19z m2490 -22 c0 -11 -4 -17 -10 -14 -5 3
-10 15 -10 26 0 11 5 17 10 14 6 -3 10 -15 10 -26z m993 17 c24 -18 21 -26 -8
-26 -18 0 -25 5 -25 20 0 23 8 25 33 6z m367 -22 c0 -2 -7 -4 -15 -4 -8 0 -15
4 -15 10 0 5 7 7 15 4 8 -4 15 -8 15 -10z m-4160 -14 c0 -5 -7 -10 -15 -10 -8
0 -15 5 -15 10 0 6 7 10 15 10 8 0 15 -4 15 -10z m4690 -25 c0 -27 -2 -28 -49
-19 -36 7 -41 31 -8 37 50 10 57 8 57 -18z m-4477 -68 c-3 -4 1 -15 9 -24 7
-9 14 -26 15 -37 1 -12 5 -33 9 -48 3 -16 2 -28 -3 -28 -11 0 -33 44 -33 65 0
8 -7 15 -15 15 -17 0 -19 18 -6 54 7 16 7 26 0 28 -7 2 -6 14 3 33 l13 29 6
-40 c4 -21 5 -43 2 -47z m1217 34 c0 -6 -4 -11 -9 -11 -5 0 -12 -8 -14 -17 -2
-10 -3 -6 -1 9 2 17 -2 28 -14 33 -13 5 -14 8 -3 15 15 9 41 -10 41 -29z m227
17 c-3 -8 -6 -5 -6 6 -1 11 2 17 5 13 3 -3 4 -12 1 -19z m70 0 c-3 -8 -6 -5
-6 6 -1 11 2 17 5 13 3 -3 4 -12 1 -19z m2823 -13 c0 -8 -5 -15 -12 -17 -9 -3
-8 -15 1 -49 17 -61 18 -81 4 -86 -9 -3 -13 6 -13 26 0 24 -4 31 -20 31 -17 0
-20 7 -20 40 0 22 4 40 9 40 5 0 12 12 15 26 6 21 9 24 21 14 8 -7 15 -18 15
-25z m-3030 1 c0 -8 -7 -16 -15 -20 -10 -4 -15 1 -15 14 0 11 7 20 15 20 8 0
15 -6 15 -14z m-285 -6 c3 -5 -3 -10 -15 -10 -12 0 -18 5 -15 10 3 6 10 10 15
10 5 0 12 -4 15 -10z m357 -5 c0 -5 -5 -11 -11 -13 -6 -2 -11 4 -11 13 0 9 5
15 11 13 6 -2 11 -8 11 -13z m-799 -24 c-6 -22 -29 -35 -38 -21 -9 15 6 40 25
40 13 0 17 -6 13 -19z m3577 -21 c0 -29 -4 -40 -15 -40 -11 0 -15 11 -15 40 0
29 4 40 15 40 11 0 15 -11 15 -40z m87 -22 c-2 -13 -4 -3 -4 22 0 25 2 35 4
23 2 -13 2 -33 0 -45z m-201 -16 c-11 -10 -15 4 -8 28 l7 25 3 -23 c2 -13 1
-26 -2 -30z m31 26 c-3 -8 -6 -5 -6 6 -1 11 2 17 5 13 3 -3 4 -12 1 -19z
m-3737 -18 c0 -5 -4 -10 -10 -10 -5 0 -10 5 -10 10 0 6 5 10 10 10 6 0 10 -4
10 -10z m60 0 c0 -5 -4 -10 -10 -10 -5 0 -10 5 -10 10 0 6 5 10 10 10 6 0 10
-4 10 -10z m640 -2 c0 -5 -13 -8 -30 -8 -16 0 -30 4 -30 10 0 5 13 8 30 7 16
-1 30 -5 30 -9z m245 -8 c-3 -5 -12 -10 -18 -10 -7 0 -6 4 3 10 19 12 23 12
15 0z m-1325 -8 c0 -10 -22 -32 -32 -32 -4 0 -8 9 -8 20 0 13 7 20 20 20 11 0
20 -4 20 -8z m3960 -8 c0 -8 -4 -12 -10 -9 -5 3 -10 10 -10 16 0 5 5 9 10 9 6
0 10 -7 10 -16z m200 6 c0 -5 -2 -10 -4 -10 -3 0 -8 5 -11 10 -3 6 -1 10 4 10
6 0 11 -4 11 -10z m-2645 -30 c0 -8 -8 -16 -17 -18 -13 -2 -18 3 -18 18 0 15
5 20 18 18 9 -2 17 -10 17 -18z m-1319 -37 c-10 -10 -19 5 -10 18 6 11 8 11
12 0 2 -7 1 -15 -2 -18z m4142 9 c2 -7 -6 -12 -17 -12 -21 0 -27 11 -14 24 9
9 26 2 31 -12z m-3928 -2 c0 -5 -4 -10 -10 -10 -5 0 -10 5 -10 10 0 6 5 10 10
10 6 0 10 -4 10 -10z m4030 -25 c0 -41 -21 -46 -57 -16 -30 25 -29 31 7 31 17
0 30 5 30 10 0 6 5 10 10 10 6 0 10 -16 10 -35z m255 -49 c13 -19 14 -28 4
-50 -8 -16 -15 -22 -19 -15 -5 8 -13 7 -28 -2 -16 -10 -24 -11 -33 -2 -14 14
8 51 36 56 11 3 -4 3 -33 1 -53 -3 -54 -2 -36 17 26 29 89 26 109 -5z m-297
-3 c2 -8 -5 -13 -17 -13 -12 0 -21 6 -21 16 0 18 31 15 38 -3z m142 2 c10 -12
10 -15 -4 -15 -9 0 -16 7 -16 15 0 8 2 15 4 15 2 0 9 -7 16 -15z m-4500 -5 c0
-5 -5 -10 -11 -10 -5 0 -7 5 -4 10 3 6 8 10 11 10 2 0 4 -4 4 -10z m1067 -6
c-3 -3 -12 -4 -19 -1 -8 3 -5 6 6 6 11 1 17 -2 13 -5z m3063 -44 c0 -22 -4
-40 -10 -40 -5 0 -10 18 -10 40 0 22 5 40 10 40 6 0 10 -18 10 -40z m130 32
c0 -13 -12 -22 -22 -16 -10 6 -1 24 13 24 5 0 9 -4 9 -8z m548 -93 c-5 -92 -4
-100 12 -96 10 3 24 1 31 -3 20 -13 -8 -40 -42 -40 -27 0 -29 -2 -29 -42 0
-56 -14 -79 -29 -50 -14 26 -15 92 -1 92 6 0 10 18 10 40 0 29 4 40 15 40 11
0 15 11 15 40 0 33 -3 40 -20 40 -17 0 -20 7 -20 40 0 38 1 40 31 40 l32 0 -5
-101z m123 61 c6 -16 15 -30 20 -30 5 0 9 -5 9 -11 0 -5 -5 -7 -12 -3 -6 4
-17 -1 -25 -12 -12 -16 -15 -17 -23 -4 -7 11 -4 17 8 21 14 5 14 7 -6 18 -28
15 -30 51 -1 51 13 0 23 -10 30 -30z m-3873 -20 c-8 -13 -15 -16 -19 -8 -10
15 -2 28 17 28 12 0 12 -4 2 -20z m-703 -10 c3 -5 -1 -10 -10 -10 -9 0 -13 5
-10 10 3 6 8 10 10 10 2 0 7 -4 10 -10z m3859 1 c3 -5 -3 -11 -14 -14 -13 -3
-20 0 -20 9 0 15 26 19 34 5z m244 -8 c-25 -4 -26 -7 -33 -84 -4 -43 -11 -79
-16 -79 -5 0 -9 -31 -9 -70 0 -38 -4 -70 -9 -70 -15 0 -22 18 -11 25 8 5 8 11
0 20 -12 14 -3 95 11 95 5 0 9 21 9 46 0 41 -2 46 -20 41 -22 -6 -35 21 -25
52 7 22 29 28 90 28 25 0 30 -2 13 -4z m213 -30 c-8 -29 -31 -44 -31 -20 0 9
-3 22 -6 31 -5 12 0 16 19 16 23 0 24 -3 18 -27z m49 17 c0 -5 -2 -10 -4 -10
-3 0 -8 5 -11 10 -3 6 -1 10 4 10 6 0 11 -4 11 -10z m-4483 -62 c-3 -8 -6 -5
-6 6 -1 11 2 17 5 13 3 -3 4 -12 1 -19z m-217 -48 c0 -22 -4 -40 -10 -40 -5 0
-10 18 -10 40 0 22 5 40 10 40 6 0 10 -18 10 -40z m4160 31 c0 -6 -4 -13 -10
-16 -5 -3 -10 1 -10 9 0 9 5 16 10 16 6 0 10 -4 10 -9z m147 -53 c-2 -13 -4
-3 -4 22 0 25 2 35 4 23 2 -13 2 -33 0 -45z m268 32 c-17 -17 -31 -27 -33 -21
-4 13 29 49 47 50 9 1 4 -11 -14 -29z m267 18 c-17 -8 -26 -8 -34 0 -9 9 -4
12 23 11 32 0 33 -1 11 -11z m88 -8 c-6 -11 -13 -20 -15 -20 -3 0 -5 9 -5 20
0 11 7 20 15 20 13 0 14 -4 5 -20z m90 9 c0 -6 8 -8 19 -4 17 5 51 -17 51 -33
-1 -16 -17 -29 -42 -36 -23 -5 -28 -12 -28 -35 0 -16 5 -31 11 -33 8 -3 8 -10
-2 -26 -11 -18 -11 -26 -1 -42 10 -16 10 -20 -2 -20 -16 0 -26 21 -26 56 0 44
-18 25 -27 -28 -6 -32 -14 -52 -21 -50 -7 1 -12 -7 -12 -19 0 -11 4 -18 9 -14
6 3 15 -3 21 -14 12 -24 1 -34 -21 -18 -23 17 -35 87 -15 87 12 0 14 11 10 58
-5 53 -4 56 10 38 27 -34 41 -5 38 75 -2 56 1 69 13 69 8 0 15 -5 15 -11z
m-497 -81 c4 -10 8 -9 17 2 10 12 11 10 6 -10 -3 -14 -6 -31 -6 -38 0 -20 -49
20 -50 41 0 19 26 23 33 5z m87 5 c0 -5 -5 -15 -10 -23 -8 -12 -10 -11 -10 8
0 12 5 22 10 22 6 0 10 -3 10 -7z m320 -33 c0 -22 -4 -40 -10 -40 -5 0 -10 18
-10 40 0 22 5 40 10 40 6 0 10 -18 10 -40z m-135 21 c3 -5 1 -12 -5 -16 -5 -3
-10 1 -10 9 0 18 6 21 15 7z m45 -11 c0 -21 -15 -27 -25 -10 -7 12 2 30 16 30
5 0 9 -9 9 -20z m-4620 -12 c0 -16 -3 -19 -11 -11 -6 6 -8 16 -5 22 11 17 16
13 16 -11z m4625 -28 c3 -5 3 -15 -1 -21 -6 -11 -23 6 -24 24 0 10 18 9 25 -3z
m-58 -32 c-3 -8 -6 -5 -6 6 -1 11 2 17 5 13 3 -3 4 -12 1 -19z m103 -10 c0
-18 3 -43 6 -55 4 -14 2 -23 -5 -23 -6 0 -11 7 -11 15 0 8 -7 15 -16 15 -11 0
-14 5 -10 16 3 9 6 27 6 40 0 15 6 24 15 24 10 0 15 -10 15 -32z m673 25 c-13
-2 -33 -2 -45 0 -13 2 -3 4 22 4 25 0 35 -2 23 -4z m337 -25 l-1 -33 -14 25
c-18 32 -18 40 0 40 10 0 15 -10 15 -32z m-230 -70 c0 -32 5 -58 10 -58 6 0
10 -18 10 -40 0 -71 -18 -43 -25 40 -4 44 -11 80 -15 80 -16 0 -23 42 -9 51
20 12 29 -9 29 -73z m-570 47 c0 -19 -5 -25 -21 -25 -15 0 -19 4 -15 16 3 9 6
20 6 25 0 5 7 9 15 9 9 0 15 -9 15 -25z m677 -31 c-3 -3 -12 -4 -19 -1 -8 3
-5 6 6 6 11 1 17 -2 13 -5z m43 -41 c4 -4 -20 -23 -30 -23 -15 0 -32 19 -25
29 6 10 41 7 55 -6z m50 -24 c0 -5 -7 -9 -15 -9 -15 0 -20 12 -9 23 8 8 24 -1
24 -14z m-660 1 c13 -8 12 -10 -4 -10 -15 0 -16 -3 -7 -14 17 -20 -1 -28 -33
-16 -32 12 -33 24 -3 38 28 14 29 14 47 2z m-953 -16 c-3 -3 -12 -4 -19 -1 -8
3 -5 6 6 6 11 1 17 -2 13 -5z m1063 -9 c19 18 20 17 20 -3 0 -16 6 -22 21 -22
35 0 61 -19 54 -41 -6 -17 -1 -19 39 -19 25 0 46 -4 46 -10 0 -5 -18 -10 -40
-10 -33 0 -40 -3 -40 -20 0 -11 -7 -20 -15 -20 -8 0 -15 5 -15 10 0 6 -11 16
-25 22 -14 6 -25 19 -25 28 0 9 -9 25 -20 35 -19 18 -22 18 -37 2 -16 -16 -16
-17 0 -17 11 0 17 -8 17 -21 0 -32 -19 -59 -40 -59 -17 0 -20 7 -20 40 0 23
-5 40 -11 40 -8 0 -7 5 1 15 10 12 10 19 1 28 -8 8 -6 14 11 23 19 10 26 10
41 -3 15 -15 19 -15 37 2z m-304 -63 c-12 -11 -18 7 -10 30 l8 23 4 -23 c2
-13 1 -26 -2 -30z m832 26 c18 -18 15 -28 -8 -28 -13 0 -20 7 -20 20 0 23 10
26 28 8z m-205 -25 c-13 -2 -33 -2 -45 0 -13 2 -3 4 22 4 25 0 35 -2 23 -4z
m115 -10 c-28 -7 -22 -46 9 -60 15 -7 33 -13 41 -13 7 0 20 -16 28 -36 14 -33
14 -38 0 -53 -15 -14 -16 -12 -16 26 0 44 -14 63 -33 44 -6 -6 -14 -11 -19
-11 -10 0 -33 46 -42 83 -6 25 -4 27 21 26 17 -1 21 -3 11 -6z m62 -19 c0 -8
-5 -12 -10 -9 -6 4 -8 11 -5 16 9 14 15 11 15 -7z m-650 -24 c0 -5 -7 -10 -15
-10 -8 0 -15 5 -15 10 0 6 7 10 15 10 8 0 15 -4 15 -10z m520 -10 c0 -11 -7
-20 -15 -20 -11 0 -15 -11 -15 -40 0 -22 -4 -40 -10 -40 -19 0 -11 69 12 95
26 30 28 31 28 5z m-5777 -17 c-8 -3 -13 -24 -13 -53 0 -27 -3 -55 -6 -64 -13
-33 -22 -14 -23 44 0 58 12 80 44 79 6 0 4 -3 -2 -6z m4677 -13 c0 -5 -4 -10
-10 -10 -5 0 -10 5 -10 10 0 6 5 10 10 10 6 0 10 -4 10 -10z m750 -35 c0 -35
-3 -43 -15 -39 -10 4 -15 20 -15 45 0 28 4 39 15 39 11 0 15 -12 15 -45z
m-723 -7 c-3 -8 -6 -5 -6 6 -1 11 2 17 5 13 3 -3 4 -12 1 -19z m883 8 c0 -8
-11 -17 -24 -20 -13 -3 -31 -9 -40 -12 -11 -4 -16 0 -16 14 0 20 8 23 68 31 6
0 12 -5 12 -13z m280 -26 c0 -5 -4 -10 -10 -10 -5 0 -10 5 -10 10 0 6 5 10 10
10 6 0 10 -4 10 -10z m136 -6 c-3 -9 -7 -32 -7 -52 -2 -34 -2 -34 -6 -7 -3 16
-12 35 -21 42 -16 11 -16 12 1 13 9 0 17 5 17 10 0 6 5 10 11 10 6 0 8 -7 5
-16z m-5929 -26 c-3 -8 -6 -5 -6 6 -1 11 2 17 5 13 3 -3 4 -12 1 -19z m5600
-15 c-3 -10 -5 -4 -5 12 0 17 2 24 5 18 2 -7 2 -21 0 -30z m-29 9 c2 -7 -6
-12 -17 -12 -21 0 -27 11 -14 24 9 9 26 2 31 -12z m160 -3 c1 -8 -7 -24 -18
-36 -11 -12 -20 -25 -20 -28 0 -4 -7 -14 -16 -23 -15 -14 -18 -14 -33 5 -9 12
-25 24 -36 27 -11 3 0 3 25 1 25 -2 39 -2 33 1 -21 9 -15 31 15 53 30 22 45
22 50 0z m-298 -19 c0 -5 -2 -10 -4 -10 -3 0 -8 5 -11 10 -3 6 -1 10 4 10 6 0
11 -4 11 -10z m420 -30 c0 -10 -4 -22 -10 -25 -6 -4 -10 7 -10 25 0 18 4 29
10 25 6 -3 10 -15 10 -25z m-286 -3 c-2 -7 7 -26 21 -43 l25 -29 -31 -3 c-17
-2 -32 -2 -34 0 -1 2 -6 22 -10 46 -6 38 -5 42 14 42 13 0 18 -5 15 -13z
m-5604 -18 c14 -25 8 -33 -19 -24 -24 7 -29 45 -6 45 8 0 19 -9 25 -21z m5500
-19 c0 -29 -4 -40 -15 -40 -8 0 -15 -8 -15 -17 0 -15 -2 -16 -10 -3 -6 10 -6
16 0 18 15 5 12 38 -5 52 -23 19 -18 30 15 30 28 0 30 -2 30 -40z m-5586 15
c6 -18 -2 -45 -15 -45 -5 0 -9 14 -9 30 0 32 14 40 24 15z m5316 -40 c0 -8 -7
-15 -15 -15 -16 0 -20 12 -8 23 11 12 23 8 23 -8z m760 -6 c0 -5 -4 -9 -10 -9
-5 0 -10 7 -10 16 0 8 5 12 10 9 6 -3 10 -10 10 -16z m135 1 c3 -5 1 -10 -4
-10 -6 0 -11 5 -11 10 0 6 2 10 4 10 3 0 8 -4 11 -10z m65 0 c0 -5 -5 -10 -11
-10 -5 0 -7 5 -4 10 3 6 8 10 11 10 2 0 4 -4 4 -10z m-651 -116 c-6 -13 -8
-31 -4 -41 7 -17 8 -17 15 2 10 23 13 5 4 -19 -5 -13 -10 -14 -20 -5 -11 9
-16 6 -24 -15 -5 -14 -7 -32 -4 -40 8 -22 -34 -28 -46 -6 -24 46 -30 70 -15
70 7 0 16 -10 18 -22 3 -17 5 -15 6 8 1 24 6 31 19 30 13 -1 17 7 17 32 0 24
4 32 17 32 14 0 18 9 20 43 l1 42 4 -44 c3 -25 -1 -55 -8 -67z m-129 66 c0 -5
-2 -10 -4 -10 -3 0 -8 5 -11 10 -3 6 -1 10 4 10 6 0 11 -4 11 -10z m-240 -50
c0 -5 -4 -10 -10 -10 -5 0 -10 5 -10 10 0 6 5 10 10 10 6 0 10 -4 10 -10z
m233 3 c-7 -2 -19 -2 -25 0 -7 3 -2 5 12 5 14 0 19 -2 13 -5z m747 -39 c0 -32
18 -66 31 -59 5 4 9 -5 9 -18 0 -14 -6 -24 -12 -23 -16 1 -18 -4 -18 -53 0
-29 5 -41 18 -44 9 -3 -1 -5 -24 -6 l-40 -1 7 53 c4 28 3 56 -2 61 -14 15 -11
104 4 109 23 10 27 7 27 -19z m37 4 c-3 -8 -6 -5 -6 6 -1 11 2 17 5 13 3 -3 4
-12 1 -19z m-6257 -13 c0 -16 -6 -25 -15 -25 -15 0 -21 31 -8 43 13 14 23 6
23 -18z m5434 -10 c3 -9 0 -15 -9 -15 -8 0 -15 7 -15 15 0 8 4 15 9 15 5 0 11
-7 15 -15z m-924 -5 c0 -5 -2 -10 -4 -10 -3 0 -8 5 -11 10 -3 6 -1 10 4 10 6
0 11 -4 11 -10z m1330 0 c0 -5 -7 -10 -16 -10 -8 0 -12 5 -9 10 3 6 10 10 16
10 5 0 9 -4 9 -10z m-360 -15 c0 -8 -4 -15 -10 -15 -5 0 -10 7 -10 15 0 8 5
15 10 15 6 0 10 -7 10 -15z m190 -24 c0 -15 -19 -23 -38 -16 -14 5 -14 7 -2
15 19 12 40 13 40 1z m212 -103 c-9 -9 -12 -7 -12 12 0 19 3 21 12 12 9 -9 9
-15 0 -24z m287 -29 c-11 -6 -11 -11 -1 -21 14 -14 16 -58 2 -58 -12 0 -30 33
-30 56 0 23 33 60 38 44 3 -7 -2 -16 -9 -21z m-961 -20 c-1 -13 -7 -23 -13
-22 -13 3 -18 30 -11 50 10 24 29 1 24 -28z m1029 -81 c-3 -8 -6 -5 -6 6 -1
11 2 17 5 13 3 -3 4 -12 1 -19z m-50 -50 c-3 -8 -6 -5 -6 6 -1 11 2 17 5 13 3
-3 4 -12 1 -19z m-807 2 c0 -5 -10 -10 -22 -10 -19 0 -20 2 -8 10 19 13 30 13
30 0z m750 -41 c11 -8 12 -12 2 -16 -7 -2 -19 -11 -26 -19 -32 -31 -50 -6 -19
28 19 21 23 21 43 7z m-113 -71 c-3 -8 -6 -5 -6 6 -1 11 2 17 5 13 3 -3 4 -12
1 -19z m203 12 c0 -5 -4 -10 -10 -10 -5 0 -10 5 -10 10 0 6 5 10 10 10 6 0 10
-4 10 -10z m-270 -94 c-7 -7 -10 1 -9 25 0 32 1 33 10 10 6 -16 6 -28 -1 -35z
m67 2 c-3 -8 -6 -5 -6 6 -1 11 2 17 5 13 3 -3 4 -12 1 -19z m243 -8 c0 -5 -18
-10 -40 -10 -22 0 -40 5 -40 10 0 6 18 10 40 10 22 0 40 -4 40 -10z m-630 -40
c0 -5 -5 -10 -11 -10 -5 0 -7 5 -4 10 3 6 8 10 11 10 2 0 4 -4 4 -10z m658 -2
c15 -15 16 -38 2 -38 -5 0 -10 7 -10 15 0 8 -4 15 -10 15 -5 0 -10 5 -10 10 0
14 13 13 28 -2z m-88 -45 c0 -7 -4 -13 -10 -13 -5 0 -10 12 -10 28 0 21 2 24
10 12 5 -8 10 -21 10 -27z m40 13 c0 -27 -15 -42 -25 -26 -8 13 3 50 16 50 5
0 9 -11 9 -24z m-152 -68 c-6 -18 -28 -21 -28 -4 0 9 7 16 16 16 9 0 14 -5 12
-12z m144 -122 c11 -89 8 -116 -15 -116 -17 0 -36 167 -23 206 13 40 24 12 38
-90z m111 80 c7 7 -3 -98 -10 -106 -3 -3 -16 8 -30 24 -24 28 -24 30 -7 43 16
12 15 13 -15 13 -20 0 -30 4 -26 11 4 6 13 8 20 5 8 -3 19 2 26 10 8 10 15 11
24 4 6 -5 15 -7 18 -4z m-277 -31 c-9 -9 -16 -12 -16 -6 0 6 -7 11 -15 11 -8
0 -15 4 -15 9 0 5 9 7 20 4 13 -3 20 0 20 8 0 10 3 10 11 2 9 -9 8 -16 -5 -28z
m103 -96 c-7 -32 -15 -57 -17 -54 -9 8 -19 75 -12 75 5 0 14 17 21 38 19 54
24 14 8 -59z m-69 34 c0 -7 -9 -13 -20 -13 -15 0 -20 7 -20 25 0 23 2 24 20
13 11 -7 20 -18 20 -25z m300 -27 c0 -24 -18 -28 -30 -6 -9 17 -8 20 10 20 11
0 20 -6 20 -14z m-350 -47 c0 -12 -7 -19 -18 -19 -15 0 -18 6 -14 30 3 25 7
28 18 19 8 -6 14 -20 14 -30z m199 -68 c8 -5 9 -11 3 -15 -14 -8 -43 4 -36 15
7 11 15 11 33 0z m131 -11 c0 -11 -4 -20 -10 -20 -5 0 -10 9 -10 20 0 11 5 20
10 20 6 0 10 -9 10 -20z m-320 -60 c0 -11 -4 -20 -9 -20 -14 0 -23 18 -16 30
10 17 25 11 25 -10z m37 -12 c-3 -7 -5 -2 -5 12 0 14 2 19 5 13 2 -7 2 -19 0
-25z m83 -13 c0 -8 -4 -15 -10 -15 -5 0 -7 7 -4 15 4 8 8 15 10 15 2 0 4 -7 4
-15z m105 0 c30 -13 30 -13 -24 -14 -46 -1 -52 1 -41 14 15 18 26 18 65 0z"/>
<path d="M1620 3761 c0 -13 29 -35 37 -28 7 8 -15 37 -28 37 -5 0 -9 -4 -9 -9z"/>
<path d="M4538 3734 c-5 -4 -8 -10 -8 -14 0 -10 57 -40 64 -33 13 13 5 23 -18
23 -14 0 -26 7 -28 16 -2 9 -6 12 -10 8z"/>
<path d="M1305 3720 c-3 -5 -1 -10 4 -10 6 0 11 5 11 10 0 6 -2 10 -4 10 -3 0
-8 -4 -11 -10z"/>
<path d="M4505 3720 c-3 -5 -1 -10 4 -10 6 0 11 5 11 10 0 6 -2 10 -4 10 -3 0
-8 -4 -11 -10z"/>
<path d="M200 3710 l-45 -7 40 -1 c22 -1 47 3 55 8 8 5 11 9 5 8 -5 0 -30 -4
-55 -8z"/>
<path d="M1792 3677 c-16 -44 -15 -47 8 -47 17 0 20 7 20 40 0 49 -12 52 -28
7z"/>
<path d="M2000 3699 c0 -5 5 -7 10 -4 6 3 10 8 10 11 0 2 -4 4 -10 4 -5 0 -10
-5 -10 -11z"/>
<path d="M2978 3703 c7 -3 16 -2 19 1 4 3 -2 6 -13 5 -11 0 -14 -3 -6 -6z"/>
<path d="M1409 3684 c-11 -14 -10 -19 7 -33 11 -9 24 -34 29 -55 14 -55 35
-59 35 -7 0 34 3 41 20 41 24 0 26 -20 5 -60 -16 -32 -10 -64 11 -56 8 3 14 1
14 -5 0 -6 5 -7 10 -4 6 3 10 47 10 98 -1 85 -2 90 -15 67 -8 -14 -14 -20 -15
-13 0 6 -21 18 -47 27 -56 19 -48 19 -64 0z"/>
<path d="M3584 3679 c-3 -6 -1 -16 5 -22 8 -8 11 -5 11 11 0 24 -5 28 -16 11z"/>
<path d="M2561 3664 c0 -11 3 -14 6 -6 3 7 2 16 -1 19 -3 4 -6 -2 -5 -13z"/>
<path d="M2631 3664 c0 -11 3 -14 6 -6 3 7 2 16 -1 19 -3 4 -6 -2 -5 -13z"/>
<path d="M0 3650 c0 -15 7 -20 25 -20 30 0 33 15 6 30 -27 14 -31 13 -31 -10z"/>
<path d="M2318 3648 c-3 -14 -1 -33 4 -42 5 -10 5 -24 -2 -36 -9 -18 -8 -20
15 -20 23 0 24 2 15 20 -7 14 -8 26 0 39 7 15 5 25 -9 42 l-18 22 -5 -25z"/>
<path d="M5470 3650 c0 -11 5 -20 10 -20 6 0 10 9 10 20 0 11 -4 20 -10 20 -5
0 -10 -9 -10 -20z"/>
<path d="M2395 3629 c-4 -11 -4 -23 -1 -26 3 -4 6 1 6 10 0 10 7 17 16 17 8 0
12 5 9 10 -10 16 -23 12 -30 -11z"/>
<path d="M2900 3640 c0 -5 7 -10 16 -10 8 0 12 5 9 10 -3 6 -10 10 -16 10 -5
0 -9 -4 -9 -10z"/>
<path d="M2628 3633 c-36 -9 -34 -83 3 -83 16 0 19 7 19 45 0 25 -1 44 -2 44
-2 -1 -11 -3 -20 -6z"/>
<path d="M2717 3619 c4 -13 8 -18 11 -10 2 7 -1 18 -6 23 -8 8 -9 4 -5 -13z"/>
<path d="M2792 3620 c0 -14 2 -19 5 -12 2 6 2 18 0 25 -3 6 -5 1 -5 -13z"/>
<path d="M2510 3599 c0 -17 -7 -46 -16 -65 -23 -48 -13 -64 19 -32 19 19 27
38 27 62 0 19 3 41 6 50 4 12 0 16 -15 16 -17 0 -21 -6 -21 -31z"/>
<path d="M2560 3619 c0 -5 5 -7 10 -4 6 3 10 8 10 11 0 2 -4 4 -10 4 -5 0 -10
-5 -10 -11z"/>
<path d="M4490 3620 c0 -5 5 -10 10 -10 6 0 10 5 10 10 0 6 -4 10 -10 10 -5 0
-10 -4 -10 -10z"/>
<path d="M4530 3620 c0 -5 5 -10 10 -10 6 0 10 5 10 10 0 6 -4 10 -10 10 -5 0
-10 -4 -10 -10z"/>
<path d="M3191 3604 c0 -11 3 -14 6 -6 3 7 2 16 -1 19 -3 4 -6 -2 -5 -13z"/>
<path d="M1237 3584 c-4 -4 -7 -31 -7 -61 0 -50 1 -53 25 -53 22 0 25 4 25 39
0 39 -29 89 -43 75z"/>
<path d="M3368 3568 c9 -9 15 -9 24 0 9 9 7 12 -12 12 -19 0 -21 -3 -12 -12z"/>
<path d="M3513 3558 c4 -13 7 -39 8 -58 l1 -35 10 43 c6 27 15 42 24 42 27 0
9 25 -21 28 -25 3 -27 1 -22 -20z"/>
<path d="M2560 3539 c0 -26 4 -29 30 -29 19 0 30 5 30 14 0 8 -13 21 -30 30
-30 14 -30 14 -30 -15z"/>
<path d="M3150 3560 c-13 -8 -12 -10 3 -10 9 0 17 5 17 10 0 12 -1 12 -20 0z"/>
<path d="M3280 3550 c0 -5 7 -7 15 -4 8 4 15 8 15 10 0 2 -7 4 -15 4 -8 0 -15
-4 -15 -10z"/>
<path d="M4472 3543 c1 -10 -2 -30 -5 -45 -6 -22 -4 -28 8 -28 11 0 15 11 15
39 0 22 -4 42 -9 46 -6 3 -9 -3 -9 -12z"/>
<path d="M860 3540 c0 -5 5 -10 10 -10 6 0 10 5 10 10 0 6 -4 10 -10 10 -5 0
-10 -4 -10 -10z"/>
<path d="M1433 3523 c-19 -40 -16 -53 12 -53 26 0 31 13 19 58 -8 29 -16 28
-31 -5z"/>
<path d="M1591 3534 c0 -11 3 -14 6 -6 3 7 2 16 -1 19 -3 4 -6 -2 -5 -13z"/>
<path d="M3135 3530 c-19 -7 -19 -7 3 -14 26 -9 41 -1 26 13 -5 5 -18 5 -29 1z"/>
<path d="M2720 3510 c0 -13 5 -20 13 -17 6 2 12 10 12 17 0 7 -6 15 -12 18 -8
2 -13 -5 -13 -18z"/>
<path d="M3220 3510 c0 -19 3 -21 12 -12 9 9 9 15 0 24 -9 9 -12 7 -12 -12z"/>
<path d="M3272 3510 c0 -14 2 -19 5 -12 2 6 2 18 0 25 -3 6 -5 1 -5 -13z"/>
<path d="M1100 3495 c0 -14 6 -25 14 -25 9 0 12 8 8 25 -2 14 -8 25 -13 25 -5
0 -9 -11 -9 -25z"/>
<path d="M1145 3510 c-3 -5 3 -10 15 -10 12 0 18 5 15 10 -3 6 -10 10 -15 10
-5 0 -12 -4 -15 -10z"/>
<path d="M1188 3474 c-12 -11 -10 -84 2 -84 6 0 11 -19 11 -42 1 -24 3 -34 6
-23 6 30 -11 158 -19 149z"/>
<path d="M2160 3464 c0 -7 9 -18 20 -24 17 -9 20 -8 20 8 0 11 -9 22 -20 25
-13 3 -20 0 -20 -9z"/>
<path d="M3137 3473 c7 -5 16 -27 21 -48 l9 -40 16 39 c10 22 16 41 14 42 -2
2 -19 6 -38 10 -20 3 -29 2 -22 -3z"/>
<path d="M3280 3470 c0 -5 5 -10 11 -10 5 0 7 5 4 10 -3 6 -8 10 -11 10 -2 0
-4 -4 -4 -10z"/>
<path d="M722 3450 c0 -14 2 -19 5 -12 2 6 2 18 0 25 -3 6 -5 1 -5 -13z"/>
<path d="M1543 3453 c16 -16 18 -16 34 0 16 16 15 17 -17 17 -32 0 -33 -1 -17
-17z"/>
<path d="M3340 3430 c0 -5 5 -10 10 -10 6 0 10 5 10 10 0 6 -4 10 -10 10 -5 0
-10 -4 -10 -10z"/>
<path d="M5569 3433 c-1 -5 -2 -15 -3 -23 0 -8 -11 -16 -23 -18 -21 -3 -34
-22 -15 -22 26 0 62 27 62 48 0 20 -18 33 -21 15z"/>
<path d="M3590 3400 c0 -6 7 -10 15 -10 8 0 15 2 15 4 0 2 -7 6 -15 10 -8 3
-15 1 -15 -4z"/>
<path d="M4345 3400 c-3 -5 1 -10 10 -10 9 0 13 5 10 10 -3 6 -8 10 -10 10 -2
0 -7 -4 -10 -10z"/>
<path d="M4625 3400 c-3 -5 -1 -10 4 -10 6 0 11 5 11 10 0 6 -2 10 -4 10 -3 0
-8 -4 -11 -10z"/>
<path d="M3277 3393 c-4 -3 -7 -18 -7 -32 l0 -25 21 21 c12 11 18 26 15 32 -8
12 -19 14 -29 4z"/>
<path d="M3237 3369 c-3 -12 -2 -29 2 -37 7 -13 10 -11 15 6 4 12 3 29 -2 38
-8 14 -10 13 -15 -7z"/>
<path d="M3521 3374 c0 -11 3 -14 6 -6 3 7 2 16 -1 19 -3 4 -6 -2 -5 -13z"/>
<path d="M3640 3352 c0 -26 6 -41 20 -50 12 -7 20 -8 20 -2 0 5 -4 10 -10 10
-5 0 -10 18 -10 40 0 22 -4 40 -10 40 -5 0 -10 -17 -10 -38z"/>
<path d="M4960 3379 c0 -5 5 -7 10 -4 6 3 10 8 10 11 0 2 -4 4 -10 4 -5 0 -10
-5 -10 -11z"/>
<path d="M4623 3344 c-3 -8 -1 -20 6 -27 8 -8 11 -4 11 16 0 30 -7 35 -17 11z"/>
<path d="M4800 3340 c0 -5 9 -10 21 -10 11 0 17 5 14 10 -3 6 -13 10 -21 10
-8 0 -14 -4 -14 -10z"/>
<path d="M3868 3303 c7 -3 16 -2 19 1 4 3 -2 6 -13 5 -11 0 -14 -3 -6 -6z"/>
<path d="M3921 3294 c0 -11 3 -14 6 -6 3 7 2 16 -1 19 -3 4 -6 -2 -5 -13z"/>
<path d="M4606 3251 c-4 -7 -5 -15 -2 -18 9 -9 19 4 14 18 -4 11 -6 11 -12 0z"/>
<path d="M4680 3240 c0 -5 7 -10 16 -10 8 0 12 5 9 10 -3 6 -10 10 -16 10 -5
0 -9 -4 -9 -10z"/>
<path d="M4336 3214 c-10 -26 0 -28 23 -5 20 20 20 21 2 21 -10 0 -22 -7 -25
-16z"/>
<path d="M5531 3185 c1 -40 1 -40 10 -10 5 18 5 33 -1 39 -7 7 -10 -4 -9 -29z"/>
<path d="M3440 3166 c0 -9 5 -16 10 -16 6 0 10 4 10 9 0 6 -4 13 -10 16 -5 3
-10 -1 -10 -9z"/>
<path d="M3506 3171 c-4 -7 -5 -15 -2 -18 9 -9 19 4 14 18 -4 11 -6 11 -12 0z"/>
<path d="M4405 3158 c14 -46 17 -88 6 -88 -8 0 -7 -6 1 -20 9 -15 10 -25 2
-37 -8 -14 -7 -22 7 -37 10 -10 22 -15 28 -11 16 9 7 133 -12 178 -17 40 -44
53 -32 15z"/>
<path d="M3760 3150 c0 -24 6 -25 25 -6 12 12 12 15 -1 20 -23 9 -24 8 -24
-14z"/>
<path d="M3845 3160 c-3 -5 0 -10 9 -10 8 0 16 -6 19 -12 2 -7 8 -10 12 -6 4
4 0 14 -8 23 -18 18 -24 19 -32 5z"/>
<path d="M3503 3143 c-24 -5 -30 -18 -13 -28 17 -10 11 -25 -12 -35 -13 -5
-17 -9 -10 -9 7 -1 11 -5 8 -10 -3 -5 1 -14 8 -20 16 -13 32 2 21 19 -3 6 3
10 14 10 18 0 21 6 21 40 0 22 -3 39 -7 39 -5 -1 -18 -4 -30 -6z"/>
<path d="M4481 3134 c0 -11 3 -14 6 -6 3 7 2 16 -1 19 -3 4 -6 -2 -5 -13z"/>
<path d="M4611 3113 c1 -34 2 -35 9 -13 11 36 11 50 0 50 -5 0 -10 -17 -9 -37z"/>
<path d="M3958 3063 c7 -3 16 -2 19 1 4 3 -2 6 -13 5 -11 0 -14 -3 -6 -6z"/>
<path d="M4287 3053 c-15 -15 -7 -43 13 -43 17 0 20 -7 20 -41 0 -24 4 -38 10
-34 14 9 12 66 -2 98 -13 26 -28 34 -41 20z"/>
<path d="M3980 3036 c0 -17 14 -29 23 -20 8 8 -3 34 -14 34 -5 0 -9 -6 -9 -14z"/>
<path d="M4720 3030 c0 -13 5 -20 13 -17 6 2 12 10 12 17 0 7 -6 15 -12 18 -8
2 -13 -5 -13 -18z"/>
<path d="M4225 3000 c-3 -5 3 -10 14 -10 12 0 21 5 21 10 0 6 -6 10 -14 10 -8
0 -18 -4 -21 -10z"/>
<path d="M4822 2983 c8 -10 18 -26 21 -35 8 -23 26 -23 34 -1 7 18 -29 53 -55
53 -13 0 -13 -2 0 -17z"/>
<path d="M4505 2980 c4 -6 11 -8 16 -5 14 9 11 15 -7 15 -8 0 -12 -5 -9 -10z"/>
<path d="M5170 2970 c0 -11 5 -20 10 -20 6 0 10 9 10 20 0 11 -4 20 -10 20 -5
0 -10 -9 -10 -20z"/>
<path d="M4590 2950 c0 -11 5 -20 10 -20 6 0 10 9 10 20 0 11 -4 20 -10 20 -5
0 -10 -9 -10 -20z"/>
<path d="M4995 2940 c-8 -13 4 -32 16 -25 12 8 12 35 0 35 -6 0 -13 -4 -16
-10z"/>
<path d="M4508 2935 c-3 -3 -3 -27 0 -54 4 -42 2 -50 -14 -54 -11 -3 1 -5 26
-5 25 0 39 2 33 5 -16 6 -17 83 -2 83 8 0 8 5 -1 15 -12 15 -32 20 -42 10z"/>
<path d="M4400 2896 c0 -7 7 -19 15 -26 8 -7 15 -19 15 -26 0 -8 7 -14 16 -14
10 0 14 6 10 18 -2 9 -7 27 -11 40 -7 24 -45 31 -45 8z"/>
<path d="M4858 2903 c7 -3 16 -2 19 1 4 3 -2 6 -13 5 -11 0 -14 -3 -6 -6z"/>
<path d="M4960 2870 c0 -22 5 -40 10 -40 6 0 10 18 10 40 0 22 -4 40 -10 40
-5 0 -10 -18 -10 -40z"/>
<path d="M4760 2850 c0 -14 7 -20 22 -20 20 0 21 1 3 20 -10 11 -20 20 -22 20
-1 0 -3 -9 -3 -20z"/>
<path d="M6239 2849 c-3 -8 -2 -34 1 -59 l6 -45 8 35 c7 35 -6 97 -15 69z"/>
<path d="M5440 2840 c0 -5 5 -10 10 -10 6 0 10 5 10 10 0 6 -4 10 -10 10 -5 0
-10 -4 -10 -10z"/>
<path d="M6785 2820 c3 -5 8 -10 11 -10 2 0 4 5 4 10 0 6 -5 10 -11 10 -5 0
-7 -4 -4 -10z"/>
<path d="M4312 2787 c-9 -10 -6 -17 8 -27 14 -10 20 -26 20 -52 0 -27 4 -38
15 -38 11 0 15 11 15 40 0 29 4 40 15 40 9 0 15 9 15 25 0 14 -2 25 -5 25 -3
0 -10 -11 -15 -25 -5 -14 -14 -25 -20 -25 -6 0 -15 11 -20 25 -11 29 -14 30
-28 12z"/>
<path d="M4830 2710 c0 -22 5 -40 10 -40 6 0 10 18 10 40 0 22 -4 40 -10 40
-5 0 -10 -18 -10 -40z"/>
<path d="M4881 2734 c0 -11 3 -14 6 -6 3 7 2 16 -1 19 -3 4 -6 -2 -5 -13z"/>
<path d="M4950 2734 c0 -8 5 -12 10 -9 6 3 10 10 10 16 0 5 -4 9 -10 9 -5 0
-10 -7 -10 -16z"/>
<path d="M5049 2738 c-7 -92 -7 -100 3 -90 15 15 23 102 9 102 -6 0 -11 -6
-12 -12z"/>
<path d="M4401 2710 c0 -29 1 -32 10 -17 7 11 7 23 0 35 -9 14 -10 11 -10 -18z"/>
<path d="M5330 2730 c0 -5 5 -10 11 -10 5 0 7 5 4 10 -3 6 -8 10 -11 10 -2 0
-4 -4 -4 -10z"/>
<path d="M5120 2680 c0 -5 5 -10 10 -10 6 0 10 5 10 10 0 6 -4 10 -10 10 -5 0
-10 -4 -10 -10z"/>
<path d="M5805 2680 c-3 -5 1 -10 10 -10 9 0 13 5 10 10 -3 6 -8 10 -10 10 -2
0 -7 -4 -10 -10z"/>
<path d="M5431 2644 c0 -11 3 -14 6 -6 3 7 2 16 -1 19 -3 4 -6 -2 -5 -13z"/>
<path d="M7781 2624 c0 -11 3 -14 6 -6 3 7 2 16 -1 19 -3 4 -6 -2 -5 -13z"/>
<path d="M4929 2624 c-5 -56 -2 -134 4 -134 17 0 36 28 42 61 5 29 2 38 -19
58 -14 14 -26 20 -27 15z"/>
<path d="M4850 2510 c0 -64 3 -80 15 -80 8 0 15 5 15 11 0 8 4 8 14 0 10 -9
16 -8 26 4 10 12 9 16 -4 21 -9 3 -13 10 -10 15 3 5 -2 12 -10 15 -11 4 -16
19 -16 50 0 32 -4 44 -15 44 -12 0 -15 -16 -15 -80z"/>
<path d="M5001 2553 c1 -21 4 -49 8 -63 11 -40 22 1 14 55 -7 54 -23 60 -22 8z"/>
<path d="M5120 2581 c0 -11 26 -22 34 -14 12 12 5 23 -14 23 -11 0 -20 -4 -20
-9z"/>
<path d="M5430 2575 c0 -11 -3 -30 -6 -42 -8 -29 7 -30 24 -3 10 17 10 25 -3
43 -14 20 -15 20 -15 2z"/>
<path d="M5339 2540 c-1 -19 -2 -50 -4 -67 -1 -18 0 -33 4 -33 19 0 28 26 23
68 -6 58 -22 79 -23 32z"/>
<path d="M5761 2514 c0 -11 3 -14 6 -6 3 7 2 16 -1 19 -3 4 -6 -2 -5 -13z"/>
<path d="M4952 2458 c-10 -12 -10 -18 -1 -23 7 -5 9 -21 5 -46 -6 -36 6 -55
17 -26 3 8 10 6 21 -8 22 -28 20 -35 -9 -35 -20 0 -25 -5 -25 -26 0 -24 3 -26
31 -20 17 3 35 6 40 6 5 0 9 16 9 35 0 19 -4 35 -8 35 -4 0 -6 16 -4 35 3 27
0 36 -14 42 -10 4 -19 2 -22 -5 -7 -23 -21 -12 -24 20 -3 27 -5 29 -16 16z"/>
<path d="M5120 2445 c0 -11 11 -15 40 -15 31 0 40 -4 40 -17 0 -9 2 -14 5 -11
4 3 3 17 -1 32 -5 22 -11 26 -45 26 -28 0 -39 -4 -39 -15z"/>
<path d="M5277 2447 c-3 -8 3 -14 14 -14 11 -1 19 5 19 13 0 18 -26 19 -33 1z"/>
<path d="M5850 2440 c0 -5 5 -10 11 -10 5 0 7 5 4 10 -3 6 -8 10 -11 10 -2 0
-4 -4 -4 -10z"/>
<path d="M5537 2412 c-8 -12 4 -62 15 -62 5 0 6 5 3 10 -4 6 -1 17 5 25 6 8 9
19 5 25 -7 12 -22 13 -28 2z"/>
<path d="M5455 2380 c3 -5 8 -10 11 -10 2 0 4 5 4 10 0 6 -5 10 -11 10 -5 0
-7 -4 -4 -10z"/>
<path d="M5620 2371 c0 -12 5 -21 10 -21 6 0 10 6 10 14 0 8 -4 18 -10 21 -5
3 -10 -3 -10 -14z"/>
<path d="M5426 2365 c-3 -8 -1 -15 4 -15 6 0 10 7 10 15 0 8 -2 15 -4 15 -2 0
-6 -7 -10 -15z"/>
<path d="M6072 2360 c0 -14 2 -19 5 -12 2 6 2 18 0 25 -3 6 -5 1 -5 -13z"/>
<path d="M5180 2360 c0 -5 5 -10 10 -10 6 0 10 5 10 10 0 6 -4 10 -10 10 -5 0
-10 -4 -10 -10z"/>
<path d="M5220 2350 c-12 -7 -12 -12 -3 -21 10 -10 14 -9 19 5 8 22 2 27 -16
16z"/>
<path d="M5335 2340 c3 -5 10 -10 16 -10 5 0 9 5 9 10 0 6 -7 10 -16 10 -8 0
-12 -4 -9 -10z"/>
<path d="M5763 2310 c0 -25 2 -35 4 -22 2 12 2 32 0 45 -2 12 -4 2 -4 -23z"/>
<path d="M5440 2325 c0 -8 -4 -15 -10 -15 -15 0 -50 -42 -50 -61 0 -10 5 -21
10 -24 15 -9 42 15 36 31 -3 7 3 16 14 19 31 10 45 32 30 50 -7 8 -16 15 -21
15 -5 0 -9 -7 -9 -15z"/>
<path d="M5165 2297 c-8 -19 -2 -31 13 -26 5 2 6 13 2 24 -7 19 -8 19 -15 2z"/>
<path d="M5216 2293 c-11 -11 -6 -23 9 -23 8 0 15 4 15 9 0 13 -16 22 -24 14z"/>
<path d="M5600 2249 c0 -11 5 -17 10 -14 6 3 10 13 10 21 0 8 -4 14 -10 14 -5
0 -10 -9 -10 -21z"/>
<path d="M5672 2250 c0 -14 2 -19 5 -12 2 6 2 18 0 25 -3 6 -5 1 -5 -13z"/>
<path d="M5200 2230 c0 -26 2 -28 23 -21 12 5 22 14 22 21 0 7 -10 16 -22 21
-21 7 -23 5 -23 -21z"/>
<path d="M6240 2213 c0 -13 5 -23 10 -23 13 0 13 11 0 30 -8 12 -10 11 -10 -7z"/>
<path d="M5368 2193 c7 -3 16 -2 19 1 4 3 -2 6 -13 5 -11 0 -14 -3 -6 -6z"/>
<path d="M5757 2180 c3 -11 0 -20 -6 -20 -6 0 -11 -11 -11 -25 0 -16 6 -25 15
-25 11 0 15 11 15 39 0 22 -4 42 -9 45 -5 4 -7 -3 -4 -14z"/>
<path d="M5400 2170 c0 -24 15 -27 24 -4 9 22 8 24 -9 24 -8 0 -15 -9 -15 -20z"/>
<path d="M5440 2170 c0 -11 6 -20 13 -20 19 0 27 10 20 26 -8 21 -33 17 -33
-6z"/>
<path d="M5680 2140 c0 -16 4 -30 9 -30 10 0 22 40 15 52 -11 18 -24 6 -24
-22z"/>
<path d="M5840 2068 l1 -43 14 40 c18 49 18 45 0 45 -11 0 -15 -11 -15 -42z"/>
<path d="M6160 2085 c0 -16 6 -25 16 -25 11 0 14 5 10 16 -3 9 -6 20 -6 25 0
5 -4 9 -10 9 -5 0 -10 -11 -10 -25z"/>
<path d="M6305 2100 c3 -5 8 -10 11 -10 2 0 4 5 4 10 0 6 -5 10 -11 10 -5 0
-7 -4 -4 -10z"/>
<path d="M6750 2100 c0 -5 5 -10 10 -10 6 0 10 5 10 10 0 6 -4 10 -10 10 -5 0
-10 -4 -10 -10z"/>
<path d="M6000 2051 c0 -12 6 -21 15 -21 8 0 15 4 15 9 0 5 -7 14 -15 21 -13
10 -15 9 -15 -9z"/>
<path d="M6237 2044 c-8 -8 3 -34 14 -34 11 0 12 27 0 34 -4 3 -11 3 -14 0z"/>
<path d="M5750 2004 c-11 -20 -12 -29 -2 -44 7 -11 12 -28 12 -37 0 -15 2 -15
13 -3 14 16 12 110 -2 110 -4 0 -14 -12 -21 -26z"/>
<path d="M5939 2008 c5 -13 14 -23 21 -23 7 0 16 10 21 23 7 20 5 22 -21 22
-26 0 -28 -2 -21 -22z"/>
<path d="M6137 1973 c-13 -12 -7 -23 13 -23 11 0 20 7 20 15 0 15 -21 21 -33
8z"/>
<path d="M6316 1953 c-6 -14 -5 -15 5 -6 7 7 10 15 7 18 -3 3 -9 -2 -12 -12z"/>
<path d="M6365 1960 c-3 -5 -1 -10 4 -10 6 0 11 5 11 10 0 6 -2 10 -4 10 -3 0
-8 -4 -11 -10z"/>
<path d="M6000 1940 c0 -5 -18 -10 -40 -10 -33 0 -40 -3 -40 -20 0 -17 7 -20
40 -20 22 0 40 -4 40 -10 0 -5 5 -10 10 -10 6 0 5 8 -2 20 -10 16 -10 24 0 40
7 12 8 20 2 20 -5 0 -10 -4 -10 -10z"/>
<path d="M6040 1910 c0 -33 11 -38 30 -15 10 12 10 18 0 30 -19 23 -30 18 -30
-15z"/>
<path d="M6626 1881 c-4 -6 -2 -11 3 -11 19 0 12 -17 -9 -23 -11 -3 -20 -10
-20 -16 0 -6 9 -11 20 -11 11 0 20 6 20 14 0 7 10 17 23 21 21 7 21 7 2 12
-11 3 -23 10 -26 15 -4 7 -9 6 -13 -1z"/>
<path d="M5528 1863 c7 -3 16 -2 19 1 4 3 -2 6 -13 5 -11 0 -14 -3 -6 -6z"/>
<path d="M5720 1860 c0 -5 7 -10 15 -10 8 0 15 5 15 10 0 6 -7 10 -15 10 -8 0
-15 -4 -15 -10z"/>
<path d="M6380 1861 c0 -6 5 -13 10 -16 6 -3 10 1 10 9 0 9 -4 16 -10 16 -5 0
-10 -4 -10 -9z"/>
<path d="M5470 1850 c0 -5 12 -10 26 -10 14 0 23 4 19 10 -3 6 -15 10 -26 10
-10 0 -19 -4 -19 -10z"/>
<path d="M5683 1830 c4 -14 7 -28 7 -32 0 -11 30 -10 30 0 0 5 -10 20 -21 33
l-22 24 6 -25z"/>
<path d="M6401 1804 c0 -11 3 -14 6 -6 3 7 2 16 -1 19 -3 4 -6 -2 -5 -13z"/>
<path d="M6471 1804 c0 -11 3 -14 6 -6 3 7 2 16 -1 19 -3 4 -6 -2 -5 -13z"/>
<path d="M6615 1780 c4 -6 11 -8 16 -5 14 9 11 15 -7 15 -8 0 -12 -5 -9 -10z"/>
<path d="M6670 1750 c0 -22 5 -40 10 -40 6 0 10 18 10 40 0 22 -4 40 -10 40
-5 0 -10 -18 -10 -40z"/>
<path d="M5858 1733 c12 -2 32 -2 45 0 12 2 2 4 -23 4 -25 0 -35 -2 -22 -4z"/>
<path d="M6520 1720 c0 -5 5 -10 11 -10 5 0 7 5 4 10 -3 6 -8 10 -11 10 -2 0
-4 -4 -4 -10z"/>
<path d="M6615 1720 c-3 -5 1 -10 10 -10 9 0 13 5 10 10 -3 6 -8 10 -10 10 -2
0 -7 -4 -10 -10z"/>
<path d="M6480 1614 c0 -8 5 -12 10 -9 6 3 10 10 10 16 0 5 -4 9 -10 9 -5 0
-10 -7 -10 -16z"/>
<path d="M6540 1621 c0 -18 18 -21 30 -6 10 13 9 15 -9 15 -11 0 -21 -4 -21
-9z"/>
<path d="M6633 1574 c-10 -21 -9 -24 7 -24 22 0 33 25 17 39 -9 7 -16 3 -24
-15z"/>
<path d="M6507 1573 c-13 -12 -7 -53 7 -53 14 0 29 37 20 52 -6 10 -18 10 -27
1z"/>
<path d="M6580 1525 c0 -14 4 -25 9 -25 5 0 11 11 13 25 4 17 1 25 -8 25 -8 0
-14 -11 -14 -25z"/>
<path d="M6481 1484 c0 -11 3 -14 6 -6 3 7 2 16 -1 19 -3 4 -6 -2 -5 -13z"/>
<path d="M6573 1459 c14 -8 22 -8 30 0 8 8 3 11 -18 11 -26 -1 -28 -2 -12 -11z"/>
<path d="M7520 1406 c0 -9 5 -16 10 -16 6 0 10 4 10 9 0 6 -4 13 -10 16 -5 3
-10 -1 -10 -9z"/>
<path d="M6595 1400 c-4 -6 6 -10 22 -10 22 0 25 2 13 10 -19 12 -27 12 -35 0z"/>
<path d="M6626 1342 c-2 -4 -1 -14 5 -22 7 -12 9 -10 9 8 0 23 -5 28 -14 14z"/>
<path d="M6785 1240 c-3 -5 -1 -10 4 -10 6 0 11 5 11 10 0 6 -2 10 -4 10 -3 0
-8 -4 -11 -10z"/>
<path d="M6881 1084 c0 -11 3 -14 6 -6 3 7 2 16 -1 19 -3 4 -6 -2 -5 -13z"/>
<path d="M7591 1033 c0 -23 3 -44 8 -48 14 -8 24 14 13 28 -6 7 -12 23 -15 37
-3 17 -5 11 -6 -17z"/>
<path d="M7271 974 c0 -11 3 -14 6 -6 3 7 2 16 -1 19 -3 4 -6 -2 -5 -13z"/>
<path d="M7440 935 c1 -26 2 -28 11 -12 8 14 8 22 0 30 -8 8 -11 3 -11 -18z"/>
<path d="M7425 820 c3 -5 8 -10 11 -10 2 0 4 5 4 10 0 6 -5 10 -11 10 -5 0 -7
-4 -4 -10z"/>
<path d="M6960 606 c0 -9 5 -16 10 -16 6 0 10 4 10 9 0 6 -4 13 -10 16 -5 3
-10 -1 -10 -9z"/>
<path d="M7500 550 c0 -22 5 -40 10 -40 6 0 10 11 10 24 0 13 3 31 6 40 4 11
1 16 -10 16 -12 0 -16 -10 -16 -40z"/>
<path d="M6640 530 c0 -11 6 -20 14 -20 9 0 12 7 9 20 -3 11 -9 20 -14 20 -5
0 -9 -9 -9 -20z"/>
<path d="M6645 489 c-7 -10 21 -38 38 -39 11 0 8 25 -5 38 -15 15 -25 15 -33
1z"/>
<path d="M6740 470 c0 -19 3 -21 12 -12 9 9 9 15 0 24 -9 9 -12 7 -12 -12z"/>
<path d="M6792 470 c0 -14 2 -19 5 -12 2 6 2 18 0 25 -3 6 -5 1 -5 -13z"/>
<path d="M7584 458 c4 -13 10 -31 13 -40 5 -16 -3 -18 -76 -18 -80 0 -81 0
-81 -25 0 -22 4 -25 40 -25 29 0 40 4 40 15 0 11 11 15 40 15 29 0 40 -4 40
-15 0 -11 -11 -15 -40 -15 -36 0 -40 -2 -40 -25 0 -22 -4 -25 -39 -25 -33 0
-40 4 -45 25 -7 29 -42 34 -49 8 -4 -17 -5 -17 -6 0 -1 11 -9 17 -27 17 -24 0
-25 -3 -23 -46 2 -35 -1 -48 -15 -56 -16 -9 -16 -12 -1 -34 15 -23 15 -24 -9
-24 -14 0 -28 -4 -31 -10 -3 -5 -15 -10 -26 -10 -11 0 -22 -7 -25 -15 -9 -24
-24 -17 -24 10 0 19 5 25 21 25 18 0 19 2 9 15 -16 19 -30 19 -30 0 0 -11 -11
-15 -40 -15 -22 0 -40 -4 -40 -9 0 -5 -9 -11 -20 -14 -11 -3 -20 -12 -20 -20
0 -9 9 -19 20 -22 16 -5 20 -16 22 -53 l1 -47 4 43 c3 34 8 42 24 42 16 0 19
-7 19 -40 0 -22 5 -40 10 -40 6 0 10 -7 10 -15 0 -8 5 -15 10 -15 6 0 10 7 10
15 0 8 4 15 9 15 5 0 16 3 24 6 12 4 14 0 10 -15 -3 -12 -1 -21 5 -21 6 0 13
8 15 17 4 17 5 17 6 1 1 -25 71 -26 71 -2 0 12 -7 15 -23 12 -20 -4 -23 -1
-19 19 5 26 12 29 30 11 10 -10 15 -10 21 1 7 11 11 9 20 -8 10 -17 9 -22 -4
-27 -46 -18 7 -24 210 -24 l224 0 16 28 15 27 -6 -27 c-6 -27 -4 -28 30 -28
25 0 36 4 36 15 0 8 -7 15 -16 15 -15 0 -16 8 -11 60 6 50 4 62 -9 67 -9 3
-20 0 -24 -7 -5 -7 -15 -10 -25 -6 -14 5 -16 14 -11 40 4 20 2 37 -4 41 -5 3
-10 -3 -10 -14 0 -12 -7 -21 -15 -21 -13 0 -14 4 -5 20 15 28 3 60 -21 60 -12
0 -19 -7 -19 -20 0 -22 -15 -27 -26 -9 -3 6 -17 8 -30 5 -17 -5 -24 -2 -24 9
0 8 5 15 10 15 6 0 10 32 10 75 0 63 -3 78 -21 96 -20 20 -21 20 -34 2 -13
-17 -14 -16 -15 10 0 15 -5 27 -11 27 -7 0 -9 -9 -5 -22z m-20 -203 c-4 -8
-10 -12 -15 -9 -14 8 -10 24 6 24 9 0 12 -6 9 -15z m-47 -71 c-3 -3 -12 -4
-19 -1 -8 3 -5 6 6 6 11 1 17 -2 13 -5z m168 -53 c-3 -12 -13 -21 -21 -21 -12
0 -12 4 3 24 21 28 28 26 18 -3z m100 -11 c3 -5 -3 -10 -15 -10 -12 0 -18 5
-15 10 3 6 10 10 15 10 5 0 12 -4 15 -10z"/>
<path d="M7970 450 c0 -11 4 -20 9 -20 5 0 7 9 4 20 -3 11 -7 20 -9 20 -2 0
-4 -9 -4 -20z"/>
<path d="M7730 445 c-10 -13 -9 -15 9 -15 11 0 21 -5 21 -12 0 -6 2 -9 5 -7 6
7 -6 49 -15 49 -4 0 -13 -7 -20 -15z"/>
<path d="M7860 390 c0 -22 5 -40 10 -40 6 0 10 18 10 40 0 22 -4 40 -10 40 -5
0 -10 -18 -10 -40z"/>
<path d="M6775 360 c-3 -5 1 -10 9 -10 9 0 16 5 16 10 0 6 -4 10 -9 10 -6 0
-13 -4 -16 -10z"/>
<path d="M8220 360 c0 -5 5 -10 10 -10 6 0 10 5 10 10 0 6 -4 10 -10 10 -5 0
-10 -4 -10 -10z"/>
<path d="M7808 299 c-22 -12 -23 -29 -3 -29 9 0 18 -6 21 -14 6 -16 48 -13 70
4 20 18 -2 43 -33 37 -13 -2 -23 0 -23 4 0 12 -11 11 -32 -2z"/>
<path d="M7260 284 c0 -10 31 -36 37 -31 3 3 -2 13 -10 22 -16 15 -27 19 -27
9z"/>
<path d="M8073 230 c0 -25 2 -35 4 -22 2 12 2 32 0 45 -2 12 -4 2 -4 -23z"/>
<path d="M9234 247 c-8 -21 2 -35 16 -21 5 5 6 15 0 24 -8 12 -10 12 -16 -3z"/>
<path d="M8560 235 c0 -9 6 -12 15 -9 8 4 12 10 9 15 -8 14 -24 10 -24 -6z"/>
<path d="M7935 230 c-10 -17 12 -37 25 -24 8 8 6 15 -4 23 -10 9 -16 9 -21 1z"/>
<path d="M7837 209 c-4 -16 -3 -18 9 -8 7 6 11 15 8 20 -8 13 -11 11 -17 -12z"/>
<path d="M7980 221 c0 -6 5 -13 10 -16 6 -3 10 1 10 9 0 9 -4 16 -10 16 -5 0
-10 -4 -10 -9z"/>
<path d="M7904 205 c3 -8 1 -15 -5 -15 -6 0 -7 -4 -4 -10 11 -18 25 -10 25 15
0 14 -5 25 -11 25 -6 0 -9 -7 -5 -15z"/>
<path d="M9340 200 c0 -5 5 -10 10 -10 6 0 10 5 10 10 0 6 -4 10 -10 10 -5 0
-10 -4 -10 -10z"/>
<path d="M8383 155 c-8 -36 -8 -45 3 -45 10 0 14 14 14 45 0 25 -1 45 -3 45
-2 0 -8 -20 -14 -45z"/>
<path d="M7960 150 c0 -33 3 -40 20 -40 11 0 20 -5 20 -11 0 -8 4 -8 15 1 12
10 15 7 20 -13 4 -14 2 -34 -4 -45 -14 -26 -14 -42 -1 -42 6 0 10 5 10 11 0 6
7 17 15 25 8 9 15 24 15 34 0 10 -7 25 -15 34 -8 8 -15 31 -15 50 0 35 -1 36
-40 36 l-40 0 0 -40z"/>
<path d="M8186 134 c-9 -23 -8 -24 14 -24 22 0 23 1 14 24 -8 20 -20 20 -28 0z"/>
<path d="M8800 126 c0 -9 5 -16 10 -16 6 0 10 4 10 9 0 6 -4 13 -10 16 -5 3
-10 -1 -10 -9z"/>
<path d="M6865 90 c10 -32 -3 -58 -32 -62 -45 -5 -40 -28 6 -28 30 0 41 4 41
15 0 8 4 15 9 15 5 0 4 17 -1 40 -6 22 -15 40 -20 40 -5 0 -6 -9 -3 -20z"/>
<path d="M6910 106 c0 -2 7 -20 15 -40 12 -28 21 -36 40 -36 31 0 33 17 3 22
-17 2 -24 11 -26 31 -2 15 -9 27 -18 27 -8 0 -14 -2 -14 -4z"/>
<path d="M8125 73 c-10 -24 -12 -39 -5 -41 5 -2 10 -10 10 -18 0 -10 13 -14
45 -14 33 0 45 4 45 15 0 10 -10 15 -30 15 -28 0 -30 2 -30 40 0 50 -15 51
-35 3z"/>
<path d="M8560 99 c0 -5 5 -7 10 -4 6 3 10 8 10 11 0 2 -4 4 -10 4 -5 0 -10
-5 -10 -11z"/>
<path d="M8650 78 c0 -18 -3 -43 -6 -55 -4 -14 -2 -23 5 -23 6 0 11 7 11 15 0
8 7 15 15 15 11 0 15 11 15 40 0 33 -3 40 -20 40 -16 0 -20 -7 -20 -32z"/>
<path d="M8711 73 c-1 -37 2 -43 19 -43 11 0 20 -7 20 -15 0 -11 12 -15 44
-15 l43 0 0 40 c0 34 -3 41 -23 46 -13 3 -38 1 -55 -5 -40 -14 -37 -15 -42 12
-2 12 -5 3 -6 -20z"/>
<path d="M9000 92 c0 -26 -11 -34 -27 -21 -7 6 -13 8 -13 4 0 -5 -8 -1 -18 9
-18 15 -19 15 -30 -10 -16 -34 -5 -74 19 -74 10 0 19 7 19 15 0 8 5 15 10 15
6 0 10 -7 10 -15 0 -9 9 -15 23 -15 20 0 22 5 25 55 2 34 -1 55 -7 55 -6 0
-11 -8 -11 -18z"/>
<path d="M9177 103 c-12 -11 -8 -31 8 -37 11 -4 15 1 15 19 0 24 -10 32 -23
18z"/>
<path d="M8506 62 c-2 -4 0 -14 5 -22 8 -13 10 -13 18 0 10 15 6 30 -9 30 -5
0 -11 -4 -14 -8z"/>
<path d="M8620 45 c-10 -12 -10 -15 4 -15 9 0 16 7 16 15 0 8 -2 15 -4 15 -2
0 -9 -7 -16 -15z"/>
<path d="M8000 40 c0 -5 5 -10 11 -10 5 0 7 5 4 10 -3 6 -8 10 -11 10 -2 0 -4
-4 -4 -10z"/>
<path d="M8240 40 c0 -5 5 -10 10 -10 6 0 10 5 10 10 0 6 -4 10 -10 10 -5 0
-10 -4 -10 -10z"/>
<path d="M7140 15 c0 -8 5 -15 10 -15 6 0 10 7 10 15 0 8 -4 15 -10 15 -5 0
-10 -7 -10 -15z"/>
<path d="M7930 15 c0 -8 9 -15 20 -15 11 0 20 7 20 15 0 8 -9 15 -20 15 -11 0
-20 -7 -20 -15z"/>
<path d="M8071 14 c0 -11 3 -14 6 -6 3 7 2 16 -1 19 -3 4 -6 -2 -5 -13z"/>
<path d="M8311 14 c0 -11 3 -14 6 -6 3 7 2 16 -1 19 -3 4 -6 -2 -5 -13z"/>
<path d="M8390 15 c0 -8 5 -15 10 -15 6 0 10 7 10 15 0 8 -4 15 -10 15 -5 0
-10 -7 -10 -15z"/>
<path d="M9090 15 c0 -8 5 -15 10 -15 6 0 10 7 10 15 0 8 -4 15 -10 15 -5 0
-10 -7 -10 -15z"/>
<path d="M9150 15 c0 -8 7 -15 15 -15 8 0 15 7 15 15 0 8 -7 15 -15 15 -8 0
-15 -7 -15 -15z"/>
</g>
</svg>
